<?xml version="1.0" encoding="UTF-8" standalone="no"?><svg xmlns="http://www.w3.org/2000/svg" xmlns:xlink="http://www.w3.org/1999/xlink" contentScriptType="application/ecmascript" contentStyleType="text/css" height="233px" preserveAspectRatio="none" style="width:2834px;height:233px;" version="1.1" viewBox="0 0 2834 233" width="2834px" zoomAndPan="magnify"><defs><filter height="300%" id="fx855t5bigejh" width="300%" x="-1" y="-1"><feGaussianBlur result="blurOut" stdDeviation="2.0"/><feColorMatrix in="blurOut" result="blurOut2" type="matrix" values="0 0 0 0 0 0 0 0 0 0 0 0 0 0 0 0 0 0 .4 0"/><feOffset dx="4.0" dy="4.0" in="blurOut2" result="blurOut3"/><feBlend in="SourceGraphic" in2="blurOut3" mode="normal"/></filter></defs><g><!--class AIBoat--><rect fill="#FEFECE" filter="url(#fx855t5bigejh)" height="48" id="AIBoat" style="stroke: #A80036; stroke-width: 1.5;" width="72" x="566.5" y="66"/><ellipse cx="581.5" cy="82" fill="#ADD1B2" rx="11" ry="11" style="stroke: #A80036; stroke-width: 1.0;"/><path d="M584.4688,87.6406 Q583.8906,87.9375 583.25,88.0781 Q582.6094,88.2344 581.9063,88.2344 Q579.4063,88.2344 578.0781,86.5938 Q576.7656,84.9375 576.7656,81.8125 Q576.7656,78.6875 578.0781,77.0313 Q579.4063,75.375 581.9063,75.375 Q582.6094,75.375 583.25,75.5313 Q583.9063,75.6875 584.4688,75.9844 L584.4688,78.7031 Q583.8438,78.125 583.25,77.8594 Q582.6563,77.5781 582.0313,77.5781 Q580.6875,77.5781 580,78.6563 Q579.3125,79.7188 579.3125,81.8125 Q579.3125,83.9063 580,84.9844 Q580.6875,86.0469 582.0313,86.0469 Q582.6563,86.0469 583.25,85.7813 Q583.8438,85.5 584.4688,84.9219 L584.4688,87.6406 Z "/><text fill="#000000" font-family="sans-serif" font-size="12" lengthAdjust="spacingAndGlyphs" textLength="40" x="595.5" y="86.1543">AIBoat</text><line style="stroke: #A80036; stroke-width: 1.5;" x1="567.5" x2="637.5" y1="98" y2="98"/><line style="stroke: #A80036; stroke-width: 1.5;" x1="567.5" x2="637.5" y1="106" y2="106"/><!--class Boat--><rect fill="#FEFECE" filter="url(#fx855t5bigejh)" height="48" id="Boat" style="stroke: #A80036; stroke-width: 1.5;" width="61" x="470" y="66"/><ellipse cx="485" cy="82" fill="#A9DCDF" rx="11" ry="11" style="stroke: #A80036; stroke-width: 1.0;"/><path d="M485.1094,77.3438 L483.9531,82.4219 L486.2813,82.4219 L485.1094,77.3438 Z M483.625,75.1094 L486.6094,75.1094 L489.9688,87.5 L487.5156,87.5 L486.75,84.4375 L483.4688,84.4375 L482.7188,87.5 L480.2813,87.5 L483.625,75.1094 Z "/><text fill="#000000" font-family="sans-serif" font-size="12" font-style="italic" lengthAdjust="spacingAndGlyphs" textLength="29" x="499" y="86.1543">Boat</text><line style="stroke: #A80036; stroke-width: 1.5;" x1="471" x2="530" y1="98" y2="98"/><line style="stroke: #A80036; stroke-width: 1.5;" x1="471" x2="530" y1="106" y2="106"/><!--class BoatRace--><rect fill="#FEFECE" filter="url(#fx855t5bigejh)" height="48" id="BoatRace" style="stroke: #A80036; stroke-width: 1.5;" width="92" x="2441.5" y="66"/><ellipse cx="2456.5" cy="82" fill="#ADD1B2" rx="11" ry="11" style="stroke: #A80036; stroke-width: 1.0;"/><path d="M2459.4688,87.6406 Q2458.8906,87.9375 2458.25,88.0781 Q2457.6094,88.2344 2456.9063,88.2344 Q2454.4063,88.2344 2453.0781,86.5938 Q2451.7656,84.9375 2451.7656,81.8125 Q2451.7656,78.6875 2453.0781,77.0313 Q2454.4063,75.375 2456.9063,75.375 Q2457.6094,75.375 2458.25,75.5313 Q2458.9063,75.6875 2459.4688,75.9844 L2459.4688,78.7031 Q2458.8438,78.125 2458.25,77.8594 Q2457.6563,77.5781 2457.0313,77.5781 Q2455.6875,77.5781 2455,78.6563 Q2454.3125,79.7188 2454.3125,81.8125 Q2454.3125,83.9063 2455,84.9844 Q2455.6875,86.0469 2457.0313,86.0469 Q2457.6563,86.0469 2458.25,85.7813 Q2458.8438,85.5 2459.4688,84.9219 L2459.4688,87.6406 Z "/><text fill="#000000" font-family="sans-serif" font-size="12" lengthAdjust="spacingAndGlyphs" textLength="60" x="2470.5" y="86.1543">BoatRace</text><line style="stroke: #A80036; stroke-width: 1.5;" x1="2442.5" x2="2532.5" y1="98" y2="98"/><line style="stroke: #A80036; stroke-width: 1.5;" x1="2442.5" x2="2532.5" y1="106" y2="106"/><!--class CollisionBounds--><rect fill="#FEFECE" filter="url(#fx855t5bigejh)" height="48" id="CollisionBounds" style="stroke: #A80036; stroke-width: 1.5;" width="130" x="2568.5" y="66"/><ellipse cx="2583.5" cy="82" fill="#ADD1B2" rx="11" ry="11" style="stroke: #A80036; stroke-width: 1.0;"/><path d="M2586.4688,87.6406 Q2585.8906,87.9375 2585.25,88.0781 Q2584.6094,88.2344 2583.9063,88.2344 Q2581.4063,88.2344 2580.0781,86.5938 Q2578.7656,84.9375 2578.7656,81.8125 Q2578.7656,78.6875 2580.0781,77.0313 Q2581.4063,75.375 2583.9063,75.375 Q2584.6094,75.375 2585.25,75.5313 Q2585.9063,75.6875 2586.4688,75.9844 L2586.4688,78.7031 Q2585.8438,78.125 2585.25,77.8594 Q2584.6563,77.5781 2584.0313,77.5781 Q2582.6875,77.5781 2582,78.6563 Q2581.3125,79.7188 2581.3125,81.8125 Q2581.3125,83.9063 2582,84.9844 Q2582.6875,86.0469 2584.0313,86.0469 Q2584.6563,86.0469 2585.25,85.7813 Q2585.8438,85.5 2586.4688,84.9219 L2586.4688,87.6406 Z "/><text fill="#000000" font-family="sans-serif" font-size="12" lengthAdjust="spacingAndGlyphs" textLength="98" x="2597.5" y="86.1543">CollisionBounds</text><line style="stroke: #A80036; stroke-width: 1.5;" x1="2569.5" x2="2697.5" y1="98" y2="98"/><line style="stroke: #A80036; stroke-width: 1.5;" x1="2569.5" x2="2697.5" y1="106" y2="106"/><!--class CollisionObject--><rect fill="#FEFECE" filter="url(#fx855t5bigejh)" height="48" id="CollisionObject" style="stroke: #A80036; stroke-width: 1.5;" width="121" x="314" y="66"/><ellipse cx="329" cy="82" fill="#B4A7E5" rx="11" ry="11" style="stroke: #A80036; stroke-width: 1.0;"/><path d="M324.9219,77.7656 L324.9219,75.6094 L332.3125,75.6094 L332.3125,77.7656 L329.8438,77.7656 L329.8438,85.8438 L332.3125,85.8438 L332.3125,88 L324.9219,88 L324.9219,85.8438 L327.3906,85.8438 L327.3906,77.7656 L324.9219,77.7656 Z "/><text fill="#000000" font-family="sans-serif" font-size="12" font-style="italic" lengthAdjust="spacingAndGlyphs" textLength="89" x="343" y="86.1543">CollisionObject</text><line style="stroke: #A80036; stroke-width: 1.5;" x1="315" x2="434" y1="98" y2="98"/><line style="stroke: #A80036; stroke-width: 1.5;" x1="315" x2="434" y1="106" y2="106"/><!--class GameObject--><rect fill="#FEFECE" filter="url(#fx855t5bigejh)" height="48" id="GameObject" style="stroke: #A80036; stroke-width: 1.5;" width="107" x="6" y="66"/><ellipse cx="21" cy="82" fill="#A9DCDF" rx="11" ry="11" style="stroke: #A80036; stroke-width: 1.0;"/><path d="M21.1094,77.3438 L19.9531,82.4219 L22.2813,82.4219 L21.1094,77.3438 Z M19.625,75.1094 L22.6094,75.1094 L25.9688,87.5 L23.5156,87.5 L22.75,84.4375 L19.4688,84.4375 L18.7188,87.5 L16.2813,87.5 L19.625,75.1094 Z "/><text fill="#000000" font-family="sans-serif" font-size="12" font-style="italic" lengthAdjust="spacingAndGlyphs" textLength="75" x="35" y="86.1543">GameObject</text><line style="stroke: #A80036; stroke-width: 1.5;" x1="7" x2="112" y1="98" y2="98"/><line style="stroke: #A80036; stroke-width: 1.5;" x1="7" x2="112" y1="106" y2="106"/><!--class MoveableObject--><rect fill="#FEFECE" filter="url(#fx855t5bigejh)" height="48" id="MoveableObject" style="stroke: #A80036; stroke-width: 1.5;" width="130" x="148.5" y="66"/><ellipse cx="163.5" cy="82" fill="#A9DCDF" rx="11" ry="11" style="stroke: #A80036; stroke-width: 1.0;"/><path d="M163.6094,77.3438 L162.4531,82.4219 L164.7813,82.4219 L163.6094,77.3438 Z M162.125,75.1094 L165.1094,75.1094 L168.4688,87.5 L166.0156,87.5 L165.25,84.4375 L161.9688,84.4375 L161.2188,87.5 L158.7813,87.5 L162.125,75.1094 Z "/><text fill="#000000" font-family="sans-serif" font-size="12" font-style="italic" lengthAdjust="spacingAndGlyphs" textLength="98" x="177.5" y="86.1543">MoveableObject</text><line style="stroke: #A80036; stroke-width: 1.5;" x1="149.5" x2="277.5" y1="98" y2="98"/><line style="stroke: #A80036; stroke-width: 1.5;" x1="149.5" x2="277.5" y1="106" y2="106"/><!--class Obstacle--><rect fill="#FEFECE" filter="url(#fx855t5bigejh)" height="48" id="Obstacle" style="stroke: #A80036; stroke-width: 1.5;" width="85" x="808" y="66"/><ellipse cx="823" cy="82" fill="#A9DCDF" rx="11" ry="11" style="stroke: #A80036; stroke-width: 1.0;"/><path d="M823.1094,77.3438 L821.9531,82.4219 L824.2813,82.4219 L823.1094,77.3438 Z M821.625,75.1094 L824.6094,75.1094 L827.9688,87.5 L825.5156,87.5 L824.75,84.4375 L821.4688,84.4375 L820.7188,87.5 L818.2813,87.5 L821.625,75.1094 Z "/><text fill="#000000" font-family="sans-serif" font-size="12" font-style="italic" lengthAdjust="spacingAndGlyphs" textLength="53" x="837" y="86.1543">Obstacle</text><line style="stroke: #A80036; stroke-width: 1.5;" x1="809" x2="892" y1="98" y2="98"/><line style="stroke: #A80036; stroke-width: 1.5;" x1="809" x2="892" y1="106" y2="106"/><!--class ObstacleBranch--><rect fill="#FEFECE" filter="url(#fx855t5bigejh)" height="48" id="ObstacleBranch" style="stroke: #A80036; stroke-width: 1.5;" width="131" x="1259" y="66"/><ellipse cx="1274" cy="82" fill="#ADD1B2" rx="11" ry="11" style="stroke: #A80036; stroke-width: 1.0;"/><path d="M1276.9688,87.6406 Q1276.3906,87.9375 1275.75,88.0781 Q1275.1094,88.2344 1274.4063,88.2344 Q1271.9063,88.2344 1270.5781,86.5938 Q1269.2656,84.9375 1269.2656,81.8125 Q1269.2656,78.6875 1270.5781,77.0313 Q1271.9063,75.375 1274.4063,75.375 Q1275.1094,75.375 1275.75,75.5313 Q1276.4063,75.6875 1276.9688,75.9844 L1276.9688,78.7031 Q1276.3438,78.125 1275.75,77.8594 Q1275.1563,77.5781 1274.5313,77.5781 Q1273.1875,77.5781 1272.5,78.6563 Q1271.8125,79.7188 1271.8125,81.8125 Q1271.8125,83.9063 1272.5,84.9844 Q1273.1875,86.0469 1274.5313,86.0469 Q1275.1563,86.0469 1275.75,85.7813 Q1276.3438,85.5 1276.9688,84.9219 L1276.9688,87.6406 Z "/><text fill="#000000" font-family="sans-serif" font-size="12" lengthAdjust="spacingAndGlyphs" textLength="99" x="1288" y="86.1543">ObstacleBranch</text><line style="stroke: #A80036; stroke-width: 1.5;" x1="1260" x2="1389" y1="98" y2="98"/><line style="stroke: #A80036; stroke-width: 1.5;" x1="1260" x2="1389" y1="106" y2="106"/><!--class ObstacleDuck--><rect fill="#FEFECE" filter="url(#fx855t5bigejh)" height="48" id="ObstacleDuck" style="stroke: #A80036; stroke-width: 1.5;" width="118" x="1105.5" y="66"/><ellipse cx="1120.5" cy="82" fill="#ADD1B2" rx="11" ry="11" style="stroke: #A80036; stroke-width: 1.0;"/><path d="M1123.4688,87.6406 Q1122.8906,87.9375 1122.25,88.0781 Q1121.6094,88.2344 1120.9063,88.2344 Q1118.4063,88.2344 1117.0781,86.5938 Q1115.7656,84.9375 1115.7656,81.8125 Q1115.7656,78.6875 1117.0781,77.0313 Q1118.4063,75.375 1120.9063,75.375 Q1121.6094,75.375 1122.25,75.5313 Q1122.9063,75.6875 1123.4688,75.9844 L1123.4688,78.7031 Q1122.8438,78.125 1122.25,77.8594 Q1121.6563,77.5781 1121.0313,77.5781 Q1119.6875,77.5781 1119,78.6563 Q1118.3125,79.7188 1118.3125,81.8125 Q1118.3125,83.9063 1119,84.9844 Q1119.6875,86.0469 1121.0313,86.0469 Q1121.6563,86.0469 1122.25,85.7813 Q1122.8438,85.5 1123.4688,84.9219 L1123.4688,87.6406 Z "/><text fill="#000000" font-family="sans-serif" font-size="12" lengthAdjust="spacingAndGlyphs" textLength="86" x="1134.5" y="86.1543">ObstacleDuck</text><line style="stroke: #A80036; stroke-width: 1.5;" x1="1106.5" x2="1222.5" y1="98" y2="98"/><line style="stroke: #A80036; stroke-width: 1.5;" x1="1106.5" x2="1222.5" y1="106" y2="106"/><!--class ObstacleFloatingBranch--><rect fill="#FEFECE" filter="url(#fx855t5bigejh)" height="48" id="ObstacleFloatingBranch" style="stroke: #A80036; stroke-width: 1.5;" width="181" x="1425" y="66"/><ellipse cx="1440" cy="82" fill="#ADD1B2" rx="11" ry="11" style="stroke: #A80036; stroke-width: 1.0;"/><path d="M1442.9688,87.6406 Q1442.3906,87.9375 1441.75,88.0781 Q1441.1094,88.2344 1440.4063,88.2344 Q1437.9063,88.2344 1436.5781,86.5938 Q1435.2656,84.9375 1435.2656,81.8125 Q1435.2656,78.6875 1436.5781,77.0313 Q1437.9063,75.375 1440.4063,75.375 Q1441.1094,75.375 1441.75,75.5313 Q1442.4063,75.6875 1442.9688,75.9844 L1442.9688,78.7031 Q1442.3438,78.125 1441.75,77.8594 Q1441.1563,77.5781 1440.5313,77.5781 Q1439.1875,77.5781 1438.5,78.6563 Q1437.8125,79.7188 1437.8125,81.8125 Q1437.8125,83.9063 1438.5,84.9844 Q1439.1875,86.0469 1440.5313,86.0469 Q1441.1563,86.0469 1441.75,85.7813 Q1442.3438,85.5 1442.9688,84.9219 L1442.9688,87.6406 Z "/><text fill="#000000" font-family="sans-serif" font-size="12" lengthAdjust="spacingAndGlyphs" textLength="149" x="1454" y="86.1543">ObstacleFloatingBranch</text><line style="stroke: #A80036; stroke-width: 1.5;" x1="1426" x2="1605" y1="98" y2="98"/><line style="stroke: #A80036; stroke-width: 1.5;" x1="1426" x2="1605" y1="106" y2="106"/><!--class ObstacleLaneWall--><rect fill="#FEFECE" filter="url(#fx855t5bigejh)" height="48" id="ObstacleLaneWall" style="stroke: #A80036; stroke-width: 1.5;" width="142" x="928.5" y="66"/><ellipse cx="943.5" cy="82" fill="#ADD1B2" rx="11" ry="11" style="stroke: #A80036; stroke-width: 1.0;"/><path d="M946.4688,87.6406 Q945.8906,87.9375 945.25,88.0781 Q944.6094,88.2344 943.9063,88.2344 Q941.4063,88.2344 940.0781,86.5938 Q938.7656,84.9375 938.7656,81.8125 Q938.7656,78.6875 940.0781,77.0313 Q941.4063,75.375 943.9063,75.375 Q944.6094,75.375 945.25,75.5313 Q945.9063,75.6875 946.4688,75.9844 L946.4688,78.7031 Q945.8438,78.125 945.25,77.8594 Q944.6563,77.5781 944.0313,77.5781 Q942.6875,77.5781 942,78.6563 Q941.3125,79.7188 941.3125,81.8125 Q941.3125,83.9063 942,84.9844 Q942.6875,86.0469 944.0313,86.0469 Q944.6563,86.0469 945.25,85.7813 Q945.8438,85.5 946.4688,84.9219 L946.4688,87.6406 Z "/><text fill="#000000" font-family="sans-serif" font-size="12" lengthAdjust="spacingAndGlyphs" textLength="110" x="957.5" y="86.1543">ObstacleLaneWall</text><line style="stroke: #A80036; stroke-width: 1.5;" x1="929.5" x2="1069.5" y1="98" y2="98"/><line style="stroke: #A80036; stroke-width: 1.5;" x1="929.5" x2="1069.5" y1="106" y2="106"/><!--class PixelBoat--><rect fill="#FEFECE" filter="url(#fx855t5bigejh)" height="48" id="PixelBoat" style="stroke: #A80036; stroke-width: 1.5;" width="89" x="2734" y="66"/><ellipse cx="2749" cy="82" fill="#ADD1B2" rx="11" ry="11" style="stroke: #A80036; stroke-width: 1.0;"/><path d="M2751.9688,87.6406 Q2751.3906,87.9375 2750.75,88.0781 Q2750.1094,88.2344 2749.4063,88.2344 Q2746.9063,88.2344 2745.5781,86.5938 Q2744.2656,84.9375 2744.2656,81.8125 Q2744.2656,78.6875 2745.5781,77.0313 Q2746.9063,75.375 2749.4063,75.375 Q2750.1094,75.375 2750.75,75.5313 Q2751.4063,75.6875 2751.9688,75.9844 L2751.9688,78.7031 Q2751.3438,78.125 2750.75,77.8594 Q2750.1563,77.5781 2749.5313,77.5781 Q2748.1875,77.5781 2747.5,78.6563 Q2746.8125,79.7188 2746.8125,81.8125 Q2746.8125,83.9063 2747.5,84.9844 Q2748.1875,86.0469 2749.5313,86.0469 Q2750.1563,86.0469 2750.75,85.7813 Q2751.3438,85.5 2751.9688,84.9219 L2751.9688,87.6406 Z "/><text fill="#000000" font-family="sans-serif" font-size="12" lengthAdjust="spacingAndGlyphs" textLength="57" x="2763" y="86.1543">PixelBoat</text><line style="stroke: #A80036; stroke-width: 1.5;" x1="2735" x2="2822" y1="98" y2="98"/><line style="stroke: #A80036; stroke-width: 1.5;" x1="2735" x2="2822" y1="106" y2="106"/><!--class PlayerBoat--><rect fill="#FEFECE" filter="url(#fx855t5bigejh)" height="48" id="PlayerBoat" style="stroke: #A80036; stroke-width: 1.5;" width="99" x="674" y="66"/><ellipse cx="689" cy="82" fill="#ADD1B2" rx="11" ry="11" style="stroke: #A80036; stroke-width: 1.0;"/><path d="M691.9688,87.6406 Q691.3906,87.9375 690.75,88.0781 Q690.1094,88.2344 689.4063,88.2344 Q686.9063,88.2344 685.5781,86.5938 Q684.2656,84.9375 684.2656,81.8125 Q684.2656,78.6875 685.5781,77.0313 Q686.9063,75.375 689.4063,75.375 Q690.1094,75.375 690.75,75.5313 Q691.4063,75.6875 691.9688,75.9844 L691.9688,78.7031 Q691.3438,78.125 690.75,77.8594 Q690.1563,77.5781 689.5313,77.5781 Q688.1875,77.5781 687.5,78.6563 Q686.8125,79.7188 686.8125,81.8125 Q686.8125,83.9063 687.5,84.9844 Q688.1875,86.0469 689.5313,86.0469 Q690.1563,86.0469 690.75,85.7813 Q691.3438,85.5 691.9688,84.9219 L691.9688,87.6406 Z "/><text fill="#000000" font-family="sans-serif" font-size="12" lengthAdjust="spacingAndGlyphs" textLength="67" x="703" y="86.1543">PlayerBoat</text><line style="stroke: #A80036; stroke-width: 1.5;" x1="675" x2="772" y1="98" y2="98"/><line style="stroke: #A80036; stroke-width: 1.5;" x1="675" x2="772" y1="106" y2="106"/><!--class ResultsScreen--><rect fill="#FEFECE" filter="url(#fx855t5bigejh)" height="48" id="ResultsScreen" style="stroke: #A80036; stroke-width: 1.5;" width="122" x="2426.5" y="174"/><ellipse cx="2441.5" cy="190" fill="#ADD1B2" rx="11" ry="11" style="stroke: #A80036; stroke-width: 1.0;"/><path d="M2444.4688,195.6406 Q2443.8906,195.9375 2443.25,196.0781 Q2442.6094,196.2344 2441.9063,196.2344 Q2439.4063,196.2344 2438.0781,194.5938 Q2436.7656,192.9375 2436.7656,189.8125 Q2436.7656,186.6875 2438.0781,185.0313 Q2439.4063,183.375 2441.9063,183.375 Q2442.6094,183.375 2443.25,183.5313 Q2443.9063,183.6875 2444.4688,183.9844 L2444.4688,186.7031 Q2443.8438,186.125 2443.25,185.8594 Q2442.6563,185.5781 2442.0313,185.5781 Q2440.6875,185.5781 2440,186.6563 Q2439.3125,187.7188 2439.3125,189.8125 Q2439.3125,191.9063 2440,192.9844 Q2440.6875,194.0469 2442.0313,194.0469 Q2442.6563,194.0469 2443.25,193.7813 Q2443.8438,193.5 2444.4688,192.9219 L2444.4688,195.6406 Z "/><text fill="#000000" font-family="sans-serif" font-size="12" lengthAdjust="spacingAndGlyphs" textLength="90" x="2455.5" y="194.1543">ResultsScreen</text><line style="stroke: #A80036; stroke-width: 1.5;" x1="2427.5" x2="2547.5" y1="206" y2="206"/><line style="stroke: #A80036; stroke-width: 1.5;" x1="2427.5" x2="2547.5" y1="214" y2="214"/><!--class Scene--><rect fill="#FEFECE" filter="url(#fx855t5bigejh)" height="48" id="Scene" style="stroke: #A80036; stroke-width: 1.5;" width="71" x="1641" y="66"/><ellipse cx="1656" cy="82" fill="#B4A7E5" rx="11" ry="11" style="stroke: #A80036; stroke-width: 1.0;"/><path d="M1651.9219,77.7656 L1651.9219,75.6094 L1659.3125,75.6094 L1659.3125,77.7656 L1656.8438,77.7656 L1656.8438,85.8438 L1659.3125,85.8438 L1659.3125,88 L1651.9219,88 L1651.9219,85.8438 L1654.3906,85.8438 L1654.3906,77.7656 L1651.9219,77.7656 Z "/><text fill="#000000" font-family="sans-serif" font-size="12" font-style="italic" lengthAdjust="spacingAndGlyphs" textLength="39" x="1670" y="86.1543">Scene</text><line style="stroke: #A80036; stroke-width: 1.5;" x1="1642" x2="1711" y1="98" y2="98"/><line style="stroke: #A80036; stroke-width: 1.5;" x1="1642" x2="1711" y1="106" y2="106"/><!--class SceneMainGame--><rect fill="#FEFECE" filter="url(#fx855t5bigejh)" height="48" id="SceneMainGame" style="stroke: #A80036; stroke-width: 1.5;" width="136" x="2270.5" y="66"/><ellipse cx="2285.5" cy="82" fill="#ADD1B2" rx="11" ry="11" style="stroke: #A80036; stroke-width: 1.0;"/><path d="M2288.4688,87.6406 Q2287.8906,87.9375 2287.25,88.0781 Q2286.6094,88.2344 2285.9063,88.2344 Q2283.4063,88.2344 2282.0781,86.5938 Q2280.7656,84.9375 2280.7656,81.8125 Q2280.7656,78.6875 2282.0781,77.0313 Q2283.4063,75.375 2285.9063,75.375 Q2286.6094,75.375 2287.25,75.5313 Q2287.9063,75.6875 2288.4688,75.9844 L2288.4688,78.7031 Q2287.8438,78.125 2287.25,77.8594 Q2286.6563,77.5781 2286.0313,77.5781 Q2284.6875,77.5781 2284,78.6563 Q2283.3125,79.7188 2283.3125,81.8125 Q2283.3125,83.9063 2284,84.9844 Q2284.6875,86.0469 2286.0313,86.0469 Q2286.6563,86.0469 2287.25,85.7813 Q2287.8438,85.5 2288.4688,84.9219 L2288.4688,87.6406 Z "/><text fill="#000000" font-family="sans-serif" font-size="12" lengthAdjust="spacingAndGlyphs" textLength="104" x="2299.5" y="86.1543">SceneMainGame</text><line style="stroke: #A80036; stroke-width: 1.5;" x1="2271.5" x2="2405.5" y1="98" y2="98"/><line style="stroke: #A80036; stroke-width: 1.5;" x1="2271.5" x2="2405.5" y1="106" y2="106"/><!--class SceneOptionsMenu--><rect fill="#FEFECE" filter="url(#fx855t5bigejh)" height="48" id="SceneOptionsMenu" style="stroke: #A80036; stroke-width: 1.5;" width="153" x="2082" y="66"/><ellipse cx="2097" cy="82" fill="#ADD1B2" rx="11" ry="11" style="stroke: #A80036; stroke-width: 1.0;"/><path d="M2099.9688,87.6406 Q2099.3906,87.9375 2098.75,88.0781 Q2098.1094,88.2344 2097.4063,88.2344 Q2094.9063,88.2344 2093.5781,86.5938 Q2092.2656,84.9375 2092.2656,81.8125 Q2092.2656,78.6875 2093.5781,77.0313 Q2094.9063,75.375 2097.4063,75.375 Q2098.1094,75.375 2098.75,75.5313 Q2099.4063,75.6875 2099.9688,75.9844 L2099.9688,78.7031 Q2099.3438,78.125 2098.75,77.8594 Q2098.1563,77.5781 2097.5313,77.5781 Q2096.1875,77.5781 2095.5,78.6563 Q2094.8125,79.7188 2094.8125,81.8125 Q2094.8125,83.9063 2095.5,84.9844 Q2096.1875,86.0469 2097.5313,86.0469 Q2098.1563,86.0469 2098.75,85.7813 Q2099.3438,85.5 2099.9688,84.9219 L2099.9688,87.6406 Z "/><text fill="#000000" font-family="sans-serif" font-size="12" lengthAdjust="spacingAndGlyphs" textLength="121" x="2111" y="86.1543">SceneOptionsMenu</text><line style="stroke: #A80036; stroke-width: 1.5;" x1="2083" x2="2234" y1="98" y2="98"/><line style="stroke: #A80036; stroke-width: 1.5;" x1="2083" x2="2234" y1="106" y2="106"/><!--class SceneStartScreen--><rect fill="#FEFECE" filter="url(#fx855t5bigejh)" height="48" id="SceneStartScreen" style="stroke: #A80036; stroke-width: 1.5;" width="146" x="1900.5" y="66"/><ellipse cx="1915.5" cy="82" fill="#ADD1B2" rx="11" ry="11" style="stroke: #A80036; stroke-width: 1.0;"/><path d="M1918.4688,87.6406 Q1917.8906,87.9375 1917.25,88.0781 Q1916.6094,88.2344 1915.9063,88.2344 Q1913.4063,88.2344 1912.0781,86.5938 Q1910.7656,84.9375 1910.7656,81.8125 Q1910.7656,78.6875 1912.0781,77.0313 Q1913.4063,75.375 1915.9063,75.375 Q1916.6094,75.375 1917.25,75.5313 Q1917.9063,75.6875 1918.4688,75.9844 L1918.4688,78.7031 Q1917.8438,78.125 1917.25,77.8594 Q1916.6563,77.5781 1916.0313,77.5781 Q1914.6875,77.5781 1914,78.6563 Q1913.3125,79.7188 1913.3125,81.8125 Q1913.3125,83.9063 1914,84.9844 Q1914.6875,86.0469 1916.0313,86.0469 Q1916.6563,86.0469 1917.25,85.7813 Q1917.8438,85.5 1918.4688,84.9219 L1918.4688,87.6406 Z "/><text fill="#000000" font-family="sans-serif" font-size="12" lengthAdjust="spacingAndGlyphs" textLength="114" x="1929.5" y="86.1543">SceneStartScreen</text><line style="stroke: #A80036; stroke-width: 1.5;" x1="1901.5" x2="2045.5" y1="98" y2="98"/><line style="stroke: #A80036; stroke-width: 1.5;" x1="1901.5" x2="2045.5" y1="106" y2="106"/><!--class SceneTutorial--><rect fill="#FEFECE" filter="url(#fx855t5bigejh)" height="48" id="SceneTutorial" style="stroke: #A80036; stroke-width: 1.5;" width="118" x="1747.5" y="66"/><ellipse cx="1762.5" cy="82" fill="#ADD1B2" rx="11" ry="11" style="stroke: #A80036; stroke-width: 1.0;"/><path d="M1765.4688,87.6406 Q1764.8906,87.9375 1764.25,88.0781 Q1763.6094,88.2344 1762.9063,88.2344 Q1760.4063,88.2344 1759.0781,86.5938 Q1757.7656,84.9375 1757.7656,81.8125 Q1757.7656,78.6875 1759.0781,77.0313 Q1760.4063,75.375 1762.9063,75.375 Q1763.6094,75.375 1764.25,75.5313 Q1764.9063,75.6875 1765.4688,75.9844 L1765.4688,78.7031 Q1764.8438,78.125 1764.25,77.8594 Q1763.6563,77.5781 1763.0313,77.5781 Q1761.6875,77.5781 1761,78.6563 Q1760.3125,79.7188 1760.3125,81.8125 Q1760.3125,83.9063 1761,84.9844 Q1761.6875,86.0469 1763.0313,86.0469 Q1763.6563,86.0469 1764.25,85.7813 Q1764.8438,85.5 1765.4688,84.9219 L1765.4688,87.6406 Z "/><text fill="#000000" font-family="sans-serif" font-size="12" lengthAdjust="spacingAndGlyphs" textLength="86" x="1776.5" y="86.1543">SceneTutorial</text><line style="stroke: #A80036; stroke-width: 1.5;" x1="1748.5" x2="1864.5" y1="98" y2="98"/><line style="stroke: #A80036; stroke-width: 1.5;" x1="1748.5" x2="1864.5" y1="106" y2="106"/><!--class RaceThread--><rect fill="#FEFECE" filter="url(#fx855t5bigejh)" height="48" id="RaceThread" style="stroke: #A80036; stroke-width: 1.5;" width="107" x="2584" y="174"/><ellipse cx="2599" cy="190" fill="#ADD1B2" rx="11" ry="11" style="stroke: #A80036; stroke-width: 1.0;"/><path d="M2601.9688,195.6406 Q2601.3906,195.9375 2600.75,196.0781 Q2600.1094,196.2344 2599.4063,196.2344 Q2596.9063,196.2344 2595.5781,194.5938 Q2594.2656,192.9375 2594.2656,189.8125 Q2594.2656,186.6875 2595.5781,185.0313 Q2596.9063,183.375 2599.4063,183.375 Q2600.1094,183.375 2600.75,183.5313 Q2601.4063,183.6875 2601.9688,183.9844 L2601.9688,186.7031 Q2601.3438,186.125 2600.75,185.8594 Q2600.1563,185.5781 2599.5313,185.5781 Q2598.1875,185.5781 2597.5,186.6563 Q2596.8125,187.7188 2596.8125,189.8125 Q2596.8125,191.9063 2597.5,192.9844 Q2598.1875,194.0469 2599.5313,194.0469 Q2600.1563,194.0469 2600.75,193.7813 Q2601.3438,193.5 2601.9688,192.9219 L2601.9688,195.6406 Z "/><text fill="#000000" font-family="sans-serif" font-size="12" lengthAdjust="spacingAndGlyphs" textLength="75" x="2613" y="194.1543">RaceThread</text><line style="stroke: #A80036; stroke-width: 1.5;" x1="2585" x2="2690" y1="206" y2="206"/><line style="stroke: #A80036; stroke-width: 1.5;" x1="2585" x2="2690" y1="214" y2="214"/><!--link GameObject to MoveableObject--><path d="M133.18,90 C138.24,90 143.3,90 148.36,90 " fill="none" id="GameObject-MoveableObject" style="stroke: #A80036; stroke-width: 1.0;"/><polygon fill="none" points="133.04,97,113.04,90,133.04,83,133.04,97" style="stroke: #A80036; stroke-width: 1.0;"/><!--link MoveableObject to Obstacle--><path d="M265.36,55.89 C280.43,47.74 297.34,40.19 314,36 C412.92,11.11 675.69,5.44 773,36 C791.93,41.94 810.28,54.33 824.37,65.75 " fill="none" id="MoveableObject-Obstacle" style="stroke: #A80036; stroke-width: 1.0;"/><polygon fill="none" points="268.83,61.97,248.02,65.95,261.81,49.86,268.83,61.97" style="stroke: #A80036; stroke-width: 1.0;"/><!--link CollisionObject to Obstacle--><path d="M424.53,55.37 C438.62,47.43 454.37,40.11 470,36 C600.23,1.73 644.52,-4.35 773,36 C791.93,41.94 810.28,54.33 824.37,65.75 " fill="none" id="CollisionObject-Obstacle" style="stroke: #A80036; stroke-width: 1.0;"/><polygon fill="none" points="427.86,61.54,407.13,65.96,420.58,49.59,427.86,61.54" style="stroke: #A80036; stroke-width: 1.0;"/><!--link Obstacle to ObstacleBranch--><path d="M893.52,53.67 C904.44,46.41 916.61,39.85 929,36 C1054.21,-2.91 1096.85,4 1224,36 C1247.43,41.9 1271.36,54.44 1289.98,65.95 " fill="none" id="Obstacle-ObstacleBranch" style="stroke: #A80036; stroke-width: 1.0;"/><polygon fill="none" points="897.29,59.58,877.02,65.74,889.02,48.28,897.29,59.58" style="stroke: #A80036; stroke-width: 1.0;"/><!--link Obstacle to ObstacleDuck--><path d="M893.52,53.67 C904.44,46.41 916.61,39.85 929,36 C989.27,17.27 1010.04,19.66 1071,36 C1093.09,41.92 1115.36,54.46 1132.62,65.97 " fill="none" id="Obstacle-ObstacleDuck" style="stroke: #A80036; stroke-width: 1.0;"/><polygon fill="none" points="897.29,59.58,877.02,65.74,889.02,48.28,897.29,59.58" style="stroke: #A80036; stroke-width: 1.0;"/><!--link ObstacleBranch to ObstacleFloatingBranch--><path d="M1410.25,90 C1415.14,90 1420.03,90 1424.92,90 " fill="none" id="ObstacleBranch-ObstacleFloatingBranch" style="stroke: #A80036; stroke-width: 1.0;"/><polygon fill="none" points="1410.16,97,1390.16,90,1410.16,83,1410.16,97" style="stroke: #A80036; stroke-width: 1.0;"/><!--link Obstacle to ObstacleLaneWall--><path d="M913.43,90 C918.33,90 923.23,90 928.13,90 " fill="none" id="Obstacle-ObstacleLaneWall" style="stroke: #A80036; stroke-width: 1.0;"/><polygon fill="none" points="913.28,97,893.28,90,913.28,83,913.28,97" style="stroke: #A80036; stroke-width: 1.0;"/><!--link MoveableObject to Boat--><path d="M265.36,55.89 C280.43,47.74 297.34,40.19 314,36 C366.15,22.88 384.39,17.83 435,36 C451.78,42.03 467.33,54.42 479.07,65.82 " fill="none" id="MoveableObject-Boat" style="stroke: #A80036; stroke-width: 1.0;"/><polygon fill="none" points="268.83,61.97,248.02,65.95,261.81,49.86,268.83,61.97" style="stroke: #A80036; stroke-width: 1.0;"/><!--link CollisionObject to Boat--><path d="M455.14,90 C460.03,90 464.92,90 469.82,90 " fill="none" id="CollisionObject-Boat" style="stroke: #A80036; stroke-width: 1.0;"/><polygon fill="none" points="455.04,97,435.04,90,455.04,83,455.04,97" style="stroke: #A80036; stroke-width: 1.0;"/><!--link Boat to PlayerBoat--><path d="M537.57,52.7 C546.51,45.86 556.53,39.71 567,36 C597.16,25.3 608.28,27.02 639,36 C659.22,41.91 679.2,54.3 694.66,65.72 " fill="none" id="Boat-PlayerBoat" style="stroke: #A80036; stroke-width: 1.0;"/><polygon fill="none" points="542.05,58.07,522.33,65.81,532.92,47.46,542.05,58.07" style="stroke: #A80036; stroke-width: 1.0;"/><!--link Boat to AIBoat--><path d="M551.2,90 C556.23,90 561.25,90 566.28,90 " fill="none" id="Boat-AIBoat" style="stroke: #A80036; stroke-width: 1.0;"/><polygon fill="none" points="551.18,97,531.18,90,551.18,83,551.18,97" style="stroke: #A80036; stroke-width: 1.0;"/><!--link Scene to SceneMainGame--><path d="M1715.99,53.18 C1725.77,46.14 1736.71,39.79 1748,36 C1850.61,1.61 2129.89,10.23 2235,36 C2259.01,41.89 2283.65,54.43 2302.85,65.94 " fill="none" id="Scene-SceneMainGame" style="stroke: #A80036; stroke-width: 1.0;"/><polygon fill="none" points="1720.27,58.72,1700.29,65.78,1711.51,47.8,1720.27,58.72" style="stroke: #A80036; stroke-width: 1.0;"/><!--link Scene to SceneOptionsMenu--><path d="M1715.99,53.18 C1725.77,46.14 1736.71,39.79 1748,36 C1874,-6.23 1917.48,6.29 2047,36 C2072.58,41.87 2099.1,54.41 2119.86,65.93 " fill="none" id="Scene-SceneOptionsMenu" style="stroke: #A80036; stroke-width: 1.0;"/><polygon fill="none" points="1720.27,58.72,1700.29,65.78,1711.51,47.8,1720.27,58.72" style="stroke: #A80036; stroke-width: 1.0;"/><!--link Scene to SceneStartScreen--><path d="M1715.99,53.18 C1725.77,46.14 1736.71,39.79 1748,36 C1797.73,19.33 1814.97,23.9 1866,36 C1890.79,41.88 1916.37,54.42 1936.35,65.93 " fill="none" id="Scene-SceneStartScreen" style="stroke: #A80036; stroke-width: 1.0;"/><polygon fill="none" points="1720.27,58.72,1700.29,65.78,1711.51,47.8,1720.27,58.72" style="stroke: #A80036; stroke-width: 1.0;"/><!--link Scene to SceneTutorial--><path d="M1732.25,90 C1737.32,90 1742.39,90 1747.47,90 " fill="none" id="Scene-SceneTutorial" style="stroke: #A80036; stroke-width: 1.0;"/><polygon fill="none" points="1732.05,97,1712.05,90,1732.05,83,1732.05,97" style="stroke: #A80036; stroke-width: 1.0;"/><!--link BoatRace to CollisionBounds--><!--link CollisionBounds to PixelBoat--><!--link BoatRace to ResultsScreen--><!--link ResultsScreen to RaceThread--><!--
@startuml
class AIBoat
abstract class Boat
class BoatRace
class CollisionBounds
interface CollisionObject
abstract class GameObject
abstract class MoveableObject
abstract class Obstacle
class ObstacleBranch
class ObstacleDuck
class ObstacleFloatingBranch
class ObstacleLaneWall
class PixelBoat
class PlayerBoat
class ResultsScreen
interface Scene
class SceneMainGame
class SceneOptionsMenu
class SceneStartScreen
class SceneTutorial
class RaceThread



GameObject <|- MoveableObject

MoveableObject <|- Obstacle
CollisionObject <|- Obstacle
Obstacle <|- ObstacleBranch
Obstacle <|- ObstacleDuck
ObstacleBranch <|- ObstacleFloatingBranch
Obstacle <|- ObstacleLaneWall

MoveableObject <|- Boat
CollisionObject <|- Boat
Boat <|- PlayerBoat
Boat <|- AIBoat

Scene <|- SceneMainGame
Scene <|- SceneOptionsMenu
Scene <|- SceneStartScreen
Scene <|- SceneTutorial

@enduml

PlantUML version 1.2018.13(Mon Nov 26 17:11:51 GMT 2018)
(GPL source distribution)
Java Runtime: OpenJDK Runtime Environment
JVM: OpenJDK 64-Bit Server VM
Java Version: 11.0.9.1+1-Ubuntu-0ubuntu1.20.04
Operating System: Linux
OS Version: 4.19.128-microsoft-standard
Default Encoding: UTF-8
Language: en
Country: null
--></g></svg>