<?xml version="1.0" encoding="UTF-8" standalone="no"?><svg xmlns="http://www.w3.org/2000/svg" xmlns:xlink="http://www.w3.org/1999/xlink" contentScriptType="application/ecmascript" contentStyleType="text/css" height="500px" preserveAspectRatio="none" style="width:664px;height:500px;" version="1.1" viewBox="0 0 664 500" width="664px" zoomAndPan="magnify"><defs><filter height="300%" id="f937ci3ibw2ot" width="300%" x="-1" y="-1"><feGaussianBlur result="blurOut" stdDeviation="2.0"/><feColorMatrix in="blurOut" result="blurOut2" type="matrix" values="0 0 0 0 0 0 0 0 0 0 0 0 0 0 0 0 0 0 .4 0"/><feOffset dx="4.0" dy="4.0" in="blurOut2" result="blurOut3"/><feBlend in="SourceGraphic" in2="blurOut3" mode="normal"/></filter></defs><g><!--class GameObject--><rect fill="#FEFECE" filter="url(#f937ci3ibw2ot)" height="112.0234" id="GameObject" style="stroke: #A80036; stroke-width: 1.5;" width="108" x="285.5" y="8"/><ellipse cx="300.5" cy="24" fill="#ADD1B2" rx="11" ry="11" style="stroke: #A80036; stroke-width: 1.0;"/><path d="M303.4688,29.6406 Q302.8906,29.9375 302.25,30.0781 Q301.6094,30.2344 300.9063,30.2344 Q298.4063,30.2344 297.0781,28.5938 Q295.7656,26.9375 295.7656,23.8125 Q295.7656,20.6875 297.0781,19.0313 Q298.4063,17.375 300.9063,17.375 Q301.6094,17.375 302.25,17.5313 Q302.9063,17.6875 303.4688,17.9844 L303.4688,20.7031 Q302.8438,20.125 302.25,19.8594 Q301.6563,19.5781 301.0313,19.5781 Q299.6875,19.5781 299,20.6563 Q298.3125,21.7188 298.3125,23.8125 Q298.3125,25.9063 299,26.9844 Q299.6875,28.0469 301.0313,28.0469 Q301.6563,28.0469 302.25,27.7813 Q302.8438,27.5 303.4688,26.9219 L303.4688,29.6406 Z "/><text fill="#000000" font-family="sans-serif" font-size="12" lengthAdjust="spacingAndGlyphs" textLength="76" x="314.5" y="28.1543">GameObject</text><line style="stroke: #A80036; stroke-width: 1.5;" x1="286.5" x2="392.5" y1="40" y2="40"/><text fill="#000000" font-family="sans-serif" font-size="11" lengthAdjust="spacingAndGlyphs" textLength="6" x="291.5" y="54.2104">x</text><text fill="#000000" font-family="sans-serif" font-size="11" lengthAdjust="spacingAndGlyphs" textLength="6" x="291.5" y="67.0151">y</text><text fill="#000000" font-family="sans-serif" font-size="11" lengthAdjust="spacingAndGlyphs" textLength="88" x="291.5" y="79.8198">terminal_speed</text><text fill="#000000" font-family="sans-serif" font-size="11" lengthAdjust="spacingAndGlyphs" textLength="35" x="291.5" y="92.6245">speed</text><text fill="#000000" font-family="sans-serif" font-size="11" lengthAdjust="spacingAndGlyphs" textLength="44" x="291.5" y="105.4292">rotation</text><line style="stroke: #A80036; stroke-width: 1.5;" x1="286.5" x2="392.5" y1="112.0234" y2="112.0234"/><!--class Boat--><rect fill="#FEFECE" filter="url(#f937ci3ibw2ot)" height="188.8516" id="Boat" style="stroke: #A80036; stroke-width: 1.5;" width="88" x="197.5" y="180"/><ellipse cx="224.65" cy="196" fill="#ADD1B2" rx="11" ry="11" style="stroke: #A80036; stroke-width: 1.0;"/><path d="M227.6188,201.6406 Q227.0406,201.9375 226.4,202.0781 Q225.7594,202.2344 225.0563,202.2344 Q222.5563,202.2344 221.2281,200.5938 Q219.9156,198.9375 219.9156,195.8125 Q219.9156,192.6875 221.2281,191.0313 Q222.5563,189.375 225.0563,189.375 Q225.7594,189.375 226.4,189.5313 Q227.0563,189.6875 227.6188,189.9844 L227.6188,192.7031 Q226.9938,192.125 226.4,191.8594 Q225.8063,191.5781 225.1813,191.5781 Q223.8375,191.5781 223.15,192.6563 Q222.4625,193.7188 222.4625,195.8125 Q222.4625,197.9063 223.15,198.9844 Q223.8375,200.0469 225.1813,200.0469 Q225.8063,200.0469 226.4,199.7813 Q226.9938,199.5 227.6188,198.9219 L227.6188,201.6406 Z "/><text fill="#000000" font-family="sans-serif" font-size="12" lengthAdjust="spacingAndGlyphs" textLength="29" x="241.35" y="200.1543">Boat</text><line style="stroke: #A80036; stroke-width: 1.5;" x1="198.5" x2="284.5" y1="212" y2="212"/><text fill="#000000" font-family="sans-serif" font-size="11" lengthAdjust="spacingAndGlyphs" textLength="35" x="203.5" y="226.2104">health</text><text fill="#000000" font-family="sans-serif" font-size="11" lengthAdjust="spacingAndGlyphs" textLength="52" x="203.5" y="239.0151">durability</text><text fill="#000000" font-family="sans-serif" font-size="11" lengthAdjust="spacingAndGlyphs" textLength="63" x="203.5" y="251.8198">leg_times[]</text><text fill="#000000" font-family="sans-serif" font-size="11" lengthAdjust="spacingAndGlyphs" textLength="64" x="203.5" y="264.6245">_start_time</text><text fill="#000000" font-family="sans-serif" font-size="11" lengthAdjust="spacingAndGlyphs" textLength="76" x="203.5" y="277.4292">stamina_max</text><text fill="#000000" font-family="sans-serif" font-size="11" lengthAdjust="spacingAndGlyphs" textLength="46" x="203.5" y="290.2339">stamina</text><line style="stroke: #A80036; stroke-width: 1.5;" x1="198.5" x2="284.5" y1="296.8281" y2="296.8281"/><text fill="#000000" font-family="sans-serif" font-size="11" lengthAdjust="spacingAndGlyphs" textLength="39" x="203.5" y="311.0386">move()</text><text fill="#000000" font-family="sans-serif" font-size="11" lengthAdjust="spacingAndGlyphs" textLength="55" x="203.5" y="323.8433">turn_left()</text><text fill="#000000" font-family="sans-serif" font-size="11" lengthAdjust="spacingAndGlyphs" textLength="63" x="203.5" y="336.6479">turn_right()</text><text fill="#000000" font-family="sans-serif" font-size="11" lengthAdjust="spacingAndGlyphs" textLength="66" x="203.5" y="349.4526">start_race()</text><text fill="#000000" font-family="sans-serif" font-size="11" lengthAdjust="spacingAndGlyphs" textLength="60" x="203.5" y="362.2573">end_race()</text><!--class PlayerBoat--><rect fill="#FEFECE" filter="url(#f937ci3ibw2ot)" height="60.8047" id="PlayerBoat" style="stroke: #A80036; stroke-width: 1.5;" width="99" x="6" y="429"/><ellipse cx="21" cy="445" fill="#ADD1B2" rx="11" ry="11" style="stroke: #A80036; stroke-width: 1.0;"/><path d="M23.9688,450.6406 Q23.3906,450.9375 22.75,451.0781 Q22.1094,451.2344 21.4063,451.2344 Q18.9063,451.2344 17.5781,449.5938 Q16.2656,447.9375 16.2656,444.8125 Q16.2656,441.6875 17.5781,440.0313 Q18.9063,438.375 21.4063,438.375 Q22.1094,438.375 22.75,438.5313 Q23.4063,438.6875 23.9688,438.9844 L23.9688,441.7031 Q23.3438,441.125 22.75,440.8594 Q22.1563,440.5781 21.5313,440.5781 Q20.1875,440.5781 19.5,441.6563 Q18.8125,442.7188 18.8125,444.8125 Q18.8125,446.9063 19.5,447.9844 Q20.1875,449.0469 21.5313,449.0469 Q22.1563,449.0469 22.75,448.7813 Q23.3438,448.5 23.9688,447.9219 L23.9688,450.6406 Z "/><text fill="#000000" font-family="sans-serif" font-size="12" lengthAdjust="spacingAndGlyphs" textLength="67" x="35" y="449.1543">PlayerBoat</text><line style="stroke: #A80036; stroke-width: 1.5;" x1="7" x2="104" y1="461" y2="461"/><line style="stroke: #A80036; stroke-width: 1.5;" x1="7" x2="104" y1="469" y2="469"/><text fill="#000000" font-family="sans-serif" font-size="11" lengthAdjust="spacingAndGlyphs" textLength="68" x="12" y="483.2104">read_input()</text><!--class AIBoat--><rect fill="#FEFECE" filter="url(#f937ci3ibw2ot)" height="60.8047" id="AIBoat" style="stroke: #A80036; stroke-width: 1.5;" width="203" x="140" y="429"/><ellipse cx="217.25" cy="445" fill="#ADD1B2" rx="11" ry="11" style="stroke: #A80036; stroke-width: 1.0;"/><path d="M220.2188,450.6406 Q219.6406,450.9375 219,451.0781 Q218.3594,451.2344 217.6563,451.2344 Q215.1563,451.2344 213.8281,449.5938 Q212.5156,447.9375 212.5156,444.8125 Q212.5156,441.6875 213.8281,440.0313 Q215.1563,438.375 217.6563,438.375 Q218.3594,438.375 219,438.5313 Q219.6563,438.6875 220.2188,438.9844 L220.2188,441.7031 Q219.5938,441.125 219,440.8594 Q218.4063,440.5781 217.7813,440.5781 Q216.4375,440.5781 215.75,441.6563 Q215.0625,442.7188 215.0625,444.8125 Q215.0625,446.9063 215.75,447.9844 Q216.4375,449.0469 217.7813,449.0469 Q218.4063,449.0469 219,448.7813 Q219.5938,448.5 220.2188,447.9219 L220.2188,450.6406 Z "/><text fill="#000000" font-family="sans-serif" font-size="12" lengthAdjust="spacingAndGlyphs" textLength="40" x="237.75" y="449.1543">AIBoat</text><line style="stroke: #A80036; stroke-width: 1.5;" x1="141" x2="342" y1="461" y2="461"/><line style="stroke: #A80036; stroke-width: 1.5;" x1="141" x2="342" y1="469" y2="469"/><text fill="#000000" font-family="sans-serif" font-size="11" lengthAdjust="spacingAndGlyphs" textLength="191" x="146" y="483.2104">ray_stuff_or_smth_idk_im_dumb()</text><!--class Obstacle--><rect fill="#FEFECE" filter="url(#f937ci3ibw2ot)" height="48" id="Obstacle" style="stroke: #A80036; stroke-width: 1.5;" width="87" x="394" y="250.5"/><ellipse cx="409" cy="266.5" fill="#ADD1B2" rx="11" ry="11" style="stroke: #A80036; stroke-width: 1.0;"/><path d="M411.9688,272.1406 Q411.3906,272.4375 410.75,272.5781 Q410.1094,272.7344 409.4063,272.7344 Q406.9063,272.7344 405.5781,271.0938 Q404.2656,269.4375 404.2656,266.3125 Q404.2656,263.1875 405.5781,261.5313 Q406.9063,259.875 409.4063,259.875 Q410.1094,259.875 410.75,260.0313 Q411.4063,260.1875 411.9688,260.4844 L411.9688,263.2031 Q411.3438,262.625 410.75,262.3594 Q410.1563,262.0781 409.5313,262.0781 Q408.1875,262.0781 407.5,263.1563 Q406.8125,264.2188 406.8125,266.3125 Q406.8125,268.4063 407.5,269.4844 Q408.1875,270.5469 409.5313,270.5469 Q410.1563,270.5469 410.75,270.2813 Q411.3438,270 411.9688,269.4219 L411.9688,272.1406 Z "/><text fill="#000000" font-family="sans-serif" font-size="12" lengthAdjust="spacingAndGlyphs" textLength="55" x="423" y="270.6543">Obstacle</text><line style="stroke: #A80036; stroke-width: 1.5;" x1="395" x2="480" y1="282.5" y2="282.5"/><line style="stroke: #A80036; stroke-width: 1.5;" x1="395" x2="480" y1="290.5" y2="290.5"/><!--class ObstacleDuck--><rect fill="#FEFECE" filter="url(#f937ci3ibw2ot)" height="48" id="ObstacleDuck" style="stroke: #A80036; stroke-width: 1.5;" width="118" x="378.5" y="435.5"/><ellipse cx="393.5" cy="451.5" fill="#ADD1B2" rx="11" ry="11" style="stroke: #A80036; stroke-width: 1.0;"/><path d="M396.4688,457.1406 Q395.8906,457.4375 395.25,457.5781 Q394.6094,457.7344 393.9063,457.7344 Q391.4063,457.7344 390.0781,456.0938 Q388.7656,454.4375 388.7656,451.3125 Q388.7656,448.1875 390.0781,446.5313 Q391.4063,444.875 393.9063,444.875 Q394.6094,444.875 395.25,445.0313 Q395.9063,445.1875 396.4688,445.4844 L396.4688,448.2031 Q395.8438,447.625 395.25,447.3594 Q394.6563,447.0781 394.0313,447.0781 Q392.6875,447.0781 392,448.1563 Q391.3125,449.2188 391.3125,451.3125 Q391.3125,453.4063 392,454.4844 Q392.6875,455.5469 394.0313,455.5469 Q394.6563,455.5469 395.25,455.2813 Q395.8438,455 396.4688,454.4219 L396.4688,457.1406 Z "/><text fill="#000000" font-family="sans-serif" font-size="12" lengthAdjust="spacingAndGlyphs" textLength="86" x="407.5" y="455.6543">ObstacleDuck</text><line style="stroke: #A80036; stroke-width: 1.5;" x1="379.5" x2="495.5" y1="467.5" y2="467.5"/><line style="stroke: #A80036; stroke-width: 1.5;" x1="379.5" x2="495.5" y1="475.5" y2="475.5"/><!--class ObstacleWood--><rect fill="#FEFECE" filter="url(#f937ci3ibw2ot)" height="48" id="ObstacleWood" style="stroke: #A80036; stroke-width: 1.5;" width="122" x="531.5" y="435.5"/><ellipse cx="546.5" cy="451.5" fill="#ADD1B2" rx="11" ry="11" style="stroke: #A80036; stroke-width: 1.0;"/><path d="M549.4688,457.1406 Q548.8906,457.4375 548.25,457.5781 Q547.6094,457.7344 546.9063,457.7344 Q544.4063,457.7344 543.0781,456.0938 Q541.7656,454.4375 541.7656,451.3125 Q541.7656,448.1875 543.0781,446.5313 Q544.4063,444.875 546.9063,444.875 Q547.6094,444.875 548.25,445.0313 Q548.9063,445.1875 549.4688,445.4844 L549.4688,448.2031 Q548.8438,447.625 548.25,447.3594 Q547.6563,447.0781 547.0313,447.0781 Q545.6875,447.0781 545,448.1563 Q544.3125,449.2188 544.3125,451.3125 Q544.3125,453.4063 545,454.4844 Q545.6875,455.5469 547.0313,455.5469 Q547.6563,455.5469 548.25,455.2813 Q548.8438,455 549.4688,454.4219 L549.4688,457.1406 Z "/><text fill="#000000" font-family="sans-serif" font-size="12" lengthAdjust="spacingAndGlyphs" textLength="90" x="560.5" y="455.6543">ObstacleWood</text><line style="stroke: #A80036; stroke-width: 1.5;" x1="532.5" x2="652.5" y1="467.5" y2="467.5"/><line style="stroke: #A80036; stroke-width: 1.5;" x1="532.5" x2="652.5" y1="475.5" y2="475.5"/><!--link GameObject to Boat--><path d="M305.01,138.38 C298.71,151.77 292.07,165.91 285.54,179.79 " fill="none" id="GameObject-Boat" style="stroke: #A80036; stroke-width: 1.0;"/><polygon fill="none" points="298.78,135.18,313.62,120.05,311.45,141.13,298.78,135.18" style="stroke: #A80036; stroke-width: 1.0;"/><!--link Boat to PlayerBoat--><path d="M183.09,332.97 C150.74,364.8 111.88,403.02 85.62,428.87 " fill="none" id="Boat-PlayerBoat" style="stroke: #A80036; stroke-width: 1.0;"/><polygon fill="none" points="178.25,327.91,197.42,318.87,188.07,337.89,178.25,327.91" style="stroke: #A80036; stroke-width: 1.0;"/><!--link Boat to AIBoat--><path d="M241.5,389.23 C241.5,403.71 241.5,417.4 241.5,428.72 " fill="none" id="Boat-AIBoat" style="stroke: #A80036; stroke-width: 1.0;"/><polygon fill="none" points="234.5,389.14,241.5,369.14,248.5,389.14,234.5,389.14" style="stroke: #A80036; stroke-width: 1.0;"/><!--link GameObject to Obstacle--><path d="M373.89,138.16 C392.39,177.52 413.95,223.39 426.62,250.35 " fill="none" id="GameObject-Obstacle" style="stroke: #A80036; stroke-width: 1.0;"/><polygon fill="none" points="367.55,141.13,365.38,120.05,380.22,135.18,367.55,141.13" style="stroke: #A80036; stroke-width: 1.0;"/><!--link Obstacle to ObstacleDuck--><path d="M437.5,318.71 C437.5,355.17 437.5,405.97 437.5,435.22 " fill="none" id="Obstacle-ObstacleDuck" style="stroke: #A80036; stroke-width: 1.0;"/><polygon fill="none" points="430.5,318.68,437.5,298.68,444.5,318.68,430.5,318.68" style="stroke: #A80036; stroke-width: 1.0;"/><!--link Obstacle to ObstacleWood--><path d="M470.25,314.17 C501.31,350.84 546.96,404.73 572.78,435.22 " fill="none" id="Obstacle-ObstacleWood" style="stroke: #A80036; stroke-width: 1.0;"/><polygon fill="none" points="464.72,318.46,457.13,298.68,475.4,309.41,464.72,318.46" style="stroke: #A80036; stroke-width: 1.0;"/><!--
@startuml
GameObject <|- - Boat
Boat <|- - PlayerBoat
Boat <|- - AIBoat
GameObject <|- - Obstacle
Obstacle <|- - ObstacleDuck 
Obstacle <|- - ObstacleWood

GameObject : x
GameObject : y
GameObject : terminal_speed
GameObject : speed
GameObject : rotation

Boat : health
Boat : durability
Boat : leg_times[]
Boat : _start_time
Boat : stamina_max
Boat : stamina

Boat : move()
Boat : turn_left()
Boat : turn_right()
Boat : start_race()
Boat : end_race()

AIBoat : ray_stuff_or_smth_idk_im_dumb()

PlayerBoat : read_input()
@enduml

PlantUML version 1.2018.13(Mon Nov 26 17:11:51 GMT 2018)
(GPL source distribution)
Java Runtime: OpenJDK Runtime Environment
JVM: OpenJDK 64-Bit Server VM
Java Version: 11.0.8+10-post-Ubuntu-0ubuntu120.04
Operating System: Linux
OS Version: 4.19.128-microsoft-standard
Default Encoding: UTF-8
Language: en
Country: null
--></g></svg>