<?xml version="1.0" encoding="UTF-8" standalone="no"?><svg xmlns="http://www.w3.org/2000/svg" xmlns:xlink="http://www.w3.org/1999/xlink" contentScriptType="application/ecmascript" contentStyleType="text/css" height="125px" preserveAspectRatio="none" style="width:2269px;height:125px;" version="1.1" viewBox="0 0 2269 125" width="2269px" zoomAndPan="magnify"><defs><filter height="300%" id="f1360hoa78kof" width="300%" x="-1" y="-1"><feGaussianBlur result="blurOut" stdDeviation="2.0"/><feColorMatrix in="blurOut" result="blurOut2" type="matrix" values="0 0 0 0 0 0 0 0 0 0 0 0 0 0 0 0 0 0 .4 0"/><feOffset dx="4.0" dy="4.0" in="blurOut2" result="blurOut3"/><feBlend in="SourceGraphic" in2="blurOut3" mode="normal"/></filter></defs><g><!--class GameObject--><rect fill="#FEFECE" filter="url(#f1360hoa78kof)" height="48" id="GameObject" style="stroke: #A80036; stroke-width: 1.5;" width="108" x="6" y="66"/><ellipse cx="21" cy="82" fill="#ADD1B2" rx="11" ry="11" style="stroke: #A80036; stroke-width: 1.0;"/><path d="M23.9688,87.6406 Q23.3906,87.9375 22.75,88.0781 Q22.1094,88.2344 21.4063,88.2344 Q18.9063,88.2344 17.5781,86.5938 Q16.2656,84.9375 16.2656,81.8125 Q16.2656,78.6875 17.5781,77.0313 Q18.9063,75.375 21.4063,75.375 Q22.1094,75.375 22.75,75.5313 Q23.4063,75.6875 23.9688,75.9844 L23.9688,78.7031 Q23.3438,78.125 22.75,77.8594 Q22.1563,77.5781 21.5313,77.5781 Q20.1875,77.5781 19.5,78.6563 Q18.8125,79.7188 18.8125,81.8125 Q18.8125,83.9063 19.5,84.9844 Q20.1875,86.0469 21.5313,86.0469 Q22.1563,86.0469 22.75,85.7813 Q23.3438,85.5 23.9688,84.9219 L23.9688,87.6406 Z "/><text fill="#000000" font-family="sans-serif" font-size="12" lengthAdjust="spacingAndGlyphs" textLength="76" x="35" y="86.1543">GameObject</text><line style="stroke: #A80036; stroke-width: 1.5;" x1="7" x2="113" y1="98" y2="98"/><line style="stroke: #A80036; stroke-width: 1.5;" x1="7" x2="113" y1="106" y2="106"/><!--class MoveableObject--><rect fill="#FEFECE" filter="url(#f1360hoa78kof)" height="48" id="MoveableObject" style="stroke: #A80036; stroke-width: 1.5;" width="131" x="149.5" y="66"/><ellipse cx="164.5" cy="82" fill="#ADD1B2" rx="11" ry="11" style="stroke: #A80036; stroke-width: 1.0;"/><path d="M167.4688,87.6406 Q166.8906,87.9375 166.25,88.0781 Q165.6094,88.2344 164.9063,88.2344 Q162.4063,88.2344 161.0781,86.5938 Q159.7656,84.9375 159.7656,81.8125 Q159.7656,78.6875 161.0781,77.0313 Q162.4063,75.375 164.9063,75.375 Q165.6094,75.375 166.25,75.5313 Q166.9063,75.6875 167.4688,75.9844 L167.4688,78.7031 Q166.8438,78.125 166.25,77.8594 Q165.6563,77.5781 165.0313,77.5781 Q163.6875,77.5781 163,78.6563 Q162.3125,79.7188 162.3125,81.8125 Q162.3125,83.9063 163,84.9844 Q163.6875,86.0469 165.0313,86.0469 Q165.6563,86.0469 166.25,85.7813 Q166.8438,85.5 167.4688,84.9219 L167.4688,87.6406 Z "/><text fill="#000000" font-family="sans-serif" font-size="12" lengthAdjust="spacingAndGlyphs" textLength="99" x="178.5" y="86.1543">MoveableObject</text><line style="stroke: #A80036; stroke-width: 1.5;" x1="150.5" x2="279.5" y1="98" y2="98"/><line style="stroke: #A80036; stroke-width: 1.5;" x1="150.5" x2="279.5" y1="106" y2="106"/><!--class Obstacle--><rect fill="#FEFECE" filter="url(#f1360hoa78kof)" height="48" id="Obstacle" style="stroke: #A80036; stroke-width: 1.5;" width="87" x="653.5" y="66"/><ellipse cx="668.5" cy="82" fill="#ADD1B2" rx="11" ry="11" style="stroke: #A80036; stroke-width: 1.0;"/><path d="M671.4688,87.6406 Q670.8906,87.9375 670.25,88.0781 Q669.6094,88.2344 668.9063,88.2344 Q666.4063,88.2344 665.0781,86.5938 Q663.7656,84.9375 663.7656,81.8125 Q663.7656,78.6875 665.0781,77.0313 Q666.4063,75.375 668.9063,75.375 Q669.6094,75.375 670.25,75.5313 Q670.9063,75.6875 671.4688,75.9844 L671.4688,78.7031 Q670.8438,78.125 670.25,77.8594 Q669.6563,77.5781 669.0313,77.5781 Q667.6875,77.5781 667,78.6563 Q666.3125,79.7188 666.3125,81.8125 Q666.3125,83.9063 667,84.9844 Q667.6875,86.0469 669.0313,86.0469 Q669.6563,86.0469 670.25,85.7813 Q670.8438,85.5 671.4688,84.9219 L671.4688,87.6406 Z "/><text fill="#000000" font-family="sans-serif" font-size="12" lengthAdjust="spacingAndGlyphs" textLength="55" x="682.5" y="86.1543">Obstacle</text><line style="stroke: #A80036; stroke-width: 1.5;" x1="654.5" x2="739.5" y1="98" y2="98"/><line style="stroke: #A80036; stroke-width: 1.5;" x1="654.5" x2="739.5" y1="106" y2="106"/><!--class ObstacleBranch--><rect fill="#FEFECE" filter="url(#f1360hoa78kof)" height="48" id="ObstacleBranch" style="stroke: #A80036; stroke-width: 1.5;" width="131" x="1106.5" y="66"/><ellipse cx="1121.5" cy="82" fill="#ADD1B2" rx="11" ry="11" style="stroke: #A80036; stroke-width: 1.0;"/><path d="M1124.4688,87.6406 Q1123.8906,87.9375 1123.25,88.0781 Q1122.6094,88.2344 1121.9063,88.2344 Q1119.4063,88.2344 1118.0781,86.5938 Q1116.7656,84.9375 1116.7656,81.8125 Q1116.7656,78.6875 1118.0781,77.0313 Q1119.4063,75.375 1121.9063,75.375 Q1122.6094,75.375 1123.25,75.5313 Q1123.9063,75.6875 1124.4688,75.9844 L1124.4688,78.7031 Q1123.8438,78.125 1123.25,77.8594 Q1122.6563,77.5781 1122.0313,77.5781 Q1120.6875,77.5781 1120,78.6563 Q1119.3125,79.7188 1119.3125,81.8125 Q1119.3125,83.9063 1120,84.9844 Q1120.6875,86.0469 1122.0313,86.0469 Q1122.6563,86.0469 1123.25,85.7813 Q1123.8438,85.5 1124.4688,84.9219 L1124.4688,87.6406 Z "/><text fill="#000000" font-family="sans-serif" font-size="12" lengthAdjust="spacingAndGlyphs" textLength="99" x="1135.5" y="86.1543">ObstacleBranch</text><line style="stroke: #A80036; stroke-width: 1.5;" x1="1107.5" x2="1236.5" y1="98" y2="98"/><line style="stroke: #A80036; stroke-width: 1.5;" x1="1107.5" x2="1236.5" y1="106" y2="106"/><!--class ObstacleDuck--><rect fill="#FEFECE" filter="url(#f1360hoa78kof)" height="48" id="ObstacleDuck" style="stroke: #A80036; stroke-width: 1.5;" width="118" x="953" y="66"/><ellipse cx="968" cy="82" fill="#ADD1B2" rx="11" ry="11" style="stroke: #A80036; stroke-width: 1.0;"/><path d="M970.9688,87.6406 Q970.3906,87.9375 969.75,88.0781 Q969.1094,88.2344 968.4063,88.2344 Q965.9063,88.2344 964.5781,86.5938 Q963.2656,84.9375 963.2656,81.8125 Q963.2656,78.6875 964.5781,77.0313 Q965.9063,75.375 968.4063,75.375 Q969.1094,75.375 969.75,75.5313 Q970.4063,75.6875 970.9688,75.9844 L970.9688,78.7031 Q970.3438,78.125 969.75,77.8594 Q969.1563,77.5781 968.5313,77.5781 Q967.1875,77.5781 966.5,78.6563 Q965.8125,79.7188 965.8125,81.8125 Q965.8125,83.9063 966.5,84.9844 Q967.1875,86.0469 968.5313,86.0469 Q969.1563,86.0469 969.75,85.7813 Q970.3438,85.5 970.9688,84.9219 L970.9688,87.6406 Z "/><text fill="#000000" font-family="sans-serif" font-size="12" lengthAdjust="spacingAndGlyphs" textLength="86" x="982" y="86.1543">ObstacleDuck</text><line style="stroke: #A80036; stroke-width: 1.5;" x1="954" x2="1070" y1="98" y2="98"/><line style="stroke: #A80036; stroke-width: 1.5;" x1="954" x2="1070" y1="106" y2="106"/><!--class ObstacleFLoatingBranch--><rect fill="#FEFECE" filter="url(#f1360hoa78kof)" height="48" id="ObstacleFLoatingBranch" style="stroke: #A80036; stroke-width: 1.5;" width="184" x="1273" y="66"/><ellipse cx="1288" cy="82" fill="#ADD1B2" rx="11" ry="11" style="stroke: #A80036; stroke-width: 1.0;"/><path d="M1290.9688,87.6406 Q1290.3906,87.9375 1289.75,88.0781 Q1289.1094,88.2344 1288.4063,88.2344 Q1285.9063,88.2344 1284.5781,86.5938 Q1283.2656,84.9375 1283.2656,81.8125 Q1283.2656,78.6875 1284.5781,77.0313 Q1285.9063,75.375 1288.4063,75.375 Q1289.1094,75.375 1289.75,75.5313 Q1290.4063,75.6875 1290.9688,75.9844 L1290.9688,78.7031 Q1290.3438,78.125 1289.75,77.8594 Q1289.1563,77.5781 1288.5313,77.5781 Q1287.1875,77.5781 1286.5,78.6563 Q1285.8125,79.7188 1285.8125,81.8125 Q1285.8125,83.9063 1286.5,84.9844 Q1287.1875,86.0469 1288.5313,86.0469 Q1289.1563,86.0469 1289.75,85.7813 Q1290.3438,85.5 1290.9688,84.9219 L1290.9688,87.6406 Z "/><text fill="#000000" font-family="sans-serif" font-size="12" lengthAdjust="spacingAndGlyphs" textLength="152" x="1302" y="86.1543">ObstacleFLoatingBranch</text><line style="stroke: #A80036; stroke-width: 1.5;" x1="1274" x2="1456" y1="98" y2="98"/><line style="stroke: #A80036; stroke-width: 1.5;" x1="1274" x2="1456" y1="106" y2="106"/><!--class ObstacleLaneWall--><rect fill="#FEFECE" filter="url(#f1360hoa78kof)" height="48" id="ObstacleLaneWall" style="stroke: #A80036; stroke-width: 1.5;" width="142" x="776" y="66"/><ellipse cx="791" cy="82" fill="#ADD1B2" rx="11" ry="11" style="stroke: #A80036; stroke-width: 1.0;"/><path d="M793.9688,87.6406 Q793.3906,87.9375 792.75,88.0781 Q792.1094,88.2344 791.4063,88.2344 Q788.9063,88.2344 787.5781,86.5938 Q786.2656,84.9375 786.2656,81.8125 Q786.2656,78.6875 787.5781,77.0313 Q788.9063,75.375 791.4063,75.375 Q792.1094,75.375 792.75,75.5313 Q793.4063,75.6875 793.9688,75.9844 L793.9688,78.7031 Q793.3438,78.125 792.75,77.8594 Q792.1563,77.5781 791.5313,77.5781 Q790.1875,77.5781 789.5,78.6563 Q788.8125,79.7188 788.8125,81.8125 Q788.8125,83.9063 789.5,84.9844 Q790.1875,86.0469 791.5313,86.0469 Q792.1563,86.0469 792.75,85.7813 Q793.3438,85.5 793.9688,84.9219 L793.9688,87.6406 Z "/><text fill="#000000" font-family="sans-serif" font-size="12" lengthAdjust="spacingAndGlyphs" textLength="110" x="805" y="86.1543">ObstacleLaneWall</text><line style="stroke: #A80036; stroke-width: 1.5;" x1="777" x2="917" y1="98" y2="98"/><line style="stroke: #A80036; stroke-width: 1.5;" x1="777" x2="917" y1="106" y2="106"/><!--class Boat--><rect fill="#FEFECE" filter="url(#f1360hoa78kof)" height="48" id="Boat" style="stroke: #A80036; stroke-width: 1.5;" width="61" x="315.5" y="66"/><ellipse cx="330.5" cy="82" fill="#ADD1B2" rx="11" ry="11" style="stroke: #A80036; stroke-width: 1.0;"/><path d="M333.4688,87.6406 Q332.8906,87.9375 332.25,88.0781 Q331.6094,88.2344 330.9063,88.2344 Q328.4063,88.2344 327.0781,86.5938 Q325.7656,84.9375 325.7656,81.8125 Q325.7656,78.6875 327.0781,77.0313 Q328.4063,75.375 330.9063,75.375 Q331.6094,75.375 332.25,75.5313 Q332.9063,75.6875 333.4688,75.9844 L333.4688,78.7031 Q332.8438,78.125 332.25,77.8594 Q331.6563,77.5781 331.0313,77.5781 Q329.6875,77.5781 329,78.6563 Q328.3125,79.7188 328.3125,81.8125 Q328.3125,83.9063 329,84.9844 Q329.6875,86.0469 331.0313,86.0469 Q331.6563,86.0469 332.25,85.7813 Q332.8438,85.5 333.4688,84.9219 L333.4688,87.6406 Z "/><text fill="#000000" font-family="sans-serif" font-size="12" lengthAdjust="spacingAndGlyphs" textLength="29" x="344.5" y="86.1543">Boat</text><line style="stroke: #A80036; stroke-width: 1.5;" x1="316.5" x2="375.5" y1="98" y2="98"/><line style="stroke: #A80036; stroke-width: 1.5;" x1="316.5" x2="375.5" y1="106" y2="106"/><!--class PlayerBoat--><rect fill="#FEFECE" filter="url(#f1360hoa78kof)" height="48" id="PlayerBoat" style="stroke: #A80036; stroke-width: 1.5;" width="99" x="519.5" y="66"/><ellipse cx="534.5" cy="82" fill="#ADD1B2" rx="11" ry="11" style="stroke: #A80036; stroke-width: 1.0;"/><path d="M537.4688,87.6406 Q536.8906,87.9375 536.25,88.0781 Q535.6094,88.2344 534.9063,88.2344 Q532.4063,88.2344 531.0781,86.5938 Q529.7656,84.9375 529.7656,81.8125 Q529.7656,78.6875 531.0781,77.0313 Q532.4063,75.375 534.9063,75.375 Q535.6094,75.375 536.25,75.5313 Q536.9063,75.6875 537.4688,75.9844 L537.4688,78.7031 Q536.8438,78.125 536.25,77.8594 Q535.6563,77.5781 535.0313,77.5781 Q533.6875,77.5781 533,78.6563 Q532.3125,79.7188 532.3125,81.8125 Q532.3125,83.9063 533,84.9844 Q533.6875,86.0469 535.0313,86.0469 Q535.6563,86.0469 536.25,85.7813 Q536.8438,85.5 537.4688,84.9219 L537.4688,87.6406 Z "/><text fill="#000000" font-family="sans-serif" font-size="12" lengthAdjust="spacingAndGlyphs" textLength="67" x="548.5" y="86.1543">PlayerBoat</text><line style="stroke: #A80036; stroke-width: 1.5;" x1="520.5" x2="617.5" y1="98" y2="98"/><line style="stroke: #A80036; stroke-width: 1.5;" x1="520.5" x2="617.5" y1="106" y2="106"/><!--class AIBoat--><rect fill="#FEFECE" filter="url(#f1360hoa78kof)" height="48" id="AIBoat" style="stroke: #A80036; stroke-width: 1.5;" width="72" x="412" y="66"/><ellipse cx="427" cy="82" fill="#ADD1B2" rx="11" ry="11" style="stroke: #A80036; stroke-width: 1.0;"/><path d="M429.9688,87.6406 Q429.3906,87.9375 428.75,88.0781 Q428.1094,88.2344 427.4063,88.2344 Q424.9063,88.2344 423.5781,86.5938 Q422.2656,84.9375 422.2656,81.8125 Q422.2656,78.6875 423.5781,77.0313 Q424.9063,75.375 427.4063,75.375 Q428.1094,75.375 428.75,75.5313 Q429.4063,75.6875 429.9688,75.9844 L429.9688,78.7031 Q429.3438,78.125 428.75,77.8594 Q428.1563,77.5781 427.5313,77.5781 Q426.1875,77.5781 425.5,78.6563 Q424.8125,79.7188 424.8125,81.8125 Q424.8125,83.9063 425.5,84.9844 Q426.1875,86.0469 427.5313,86.0469 Q428.1563,86.0469 428.75,85.7813 Q429.3438,85.5 429.9688,84.9219 L429.9688,87.6406 Z "/><text fill="#000000" font-family="sans-serif" font-size="12" lengthAdjust="spacingAndGlyphs" textLength="40" x="441" y="86.1543">AIBoat</text><line style="stroke: #A80036; stroke-width: 1.5;" x1="413" x2="483" y1="98" y2="98"/><line style="stroke: #A80036; stroke-width: 1.5;" x1="413" x2="483" y1="106" y2="106"/><!--class Scene--><rect fill="#FEFECE" filter="url(#f1360hoa78kof)" height="48" id="Scene" style="stroke: #A80036; stroke-width: 1.5;" width="71" x="1492.5" y="66"/><ellipse cx="1507.5" cy="82" fill="#ADD1B2" rx="11" ry="11" style="stroke: #A80036; stroke-width: 1.0;"/><path d="M1510.4688,87.6406 Q1509.8906,87.9375 1509.25,88.0781 Q1508.6094,88.2344 1507.9063,88.2344 Q1505.4063,88.2344 1504.0781,86.5938 Q1502.7656,84.9375 1502.7656,81.8125 Q1502.7656,78.6875 1504.0781,77.0313 Q1505.4063,75.375 1507.9063,75.375 Q1508.6094,75.375 1509.25,75.5313 Q1509.9063,75.6875 1510.4688,75.9844 L1510.4688,78.7031 Q1509.8438,78.125 1509.25,77.8594 Q1508.6563,77.5781 1508.0313,77.5781 Q1506.6875,77.5781 1506,78.6563 Q1505.3125,79.7188 1505.3125,81.8125 Q1505.3125,83.9063 1506,84.9844 Q1506.6875,86.0469 1508.0313,86.0469 Q1508.6563,86.0469 1509.25,85.7813 Q1509.8438,85.5 1510.4688,84.9219 L1510.4688,87.6406 Z "/><text fill="#000000" font-family="sans-serif" font-size="12" lengthAdjust="spacingAndGlyphs" textLength="39" x="1521.5" y="86.1543">Scene</text><line style="stroke: #A80036; stroke-width: 1.5;" x1="1493.5" x2="1562.5" y1="98" y2="98"/><line style="stroke: #A80036; stroke-width: 1.5;" x1="1493.5" x2="1562.5" y1="106" y2="106"/><!--class SceneMainGame--><rect fill="#FEFECE" filter="url(#f1360hoa78kof)" height="48" id="SceneMainGame" style="stroke: #A80036; stroke-width: 1.5;" width="136" x="2122" y="66"/><ellipse cx="2137" cy="82" fill="#ADD1B2" rx="11" ry="11" style="stroke: #A80036; stroke-width: 1.0;"/><path d="M2139.9688,87.6406 Q2139.3906,87.9375 2138.75,88.0781 Q2138.1094,88.2344 2137.4063,88.2344 Q2134.9063,88.2344 2133.5781,86.5938 Q2132.2656,84.9375 2132.2656,81.8125 Q2132.2656,78.6875 2133.5781,77.0313 Q2134.9063,75.375 2137.4063,75.375 Q2138.1094,75.375 2138.75,75.5313 Q2139.4063,75.6875 2139.9688,75.9844 L2139.9688,78.7031 Q2139.3438,78.125 2138.75,77.8594 Q2138.1563,77.5781 2137.5313,77.5781 Q2136.1875,77.5781 2135.5,78.6563 Q2134.8125,79.7188 2134.8125,81.8125 Q2134.8125,83.9063 2135.5,84.9844 Q2136.1875,86.0469 2137.5313,86.0469 Q2138.1563,86.0469 2138.75,85.7813 Q2139.3438,85.5 2139.9688,84.9219 L2139.9688,87.6406 Z "/><text fill="#000000" font-family="sans-serif" font-size="12" lengthAdjust="spacingAndGlyphs" textLength="104" x="2151" y="86.1543">SceneMainGame</text><line style="stroke: #A80036; stroke-width: 1.5;" x1="2123" x2="2257" y1="98" y2="98"/><line style="stroke: #A80036; stroke-width: 1.5;" x1="2123" x2="2257" y1="106" y2="106"/><!--class SceneOptionsMenu--><rect fill="#FEFECE" filter="url(#f1360hoa78kof)" height="48" id="SceneOptionsMenu" style="stroke: #A80036; stroke-width: 1.5;" width="153" x="1933.5" y="66"/><ellipse cx="1948.5" cy="82" fill="#ADD1B2" rx="11" ry="11" style="stroke: #A80036; stroke-width: 1.0;"/><path d="M1951.4688,87.6406 Q1950.8906,87.9375 1950.25,88.0781 Q1949.6094,88.2344 1948.9063,88.2344 Q1946.4063,88.2344 1945.0781,86.5938 Q1943.7656,84.9375 1943.7656,81.8125 Q1943.7656,78.6875 1945.0781,77.0313 Q1946.4063,75.375 1948.9063,75.375 Q1949.6094,75.375 1950.25,75.5313 Q1950.9063,75.6875 1951.4688,75.9844 L1951.4688,78.7031 Q1950.8438,78.125 1950.25,77.8594 Q1949.6563,77.5781 1949.0313,77.5781 Q1947.6875,77.5781 1947,78.6563 Q1946.3125,79.7188 1946.3125,81.8125 Q1946.3125,83.9063 1947,84.9844 Q1947.6875,86.0469 1949.0313,86.0469 Q1949.6563,86.0469 1950.25,85.7813 Q1950.8438,85.5 1951.4688,84.9219 L1951.4688,87.6406 Z "/><text fill="#000000" font-family="sans-serif" font-size="12" lengthAdjust="spacingAndGlyphs" textLength="121" x="1962.5" y="86.1543">SceneOptionsMenu</text><line style="stroke: #A80036; stroke-width: 1.5;" x1="1934.5" x2="2085.5" y1="98" y2="98"/><line style="stroke: #A80036; stroke-width: 1.5;" x1="1934.5" x2="2085.5" y1="106" y2="106"/><!--class SceneStartScreen--><rect fill="#FEFECE" filter="url(#f1360hoa78kof)" height="48" id="SceneStartScreen" style="stroke: #A80036; stroke-width: 1.5;" width="146" x="1752" y="66"/><ellipse cx="1767" cy="82" fill="#ADD1B2" rx="11" ry="11" style="stroke: #A80036; stroke-width: 1.0;"/><path d="M1769.9688,87.6406 Q1769.3906,87.9375 1768.75,88.0781 Q1768.1094,88.2344 1767.4063,88.2344 Q1764.9063,88.2344 1763.5781,86.5938 Q1762.2656,84.9375 1762.2656,81.8125 Q1762.2656,78.6875 1763.5781,77.0313 Q1764.9063,75.375 1767.4063,75.375 Q1768.1094,75.375 1768.75,75.5313 Q1769.4063,75.6875 1769.9688,75.9844 L1769.9688,78.7031 Q1769.3438,78.125 1768.75,77.8594 Q1768.1563,77.5781 1767.5313,77.5781 Q1766.1875,77.5781 1765.5,78.6563 Q1764.8125,79.7188 1764.8125,81.8125 Q1764.8125,83.9063 1765.5,84.9844 Q1766.1875,86.0469 1767.5313,86.0469 Q1768.1563,86.0469 1768.75,85.7813 Q1769.3438,85.5 1769.9688,84.9219 L1769.9688,87.6406 Z "/><text fill="#000000" font-family="sans-serif" font-size="12" lengthAdjust="spacingAndGlyphs" textLength="114" x="1781" y="86.1543">SceneStartScreen</text><line style="stroke: #A80036; stroke-width: 1.5;" x1="1753" x2="1897" y1="98" y2="98"/><line style="stroke: #A80036; stroke-width: 1.5;" x1="1753" x2="1897" y1="106" y2="106"/><!--class SceneTutorial--><rect fill="#FEFECE" filter="url(#f1360hoa78kof)" height="48" id="SceneTutorial" style="stroke: #A80036; stroke-width: 1.5;" width="118" x="1599" y="66"/><ellipse cx="1614" cy="82" fill="#ADD1B2" rx="11" ry="11" style="stroke: #A80036; stroke-width: 1.0;"/><path d="M1616.9688,87.6406 Q1616.3906,87.9375 1615.75,88.0781 Q1615.1094,88.2344 1614.4063,88.2344 Q1611.9063,88.2344 1610.5781,86.5938 Q1609.2656,84.9375 1609.2656,81.8125 Q1609.2656,78.6875 1610.5781,77.0313 Q1611.9063,75.375 1614.4063,75.375 Q1615.1094,75.375 1615.75,75.5313 Q1616.4063,75.6875 1616.9688,75.9844 L1616.9688,78.7031 Q1616.3438,78.125 1615.75,77.8594 Q1615.1563,77.5781 1614.5313,77.5781 Q1613.1875,77.5781 1612.5,78.6563 Q1611.8125,79.7188 1611.8125,81.8125 Q1611.8125,83.9063 1612.5,84.9844 Q1613.1875,86.0469 1614.5313,86.0469 Q1615.1563,86.0469 1615.75,85.7813 Q1616.3438,85.5 1616.9688,84.9219 L1616.9688,87.6406 Z "/><text fill="#000000" font-family="sans-serif" font-size="12" lengthAdjust="spacingAndGlyphs" textLength="86" x="1628" y="86.1543">SceneTutorial</text><line style="stroke: #A80036; stroke-width: 1.5;" x1="1600" x2="1716" y1="98" y2="98"/><line style="stroke: #A80036; stroke-width: 1.5;" x1="1600" x2="1716" y1="106" y2="106"/><!--link GameObject to MoveableObject--><path d="M134.45,90 C139.38,90 144.31,90 149.24,90 " fill="none" id="GameObject-MoveableObject" style="stroke: #A80036; stroke-width: 1.0;"/><polygon fill="none" points="134.19,97,114.19,90,134.19,83,134.19,97" style="stroke: #A80036; stroke-width: 1.0;"/><!--link MoveableObject to Obstacle--><path d="M266.86,55.89 C281.93,47.74 298.84,40.19 315.5,36 C446.1,3.14 489.9,-3.96 618.5,36 C637.61,41.94 656.2,54.33 670.48,65.74 " fill="none" id="MoveableObject-Obstacle" style="stroke: #A80036; stroke-width: 1.0;"/><polygon fill="none" points="270.33,61.97,249.52,65.95,263.31,49.86,270.33,61.97" style="stroke: #A80036; stroke-width: 1.0;"/><!--link Obstacle to ObstacleBranch--><path d="M740.22,53.92 C751.38,46.57 763.84,39.89 776.5,36 C901.82,-2.54 944.35,4 1071.5,36 C1094.93,41.9 1118.86,54.44 1137.48,65.95 " fill="none" id="Obstacle-ObstacleBranch" style="stroke: #A80036; stroke-width: 1.0;"/><polygon fill="none" points="744.21,59.67,723.91,65.74,736,48.34,744.21,59.67" style="stroke: #A80036; stroke-width: 1.0;"/><!--link Obstacle to ObstacleDuck--><path d="M740.22,53.92 C751.38,46.57 763.84,39.89 776.5,36 C836.82,17.45 857.54,19.66 918.5,36 C940.59,41.92 962.86,54.46 980.12,65.97 " fill="none" id="Obstacle-ObstacleDuck" style="stroke: #A80036; stroke-width: 1.0;"/><polygon fill="none" points="744.21,59.67,723.91,65.74,736,48.34,744.21,59.67" style="stroke: #A80036; stroke-width: 1.0;"/><!--link ObstacleBranch to ObstacleFLoatingBranch--><path d="M1257.74,90 C1262.8,90 1267.87,90 1272.93,90 " fill="none" id="ObstacleBranch-ObstacleFLoatingBranch" style="stroke: #A80036; stroke-width: 1.0;"/><polygon fill="none" points="1257.59,97,1237.59,90,1257.59,83,1257.59,97" style="stroke: #A80036; stroke-width: 1.0;"/><!--link Obstacle to ObstacleLaneWall--><path d="M760.79,90 C765.85,90 770.91,90 775.96,90 " fill="none" id="Obstacle-ObstacleLaneWall" style="stroke: #A80036; stroke-width: 1.0;"/><polygon fill="none" points="760.65,97,740.65,90,760.65,83,760.65,97" style="stroke: #A80036; stroke-width: 1.0;"/><!--link MoveableObject to Boat--><path d="M300.79,90 C305.67,90 310.54,90 315.42,90 " fill="none" id="MoveableObject-Boat" style="stroke: #A80036; stroke-width: 1.0;"/><polygon fill="none" points="300.76,97,280.76,90,300.76,83,300.76,97" style="stroke: #A80036; stroke-width: 1.0;"/><!--link Boat to PlayerBoat--><path d="M383.07,52.7 C392.01,45.86 402.03,39.71 412.5,36 C442.66,25.3 453.78,27.02 484.5,36 C504.72,41.91 524.7,54.3 540.16,65.72 " fill="none" id="Boat-PlayerBoat" style="stroke: #A80036; stroke-width: 1.0;"/><polygon fill="none" points="387.55,58.07,367.83,65.81,378.42,47.46,387.55,58.07" style="stroke: #A80036; stroke-width: 1.0;"/><!--link Boat to AIBoat--><path d="M396.7,90 C401.73,90 406.75,90 411.78,90 " fill="none" id="Boat-AIBoat" style="stroke: #A80036; stroke-width: 1.0;"/><polygon fill="none" points="396.68,97,376.68,90,396.68,83,396.68,97" style="stroke: #A80036; stroke-width: 1.0;"/><!--link Scene to SceneMainGame--><path d="M1567.49,53.18 C1577.27,46.14 1588.21,39.79 1599.5,36 C1702.11,1.61 1981.39,10.23 2086.5,36 C2110.51,41.89 2135.15,54.43 2154.35,65.94 " fill="none" id="Scene-SceneMainGame" style="stroke: #A80036; stroke-width: 1.0;"/><polygon fill="none" points="1571.77,58.72,1551.79,65.78,1563.01,47.8,1571.77,58.72" style="stroke: #A80036; stroke-width: 1.0;"/><!--link Scene to SceneOptionsMenu--><path d="M1567.49,53.18 C1577.27,46.14 1588.21,39.79 1599.5,36 C1725.5,-6.23 1768.98,6.29 1898.5,36 C1924.08,41.87 1950.6,54.41 1971.36,65.93 " fill="none" id="Scene-SceneOptionsMenu" style="stroke: #A80036; stroke-width: 1.0;"/><polygon fill="none" points="1571.77,58.72,1551.79,65.78,1563.01,47.8,1571.77,58.72" style="stroke: #A80036; stroke-width: 1.0;"/><!--link Scene to SceneStartScreen--><path d="M1567.49,53.18 C1577.27,46.14 1588.21,39.79 1599.5,36 C1649.23,19.33 1666.47,23.9 1717.5,36 C1742.29,41.88 1767.87,54.42 1787.85,65.93 " fill="none" id="Scene-SceneStartScreen" style="stroke: #A80036; stroke-width: 1.0;"/><polygon fill="none" points="1571.77,58.72,1551.79,65.78,1563.01,47.8,1571.77,58.72" style="stroke: #A80036; stroke-width: 1.0;"/><!--link Scene to SceneTutorial--><path d="M1583.75,90 C1588.82,90 1593.89,90 1598.97,90 " fill="none" id="Scene-SceneTutorial" style="stroke: #A80036; stroke-width: 1.0;"/><polygon fill="none" points="1583.55,97,1563.55,90,1583.55,83,1583.55,97" style="stroke: #A80036; stroke-width: 1.0;"/><!--
@startuml

GameObject <|- MoveableObject

MoveableObject <|- Obstacle
Obstacle <|- ObstacleBranch
Obstacle <|- ObstacleDuck
ObstacleBranch <|- ObstacleFLoatingBranch
Obstacle <|- ObstacleLaneWall

MoveableObject <|- Boat
Boat <|- PlayerBoat
Boat <|- AIBoat

Scene <|- SceneMainGame
Scene <|- SceneOptionsMenu
Scene <|- SceneStartScreen
Scene <|- SceneTutorial

@enduml

PlantUML version 1.2018.13(Mon Nov 26 17:11:51 GMT 2018)
(GPL source distribution)
Java Runtime: OpenJDK Runtime Environment
JVM: OpenJDK 64-Bit Server VM
Java Version: 11.0.9+11-Ubuntu-0ubuntu1.20.04
Operating System: Linux
OS Version: 4.19.128-microsoft-standard
Default Encoding: UTF-8
Language: en
Country: null
--></g></svg>