<?xml version="1.0" encoding="UTF-8" standalone="no"?><svg xmlns="http://www.w3.org/2000/svg" xmlns:xlink="http://www.w3.org/1999/xlink" contentScriptType="application/ecmascript" contentStyleType="text/css" height="640px" preserveAspectRatio="none" style="width:1965px;height:640px;" version="1.1" viewBox="0 0 1965 640" width="1965px" zoomAndPan="magnify"><defs><filter height="300%" id="f1nhrx0ui7hxpf" width="300%" x="-1" y="-1"><feGaussianBlur result="blurOut" stdDeviation="2.0"/><feColorMatrix in="blurOut" result="blurOut2" type="matrix" values="0 0 0 0 0 0 0 0 0 0 0 0 0 0 0 0 0 0 .4 0"/><feOffset dx="4.0" dy="4.0" in="blurOut2" result="blurOut3"/><feBlend in="SourceGraphic" in2="blurOut3" mode="normal"/></filter></defs><g><!--class AIBoat--><rect fill="#FEFECE" filter="url(#f1nhrx0ui7hxpf)" height="163.2422" id="AIBoat" style="stroke: #A80036; stroke-width: 1.5;" width="318" x="669.5" y="345"/><ellipse cx="804.25" cy="361" fill="#ADD1B2" rx="11" ry="11" style="stroke: #A80036; stroke-width: 1.0;"/><path d="M807.2188,366.6406 Q806.6406,366.9375 806,367.0781 Q805.3594,367.2344 804.6563,367.2344 Q802.1563,367.2344 800.8281,365.5938 Q799.5156,363.9375 799.5156,360.8125 Q799.5156,357.6875 800.8281,356.0313 Q802.1563,354.375 804.6563,354.375 Q805.3594,354.375 806,354.5313 Q806.6563,354.6875 807.2188,354.9844 L807.2188,357.7031 Q806.5938,357.125 806,356.8594 Q805.4063,356.5781 804.7813,356.5781 Q803.4375,356.5781 802.75,357.6563 Q802.0625,358.7188 802.0625,360.8125 Q802.0625,362.9063 802.75,363.9844 Q803.4375,365.0469 804.7813,365.0469 Q805.4063,365.0469 806,364.7813 Q806.5938,364.5 807.2188,363.9219 L807.2188,366.6406 Z "/><text fill="#000000" font-family="sans-serif" font-size="12" lengthAdjust="spacingAndGlyphs" textLength="40" x="824.75" y="365.1543">AIBoat</text><line style="stroke: #A80036; stroke-width: 1.5;" x1="670.5" x2="986.5" y1="377" y2="377"/><polygon fill="none" points="680.5,383.9023,684.5,387.9023,680.5,391.9023,676.5,387.9023" style="stroke: #B38D22; stroke-width: 1.0;"/><text fill="#000000" font-family="sans-serif" font-size="11" lengthAdjust="spacingAndGlyphs" textLength="115" x="689.5" y="391.2104">numberOfRays:Float</text><polygon fill="none" points="680.5,396.707,684.5,400.707,680.5,404.707,676.5,400.707" style="stroke: #B38D22; stroke-width: 1.0;"/><text fill="#000000" font-family="sans-serif" font-size="11" lengthAdjust="spacingAndGlyphs" textLength="130" x="689.5" y="404.0151">rangeAngleRange:Float</text><polygon fill="none" points="680.5,409.5117,684.5,413.5117,680.5,417.5117,676.5,413.5117" style="stroke: #B38D22; stroke-width: 1.0;"/><text fill="#000000" font-family="sans-serif" font-size="11" lengthAdjust="spacingAndGlyphs" textLength="77" x="689.5" y="416.8198">rayAngle:Foat</text><polygon fill="none" points="680.5,422.3164,684.5,426.3164,680.5,430.3164,676.5,426.3164" style="stroke: #B38D22; stroke-width: 1.0;"/><text fill="#000000" font-family="sans-serif" font-size="11" lengthAdjust="spacingAndGlyphs" textLength="98" x="689.5" y="429.6245">rayStepSize:Float</text><polygon fill="none" points="680.5,435.1211,684.5,439.1211,680.5,443.1211,676.5,439.1211" style="stroke: #B38D22; stroke-width: 1.0;"/><text fill="#000000" font-family="sans-serif" font-size="11" lengthAdjust="spacingAndGlyphs" textLength="83" x="689.5" y="442.4292">regen:Boolean</text><line style="stroke: #A80036; stroke-width: 1.5;" x1="670.5" x2="986.5" y1="449.0234" y2="449.0234"/><text fill="#000000" font-family="sans-serif" font-size="11" lengthAdjust="spacingAndGlyphs" textLength="292" x="689.5" y="463.2339">updatePosition(obstacles:CollisionObject[0..*]):Void</text><text fill="#000000" font-family="sans-serif" font-size="11" lengthAdjust="spacingAndGlyphs" textLength="106" x="689.5" y="476.0386">isShown():Boolean</text><polygon fill="#FFFF44" points="680.5,481.5352,684.5,485.5352,680.5,489.5352,676.5,485.5352" style="stroke: #B38D22; stroke-width: 1.0;"/><text fill="#000000" font-family="sans-serif" font-size="11" lengthAdjust="spacingAndGlyphs" textLength="142" x="689.5" y="488.8433">getRayFirePoint():Vector2</text><polygon fill="#FFFF44" points="680.5,494.3398,684.5,498.3398,680.5,502.3398,676.5,498.3398" style="stroke: #B38D22; stroke-width: 1.0;"/><text fill="#000000" font-family="sans-serif" font-size="11" lengthAdjust="spacingAndGlyphs" textLength="266" x="689.5" y="501.6479">checkTurn(obstacles:CollisionObject[0..*]):Void</text><!--class Boat--><rect fill="#FEFECE" filter="url(#f1nhrx0ui7hxpf)" height="188.8516" id="Boat" style="stroke: #A80036; stroke-width: 1.5;" width="164" x="470.5" y="332"/><ellipse cx="533.75" cy="348" fill="#A9DCDF" rx="11" ry="11" style="stroke: #A80036; stroke-width: 1.0;"/><path d="M533.8594,343.3438 L532.7031,348.4219 L535.0313,348.4219 L533.8594,343.3438 Z M532.375,341.1094 L535.3594,341.1094 L538.7188,353.5 L536.2656,353.5 L535.5,350.4375 L532.2188,350.4375 L531.4688,353.5 L529.0313,353.5 L532.375,341.1094 Z "/><text fill="#000000" font-family="sans-serif" font-size="12" font-style="italic" lengthAdjust="spacingAndGlyphs" textLength="29" x="554.25" y="352.1543">Boat</text><line style="stroke: #A80036; stroke-width: 1.5;" x1="471.5" x2="633.5" y1="364" y2="364"/><polygon fill="none" points="481.5,370.9023,485.5,374.9023,481.5,378.9023,477.5,374.9023" style="stroke: #B38D22; stroke-width: 1.0;"/><text fill="#000000" font-family="sans-serif" font-size="11" lengthAdjust="spacingAndGlyphs" textLength="70" x="490.5" y="378.2104">name:String</text><polygon fill="none" points="481.5,383.707,485.5,387.707,481.5,391.707,477.5,387.707" style="stroke: #B38D22; stroke-width: 1.0;"/><text fill="#000000" font-family="sans-serif" font-size="11" lengthAdjust="spacingAndGlyphs" textLength="83" x="490.5" y="391.0151">durability:Float</text><polygon fill="none" points="481.5,396.5117,485.5,400.5117,481.5,404.5117,477.5,400.5117" style="stroke: #B38D22; stroke-width: 1.0;"/><text fill="#000000" font-family="sans-serif" font-size="11" lengthAdjust="spacingAndGlyphs" textLength="117" x="490.5" y="403.8198">durabilityPerHit:Float</text><polygon fill="none" points="481.5,409.3164,485.5,413.3164,481.5,417.3164,477.5,413.3164" style="stroke: #B38D22; stroke-width: 1.0;"/><text fill="#000000" font-family="sans-serif" font-size="11" lengthAdjust="spacingAndGlyphs" textLength="77" x="490.5" y="416.6245">stamina:Float</text><polygon fill="none" points="481.5,422.1211,485.5,426.1211,481.5,430.1211,477.5,426.1211" style="stroke: #B38D22; stroke-width: 1.0;"/><text fill="#000000" font-family="sans-serif" font-size="11" lengthAdjust="spacingAndGlyphs" textLength="113" x="490.5" y="429.4292">staminaUsage:Float</text><polygon fill="none" points="481.5,434.9258,485.5,438.9258,481.5,442.9258,477.5,438.9258" style="stroke: #B38D22; stroke-width: 1.0;"/><text fill="#000000" font-family="sans-serif" font-size="11" lengthAdjust="spacingAndGlyphs" textLength="112" x="490.5" y="442.2339">staminaRegen:Float</text><polygon fill="none" points="481.5,447.7305,485.5,451.7305,481.5,455.7305,477.5,451.7305" style="stroke: #B38D22; stroke-width: 1.0;"/><text fill="#000000" font-family="sans-serif" font-size="11" lengthAdjust="spacingAndGlyphs" textLength="126" x="490.5" y="455.0386">legTimes:Integer[0..4]</text><polygon fill="none" points="481.5,460.5352,485.5,464.5352,481.5,468.5352,477.5,464.5352" style="stroke: #B38D22; stroke-width: 1.0;"/><text fill="#000000" font-family="sans-serif" font-size="11" lengthAdjust="spacingAndGlyphs" textLength="99" x="490.5" y="467.8433">startTime:Integer</text><polygon fill="none" points="481.5,473.3398,485.5,477.3398,481.5,481.3398,477.5,477.3398" style="stroke: #B38D22; stroke-width: 1.0;"/><text fill="#000000" font-family="sans-serif" font-size="11" lengthAdjust="spacingAndGlyphs" textLength="93" x="490.5" y="480.6479">endTime:Integer</text><polygon fill="none" points="481.5,486.1445,485.5,490.1445,481.5,494.1445,477.5,490.1445" style="stroke: #B38D22; stroke-width: 1.0;"/><text fill="#000000" font-family="sans-serif" font-size="11" lengthAdjust="spacingAndGlyphs" textLength="138" x="490.5" y="493.4526">hasFinishedLeg:Boolean</text><polygon fill="none" points="481.5,498.9492,485.5,502.9492,481.5,506.9492,477.5,502.9492" style="stroke: #B38D22; stroke-width: 1.0;"/><text fill="#000000" font-family="sans-serif" font-size="11" lengthAdjust="spacingAndGlyphs" textLength="133" x="490.5" y="506.2573">hasStartedLeg:Boolean</text><line style="stroke: #A80036; stroke-width: 1.5;" x1="471.5" x2="633.5" y1="512.8516" y2="512.8516"/><!--class BoatRace--><rect fill="#FEFECE" filter="url(#f1nhrx0ui7hxpf)" height="48" id="BoatRace" style="stroke: #A80036; stroke-width: 1.5;" width="92" x="1015.5" y="224"/><ellipse cx="1030.5" cy="240" fill="#ADD1B2" rx="11" ry="11" style="stroke: #A80036; stroke-width: 1.0;"/><path d="M1033.4688,245.6406 Q1032.8906,245.9375 1032.25,246.0781 Q1031.6094,246.2344 1030.9063,246.2344 Q1028.4063,246.2344 1027.0781,244.5938 Q1025.7656,242.9375 1025.7656,239.8125 Q1025.7656,236.6875 1027.0781,235.0313 Q1028.4063,233.375 1030.9063,233.375 Q1031.6094,233.375 1032.25,233.5313 Q1032.9063,233.6875 1033.4688,233.9844 L1033.4688,236.7031 Q1032.8438,236.125 1032.25,235.8594 Q1031.6563,235.5781 1031.0313,235.5781 Q1029.6875,235.5781 1029,236.6563 Q1028.3125,237.7188 1028.3125,239.8125 Q1028.3125,241.9063 1029,242.9844 Q1029.6875,244.0469 1031.0313,244.0469 Q1031.6563,244.0469 1032.25,243.7813 Q1032.8438,243.5 1033.4688,242.9219 L1033.4688,245.6406 Z "/><text fill="#000000" font-family="sans-serif" font-size="12" lengthAdjust="spacingAndGlyphs" textLength="60" x="1044.5" y="244.1543">BoatRace</text><line style="stroke: #A80036; stroke-width: 1.5;" x1="1016.5" x2="1106.5" y1="256" y2="256"/><line style="stroke: #A80036; stroke-width: 1.5;" x1="1016.5" x2="1106.5" y1="264" y2="264"/><!--class CollisionBounds--><rect fill="#FEFECE" filter="url(#f1nhrx0ui7hxpf)" height="48" id="CollisionBounds" style="stroke: #A80036; stroke-width: 1.5;" width="130" x="309.5" y="581"/><ellipse cx="324.5" cy="597" fill="#ADD1B2" rx="11" ry="11" style="stroke: #A80036; stroke-width: 1.0;"/><path d="M327.4688,602.6406 Q326.8906,602.9375 326.25,603.0781 Q325.6094,603.2344 324.9063,603.2344 Q322.4063,603.2344 321.0781,601.5938 Q319.7656,599.9375 319.7656,596.8125 Q319.7656,593.6875 321.0781,592.0313 Q322.4063,590.375 324.9063,590.375 Q325.6094,590.375 326.25,590.5313 Q326.9063,590.6875 327.4688,590.9844 L327.4688,593.7031 Q326.8438,593.125 326.25,592.8594 Q325.6563,592.5781 325.0313,592.5781 Q323.6875,592.5781 323,593.6563 Q322.3125,594.7188 322.3125,596.8125 Q322.3125,598.9063 323,599.9844 Q323.6875,601.0469 325.0313,601.0469 Q325.6563,601.0469 326.25,600.7813 Q326.8438,600.5 327.4688,599.9219 L327.4688,602.6406 Z "/><text fill="#000000" font-family="sans-serif" font-size="12" lengthAdjust="spacingAndGlyphs" textLength="98" x="338.5" y="601.1543">CollisionBounds</text><line style="stroke: #A80036; stroke-width: 1.5;" x1="310.5" x2="438.5" y1="613" y2="613"/><line style="stroke: #A80036; stroke-width: 1.5;" x1="310.5" x2="438.5" y1="621" y2="621"/><!--class CollisionObject--><rect fill="#FEFECE" filter="url(#f1nhrx0ui7hxpf)" height="48" id="CollisionObject" style="stroke: #A80036; stroke-width: 1.5;" width="121" x="314" y="402.5"/><ellipse cx="329" cy="418.5" fill="#B4A7E5" rx="11" ry="11" style="stroke: #A80036; stroke-width: 1.0;"/><path d="M324.9219,414.2656 L324.9219,412.1094 L332.3125,412.1094 L332.3125,414.2656 L329.8438,414.2656 L329.8438,422.3438 L332.3125,422.3438 L332.3125,424.5 L324.9219,424.5 L324.9219,422.3438 L327.3906,422.3438 L327.3906,414.2656 L324.9219,414.2656 Z "/><text fill="#000000" font-family="sans-serif" font-size="12" font-style="italic" lengthAdjust="spacingAndGlyphs" textLength="89" x="343" y="422.6543">CollisionObject</text><line style="stroke: #A80036; stroke-width: 1.5;" x1="315" x2="434" y1="434.5" y2="434.5"/><line style="stroke: #A80036; stroke-width: 1.5;" x1="315" x2="434" y1="442.5" y2="442.5"/><!--class GameObject--><rect fill="#FEFECE" filter="url(#f1nhrx0ui7hxpf)" height="48" id="GameObject" style="stroke: #A80036; stroke-width: 1.5;" width="107" x="6" y="402.5"/><ellipse cx="21" cy="418.5" fill="#A9DCDF" rx="11" ry="11" style="stroke: #A80036; stroke-width: 1.0;"/><path d="M21.1094,413.8438 L19.9531,418.9219 L22.2813,418.9219 L21.1094,413.8438 Z M19.625,411.6094 L22.6094,411.6094 L25.9688,424 L23.5156,424 L22.75,420.9375 L19.4688,420.9375 L18.7188,424 L16.2813,424 L19.625,411.6094 Z "/><text fill="#000000" font-family="sans-serif" font-size="12" font-style="italic" lengthAdjust="spacingAndGlyphs" textLength="75" x="35" y="422.6543">GameObject</text><line style="stroke: #A80036; stroke-width: 1.5;" x1="7" x2="112" y1="434.5" y2="434.5"/><line style="stroke: #A80036; stroke-width: 1.5;" x1="7" x2="112" y1="442.5" y2="442.5"/><!--class MoveableObject--><rect fill="#FEFECE" filter="url(#f1nhrx0ui7hxpf)" height="48" id="MoveableObject" style="stroke: #A80036; stroke-width: 1.5;" width="130" x="148.5" y="402.5"/><ellipse cx="163.5" cy="418.5" fill="#A9DCDF" rx="11" ry="11" style="stroke: #A80036; stroke-width: 1.0;"/><path d="M163.6094,413.8438 L162.4531,418.9219 L164.7813,418.9219 L163.6094,413.8438 Z M162.125,411.6094 L165.1094,411.6094 L168.4688,424 L166.0156,424 L165.25,420.9375 L161.9688,420.9375 L161.2188,424 L158.7813,424 L162.125,411.6094 Z "/><text fill="#000000" font-family="sans-serif" font-size="12" font-style="italic" lengthAdjust="spacingAndGlyphs" textLength="98" x="177.5" y="422.6543">MoveableObject</text><line style="stroke: #A80036; stroke-width: 1.5;" x1="149.5" x2="277.5" y1="434.5" y2="434.5"/><line style="stroke: #A80036; stroke-width: 1.5;" x1="149.5" x2="277.5" y1="442.5" y2="442.5"/><!--class Obstacle--><rect fill="#FEFECE" filter="url(#f1nhrx0ui7hxpf)" height="48" id="Obstacle" style="stroke: #A80036; stroke-width: 1.5;" width="85" x="1156" y="402.5"/><ellipse cx="1171" cy="418.5" fill="#A9DCDF" rx="11" ry="11" style="stroke: #A80036; stroke-width: 1.0;"/><path d="M1171.1094,413.8438 L1169.9531,418.9219 L1172.2813,418.9219 L1171.1094,413.8438 Z M1169.625,411.6094 L1172.6094,411.6094 L1175.9688,424 L1173.5156,424 L1172.75,420.9375 L1169.4688,420.9375 L1168.7188,424 L1166.2813,424 L1169.625,411.6094 Z "/><text fill="#000000" font-family="sans-serif" font-size="12" font-style="italic" lengthAdjust="spacingAndGlyphs" textLength="53" x="1185" y="422.6543">Obstacle</text><line style="stroke: #A80036; stroke-width: 1.5;" x1="1157" x2="1240" y1="434.5" y2="434.5"/><line style="stroke: #A80036; stroke-width: 1.5;" x1="1157" x2="1240" y1="442.5" y2="442.5"/><!--class ObstacleBranch--><rect fill="#FEFECE" filter="url(#f1nhrx0ui7hxpf)" height="48" id="ObstacleBranch" style="stroke: #A80036; stroke-width: 1.5;" width="131" x="1607" y="402.5"/><ellipse cx="1622" cy="418.5" fill="#ADD1B2" rx="11" ry="11" style="stroke: #A80036; stroke-width: 1.0;"/><path d="M1624.9688,424.1406 Q1624.3906,424.4375 1623.75,424.5781 Q1623.1094,424.7344 1622.4063,424.7344 Q1619.9063,424.7344 1618.5781,423.0938 Q1617.2656,421.4375 1617.2656,418.3125 Q1617.2656,415.1875 1618.5781,413.5313 Q1619.9063,411.875 1622.4063,411.875 Q1623.1094,411.875 1623.75,412.0313 Q1624.4063,412.1875 1624.9688,412.4844 L1624.9688,415.2031 Q1624.3438,414.625 1623.75,414.3594 Q1623.1563,414.0781 1622.5313,414.0781 Q1621.1875,414.0781 1620.5,415.1563 Q1619.8125,416.2188 1619.8125,418.3125 Q1619.8125,420.4063 1620.5,421.4844 Q1621.1875,422.5469 1622.5313,422.5469 Q1623.1563,422.5469 1623.75,422.2813 Q1624.3438,422 1624.9688,421.4219 L1624.9688,424.1406 Z "/><text fill="#000000" font-family="sans-serif" font-size="12" lengthAdjust="spacingAndGlyphs" textLength="99" x="1636" y="422.6543">ObstacleBranch</text><line style="stroke: #A80036; stroke-width: 1.5;" x1="1608" x2="1737" y1="434.5" y2="434.5"/><line style="stroke: #A80036; stroke-width: 1.5;" x1="1608" x2="1737" y1="442.5" y2="442.5"/><!--class ObstacleDuck--><rect fill="#FEFECE" filter="url(#f1nhrx0ui7hxpf)" height="48" id="ObstacleDuck" style="stroke: #A80036; stroke-width: 1.5;" width="118" x="1453.5" y="402.5"/><ellipse cx="1468.5" cy="418.5" fill="#ADD1B2" rx="11" ry="11" style="stroke: #A80036; stroke-width: 1.0;"/><path d="M1471.4688,424.1406 Q1470.8906,424.4375 1470.25,424.5781 Q1469.6094,424.7344 1468.9063,424.7344 Q1466.4063,424.7344 1465.0781,423.0938 Q1463.7656,421.4375 1463.7656,418.3125 Q1463.7656,415.1875 1465.0781,413.5313 Q1466.4063,411.875 1468.9063,411.875 Q1469.6094,411.875 1470.25,412.0313 Q1470.9063,412.1875 1471.4688,412.4844 L1471.4688,415.2031 Q1470.8438,414.625 1470.25,414.3594 Q1469.6563,414.0781 1469.0313,414.0781 Q1467.6875,414.0781 1467,415.1563 Q1466.3125,416.2188 1466.3125,418.3125 Q1466.3125,420.4063 1467,421.4844 Q1467.6875,422.5469 1469.0313,422.5469 Q1469.6563,422.5469 1470.25,422.2813 Q1470.8438,422 1471.4688,421.4219 L1471.4688,424.1406 Z "/><text fill="#000000" font-family="sans-serif" font-size="12" lengthAdjust="spacingAndGlyphs" textLength="86" x="1482.5" y="422.6543">ObstacleDuck</text><line style="stroke: #A80036; stroke-width: 1.5;" x1="1454.5" x2="1570.5" y1="434.5" y2="434.5"/><line style="stroke: #A80036; stroke-width: 1.5;" x1="1454.5" x2="1570.5" y1="442.5" y2="442.5"/><!--class ObstacleFloatingBranch--><rect fill="#FEFECE" filter="url(#f1nhrx0ui7hxpf)" height="48" id="ObstacleFloatingBranch" style="stroke: #A80036; stroke-width: 1.5;" width="181" x="1773" y="402.5"/><ellipse cx="1788" cy="418.5" fill="#ADD1B2" rx="11" ry="11" style="stroke: #A80036; stroke-width: 1.0;"/><path d="M1790.9688,424.1406 Q1790.3906,424.4375 1789.75,424.5781 Q1789.1094,424.7344 1788.4063,424.7344 Q1785.9063,424.7344 1784.5781,423.0938 Q1783.2656,421.4375 1783.2656,418.3125 Q1783.2656,415.1875 1784.5781,413.5313 Q1785.9063,411.875 1788.4063,411.875 Q1789.1094,411.875 1789.75,412.0313 Q1790.4063,412.1875 1790.9688,412.4844 L1790.9688,415.2031 Q1790.3438,414.625 1789.75,414.3594 Q1789.1563,414.0781 1788.5313,414.0781 Q1787.1875,414.0781 1786.5,415.1563 Q1785.8125,416.2188 1785.8125,418.3125 Q1785.8125,420.4063 1786.5,421.4844 Q1787.1875,422.5469 1788.5313,422.5469 Q1789.1563,422.5469 1789.75,422.2813 Q1790.3438,422 1790.9688,421.4219 L1790.9688,424.1406 Z "/><text fill="#000000" font-family="sans-serif" font-size="12" lengthAdjust="spacingAndGlyphs" textLength="149" x="1802" y="422.6543">ObstacleFloatingBranch</text><line style="stroke: #A80036; stroke-width: 1.5;" x1="1774" x2="1953" y1="434.5" y2="434.5"/><line style="stroke: #A80036; stroke-width: 1.5;" x1="1774" x2="1953" y1="442.5" y2="442.5"/><!--class ObstacleLaneWall--><rect fill="#FEFECE" filter="url(#f1nhrx0ui7hxpf)" height="48" id="ObstacleLaneWall" style="stroke: #A80036; stroke-width: 1.5;" width="142" x="1276.5" y="402.5"/><ellipse cx="1291.5" cy="418.5" fill="#ADD1B2" rx="11" ry="11" style="stroke: #A80036; stroke-width: 1.0;"/><path d="M1294.4688,424.1406 Q1293.8906,424.4375 1293.25,424.5781 Q1292.6094,424.7344 1291.9063,424.7344 Q1289.4063,424.7344 1288.0781,423.0938 Q1286.7656,421.4375 1286.7656,418.3125 Q1286.7656,415.1875 1288.0781,413.5313 Q1289.4063,411.875 1291.9063,411.875 Q1292.6094,411.875 1293.25,412.0313 Q1293.9063,412.1875 1294.4688,412.4844 L1294.4688,415.2031 Q1293.8438,414.625 1293.25,414.3594 Q1292.6563,414.0781 1292.0313,414.0781 Q1290.6875,414.0781 1290,415.1563 Q1289.3125,416.2188 1289.3125,418.3125 Q1289.3125,420.4063 1290,421.4844 Q1290.6875,422.5469 1292.0313,422.5469 Q1292.6563,422.5469 1293.25,422.2813 Q1293.8438,422 1294.4688,421.4219 L1294.4688,424.1406 Z "/><text fill="#000000" font-family="sans-serif" font-size="12" lengthAdjust="spacingAndGlyphs" textLength="110" x="1305.5" y="422.6543">ObstacleLaneWall</text><line style="stroke: #A80036; stroke-width: 1.5;" x1="1277.5" x2="1417.5" y1="434.5" y2="434.5"/><line style="stroke: #A80036; stroke-width: 1.5;" x1="1277.5" x2="1417.5" y1="442.5" y2="442.5"/><!--class PixelBoat--><rect fill="#FEFECE" filter="url(#f1nhrx0ui7hxpf)" height="48" id="PixelBoat" style="stroke: #A80036; stroke-width: 1.5;" width="89" x="744" y="8"/><ellipse cx="759" cy="24" fill="#ADD1B2" rx="11" ry="11" style="stroke: #A80036; stroke-width: 1.0;"/><path d="M761.9688,29.6406 Q761.3906,29.9375 760.75,30.0781 Q760.1094,30.2344 759.4063,30.2344 Q756.9063,30.2344 755.5781,28.5938 Q754.2656,26.9375 754.2656,23.8125 Q754.2656,20.6875 755.5781,19.0313 Q756.9063,17.375 759.4063,17.375 Q760.1094,17.375 760.75,17.5313 Q761.4063,17.6875 761.9688,17.9844 L761.9688,20.7031 Q761.3438,20.125 760.75,19.8594 Q760.1563,19.5781 759.5313,19.5781 Q758.1875,19.5781 757.5,20.6563 Q756.8125,21.7188 756.8125,23.8125 Q756.8125,25.9063 757.5,26.9844 Q758.1875,28.0469 759.5313,28.0469 Q760.1563,28.0469 760.75,27.7813 Q761.3438,27.5 761.9688,26.9219 L761.9688,29.6406 Z "/><text fill="#000000" font-family="sans-serif" font-size="12" lengthAdjust="spacingAndGlyphs" textLength="57" x="773" y="28.1543">PixelBoat</text><line style="stroke: #A80036; stroke-width: 1.5;" x1="745" x2="832" y1="40" y2="40"/><line style="stroke: #A80036; stroke-width: 1.5;" x1="745" x2="832" y1="48" y2="48"/><!--class PlayerBoat--><rect fill="#FEFECE" filter="url(#f1nhrx0ui7hxpf)" height="48" id="PlayerBoat" style="stroke: #A80036; stroke-width: 1.5;" width="99" x="1022" y="402.5"/><ellipse cx="1037" cy="418.5" fill="#ADD1B2" rx="11" ry="11" style="stroke: #A80036; stroke-width: 1.0;"/><path d="M1039.9688,424.1406 Q1039.3906,424.4375 1038.75,424.5781 Q1038.1094,424.7344 1037.4063,424.7344 Q1034.9063,424.7344 1033.5781,423.0938 Q1032.2656,421.4375 1032.2656,418.3125 Q1032.2656,415.1875 1033.5781,413.5313 Q1034.9063,411.875 1037.4063,411.875 Q1038.1094,411.875 1038.75,412.0313 Q1039.4063,412.1875 1039.9688,412.4844 L1039.9688,415.2031 Q1039.3438,414.625 1038.75,414.3594 Q1038.1563,414.0781 1037.5313,414.0781 Q1036.1875,414.0781 1035.5,415.1563 Q1034.8125,416.2188 1034.8125,418.3125 Q1034.8125,420.4063 1035.5,421.4844 Q1036.1875,422.5469 1037.5313,422.5469 Q1038.1563,422.5469 1038.75,422.2813 Q1039.3438,422 1039.9688,421.4219 L1039.9688,424.1406 Z "/><text fill="#000000" font-family="sans-serif" font-size="12" lengthAdjust="spacingAndGlyphs" textLength="67" x="1051" y="422.6543">PlayerBoat</text><line style="stroke: #A80036; stroke-width: 1.5;" x1="1023" x2="1120" y1="434.5" y2="434.5"/><line style="stroke: #A80036; stroke-width: 1.5;" x1="1023" x2="1120" y1="442.5" y2="442.5"/><!--class ResultsScreen--><rect fill="#FEFECE" filter="url(#f1nhrx0ui7hxpf)" height="48" id="ResultsScreen" style="stroke: #A80036; stroke-width: 1.5;" width="122" x="1142.5" y="224"/><ellipse cx="1157.5" cy="240" fill="#ADD1B2" rx="11" ry="11" style="stroke: #A80036; stroke-width: 1.0;"/><path d="M1160.4688,245.6406 Q1159.8906,245.9375 1159.25,246.0781 Q1158.6094,246.2344 1157.9063,246.2344 Q1155.4063,246.2344 1154.0781,244.5938 Q1152.7656,242.9375 1152.7656,239.8125 Q1152.7656,236.6875 1154.0781,235.0313 Q1155.4063,233.375 1157.9063,233.375 Q1158.6094,233.375 1159.25,233.5313 Q1159.9063,233.6875 1160.4688,233.9844 L1160.4688,236.7031 Q1159.8438,236.125 1159.25,235.8594 Q1158.6563,235.5781 1158.0313,235.5781 Q1156.6875,235.5781 1156,236.6563 Q1155.3125,237.7188 1155.3125,239.8125 Q1155.3125,241.9063 1156,242.9844 Q1156.6875,244.0469 1158.0313,244.0469 Q1158.6563,244.0469 1159.25,243.7813 Q1159.8438,243.5 1160.4688,242.9219 L1160.4688,245.6406 Z "/><text fill="#000000" font-family="sans-serif" font-size="12" lengthAdjust="spacingAndGlyphs" textLength="90" x="1171.5" y="244.1543">ResultsScreen</text><line style="stroke: #A80036; stroke-width: 1.5;" x1="1143.5" x2="1263.5" y1="256" y2="256"/><line style="stroke: #A80036; stroke-width: 1.5;" x1="1143.5" x2="1263.5" y1="264" y2="264"/><!--class Scene--><rect fill="#FEFECE" filter="url(#f1nhrx0ui7hxpf)" height="48" id="Scene" style="stroke: #A80036; stroke-width: 1.5;" width="71" x="364" y="116"/><ellipse cx="379" cy="132" fill="#B4A7E5" rx="11" ry="11" style="stroke: #A80036; stroke-width: 1.0;"/><path d="M374.9219,127.7656 L374.9219,125.6094 L382.3125,125.6094 L382.3125,127.7656 L379.8438,127.7656 L379.8438,135.8438 L382.3125,135.8438 L382.3125,138 L374.9219,138 L374.9219,135.8438 L377.3906,135.8438 L377.3906,127.7656 L374.9219,127.7656 Z "/><text fill="#000000" font-family="sans-serif" font-size="12" font-style="italic" lengthAdjust="spacingAndGlyphs" textLength="39" x="393" y="136.1543">Scene</text><line style="stroke: #A80036; stroke-width: 1.5;" x1="365" x2="434" y1="148" y2="148"/><line style="stroke: #A80036; stroke-width: 1.5;" x1="365" x2="434" y1="156" y2="156"/><!--class SceneMainGame--><rect fill="#FEFECE" filter="url(#f1nhrx0ui7hxpf)" height="48" id="SceneMainGame" style="stroke: #A80036; stroke-width: 1.5;" width="136" x="993.5" y="116"/><ellipse cx="1008.5" cy="132" fill="#ADD1B2" rx="11" ry="11" style="stroke: #A80036; stroke-width: 1.0;"/><path d="M1011.4688,137.6406 Q1010.8906,137.9375 1010.25,138.0781 Q1009.6094,138.2344 1008.9063,138.2344 Q1006.4063,138.2344 1005.0781,136.5938 Q1003.7656,134.9375 1003.7656,131.8125 Q1003.7656,128.6875 1005.0781,127.0313 Q1006.4063,125.375 1008.9063,125.375 Q1009.6094,125.375 1010.25,125.5313 Q1010.9063,125.6875 1011.4688,125.9844 L1011.4688,128.7031 Q1010.8438,128.125 1010.25,127.8594 Q1009.6563,127.5781 1009.0313,127.5781 Q1007.6875,127.5781 1007,128.6563 Q1006.3125,129.7188 1006.3125,131.8125 Q1006.3125,133.9063 1007,134.9844 Q1007.6875,136.0469 1009.0313,136.0469 Q1009.6563,136.0469 1010.25,135.7813 Q1010.8438,135.5 1011.4688,134.9219 L1011.4688,137.6406 Z "/><text fill="#000000" font-family="sans-serif" font-size="12" lengthAdjust="spacingAndGlyphs" textLength="104" x="1022.5" y="136.1543">SceneMainGame</text><line style="stroke: #A80036; stroke-width: 1.5;" x1="994.5" x2="1128.5" y1="148" y2="148"/><line style="stroke: #A80036; stroke-width: 1.5;" x1="994.5" x2="1128.5" y1="156" y2="156"/><!--class SceneOptionsMenu--><rect fill="#FEFECE" filter="url(#f1nhrx0ui7hxpf)" height="48" id="SceneOptionsMenu" style="stroke: #A80036; stroke-width: 1.5;" width="153" x="805" y="116"/><ellipse cx="820" cy="132" fill="#ADD1B2" rx="11" ry="11" style="stroke: #A80036; stroke-width: 1.0;"/><path d="M822.9688,137.6406 Q822.3906,137.9375 821.75,138.0781 Q821.1094,138.2344 820.4063,138.2344 Q817.9063,138.2344 816.5781,136.5938 Q815.2656,134.9375 815.2656,131.8125 Q815.2656,128.6875 816.5781,127.0313 Q817.9063,125.375 820.4063,125.375 Q821.1094,125.375 821.75,125.5313 Q822.4063,125.6875 822.9688,125.9844 L822.9688,128.7031 Q822.3438,128.125 821.75,127.8594 Q821.1563,127.5781 820.5313,127.5781 Q819.1875,127.5781 818.5,128.6563 Q817.8125,129.7188 817.8125,131.8125 Q817.8125,133.9063 818.5,134.9844 Q819.1875,136.0469 820.5313,136.0469 Q821.1563,136.0469 821.75,135.7813 Q822.3438,135.5 822.9688,134.9219 L822.9688,137.6406 Z "/><text fill="#000000" font-family="sans-serif" font-size="12" lengthAdjust="spacingAndGlyphs" textLength="121" x="834" y="136.1543">SceneOptionsMenu</text><line style="stroke: #A80036; stroke-width: 1.5;" x1="806" x2="957" y1="148" y2="148"/><line style="stroke: #A80036; stroke-width: 1.5;" x1="806" x2="957" y1="156" y2="156"/><!--class SceneStartScreen--><rect fill="#FEFECE" filter="url(#f1nhrx0ui7hxpf)" height="48" id="SceneStartScreen" style="stroke: #A80036; stroke-width: 1.5;" width="146" x="623.5" y="116"/><ellipse cx="638.5" cy="132" fill="#ADD1B2" rx="11" ry="11" style="stroke: #A80036; stroke-width: 1.0;"/><path d="M641.4688,137.6406 Q640.8906,137.9375 640.25,138.0781 Q639.6094,138.2344 638.9063,138.2344 Q636.4063,138.2344 635.0781,136.5938 Q633.7656,134.9375 633.7656,131.8125 Q633.7656,128.6875 635.0781,127.0313 Q636.4063,125.375 638.9063,125.375 Q639.6094,125.375 640.25,125.5313 Q640.9063,125.6875 641.4688,125.9844 L641.4688,128.7031 Q640.8438,128.125 640.25,127.8594 Q639.6563,127.5781 639.0313,127.5781 Q637.6875,127.5781 637,128.6563 Q636.3125,129.7188 636.3125,131.8125 Q636.3125,133.9063 637,134.9844 Q637.6875,136.0469 639.0313,136.0469 Q639.6563,136.0469 640.25,135.7813 Q640.8438,135.5 641.4688,134.9219 L641.4688,137.6406 Z "/><text fill="#000000" font-family="sans-serif" font-size="12" lengthAdjust="spacingAndGlyphs" textLength="114" x="652.5" y="136.1543">SceneStartScreen</text><line style="stroke: #A80036; stroke-width: 1.5;" x1="624.5" x2="768.5" y1="148" y2="148"/><line style="stroke: #A80036; stroke-width: 1.5;" x1="624.5" x2="768.5" y1="156" y2="156"/><!--class SceneTutorial--><rect fill="#FEFECE" filter="url(#f1nhrx0ui7hxpf)" height="48" id="SceneTutorial" style="stroke: #A80036; stroke-width: 1.5;" width="118" x="470.5" y="116"/><ellipse cx="485.5" cy="132" fill="#ADD1B2" rx="11" ry="11" style="stroke: #A80036; stroke-width: 1.0;"/><path d="M488.4688,137.6406 Q487.8906,137.9375 487.25,138.0781 Q486.6094,138.2344 485.9063,138.2344 Q483.4063,138.2344 482.0781,136.5938 Q480.7656,134.9375 480.7656,131.8125 Q480.7656,128.6875 482.0781,127.0313 Q483.4063,125.375 485.9063,125.375 Q486.6094,125.375 487.25,125.5313 Q487.9063,125.6875 488.4688,125.9844 L488.4688,128.7031 Q487.8438,128.125 487.25,127.8594 Q486.6563,127.5781 486.0313,127.5781 Q484.6875,127.5781 484,128.6563 Q483.3125,129.7188 483.3125,131.8125 Q483.3125,133.9063 484,134.9844 Q484.6875,136.0469 486.0313,136.0469 Q486.6563,136.0469 487.25,135.7813 Q487.8438,135.5 488.4688,134.9219 L488.4688,137.6406 Z "/><text fill="#000000" font-family="sans-serif" font-size="12" lengthAdjust="spacingAndGlyphs" textLength="86" x="499.5" y="136.1543">SceneTutorial</text><line style="stroke: #A80036; stroke-width: 1.5;" x1="471.5" x2="587.5" y1="148" y2="148"/><line style="stroke: #A80036; stroke-width: 1.5;" x1="471.5" x2="587.5" y1="156" y2="156"/><!--link GameObject to MoveableObject--><path d="M133.18,426.5 C138.24,426.5 143.3,426.5 148.36,426.5 " fill="none" id="GameObject-MoveableObject" style="stroke: #A80036; stroke-width: 1.0;"/><polygon fill="none" points="133.04,433.5,113.04,426.5,133.04,419.5,133.04,433.5" style="stroke: #A80036; stroke-width: 1.0;"/><!--link MoveableObject to Obstacle--><path d="M234.4,384.49 C251.41,355.41 278.43,319 314,302 C354.45,282.67 1081.81,280.23 1121,302 C1159.51,323.39 1181.36,372.72 1191.49,402.47 " fill="none" id="MoveableObject-Obstacle" style="stroke: #A80036; stroke-width: 1.0;"/><polygon fill="none" points="240.41,388.08,224.67,402.26,228.13,381.35,240.41,388.08" style="stroke: #A80036; stroke-width: 1.0;"/><!--link CollisionObject to Obstacle--><path d="M394.07,384.13 C409.99,355.16 435.49,319.02 470,302 C534.87,270 1057.77,266.88 1121,302 C1159.51,323.39 1181.36,372.72 1191.49,402.47 " fill="none" id="CollisionObject-Obstacle" style="stroke: #A80036; stroke-width: 1.0;"/><polygon fill="none" points="400.12,387.68,384.78,402.3,387.65,381.3,400.12,387.68" style="stroke: #A80036; stroke-width: 1.0;"/><!--link Obstacle to ObstacleBranch--><path d="M1212.98,383.55 C1225.17,354.84 1245.7,319.27 1277,302 C1334.4,270.33 1512.85,273.73 1572,302 C1615.36,322.72 1646.01,372.29 1661.33,402.26 " fill="none" id="Obstacle-ObstacleBranch" style="stroke: #A80036; stroke-width: 1.0;"/><polygon fill="none" points="1219.42,386.31,1205.7,402.46,1206.36,381.28,1219.42,386.31" style="stroke: #A80036; stroke-width: 1.0;"/><!--link Obstacle to ObstacleDuck--><path d="M1212.98,383.55 C1225.17,354.84 1245.7,319.27 1277,302 C1332.26,271.52 1362.54,273.79 1419,302 C1460.83,322.9 1488.83,372.41 1502.58,402.32 " fill="none" id="Obstacle-ObstacleDuck" style="stroke: #A80036; stroke-width: 1.0;"/><polygon fill="none" points="1219.42,386.31,1205.7,402.46,1206.36,381.28,1219.42,386.31" style="stroke: #A80036; stroke-width: 1.0;"/><!--link ObstacleBranch to ObstacleFloatingBranch--><path d="M1758.25,426.5 C1763.14,426.5 1768.03,426.5 1772.92,426.5 " fill="none" id="ObstacleBranch-ObstacleFloatingBranch" style="stroke: #A80036; stroke-width: 1.0;"/><polygon fill="none" points="1758.16,433.5,1738.16,426.5,1758.16,419.5,1758.16,433.5" style="stroke: #A80036; stroke-width: 1.0;"/><!--link Obstacle to ObstacleLaneWall--><path d="M1261.43,426.5 C1266.33,426.5 1271.23,426.5 1276.13,426.5 " fill="none" id="Obstacle-ObstacleLaneWall" style="stroke: #A80036; stroke-width: 1.0;"/><polygon fill="none" points="1261.28,433.5,1241.28,426.5,1261.28,419.5,1261.28,433.5" style="stroke: #A80036; stroke-width: 1.0;"/><!--link MoveableObject to Boat--><path d="M234.4,384.49 C251.41,355.41 278.43,319 314,302 C362.52,278.81 385.62,280.7 435,302 C451.37,309.06 466.53,319.65 480.13,331.73 " fill="none" id="MoveableObject-Boat" style="stroke: #A80036; stroke-width: 1.0;"/><polygon fill="none" points="240.41,388.08,224.67,402.26,228.13,381.35,240.41,388.08" style="stroke: #A80036; stroke-width: 1.0;"/><!--link CollisionObject to Boat--><path d="M455.45,426.5 C460.34,426.5 465.23,426.5 470.12,426.5 " fill="none" id="CollisionObject-Boat" style="stroke: #A80036; stroke-width: 1.0;"/><polygon fill="none" points="455.34,433.5,435.34,426.5,455.34,419.5,455.34,433.5" style="stroke: #A80036; stroke-width: 1.0;"/><!--link Boat to PlayerBoat--><path d="M640.46,319.13 C649.76,312.35 659.64,306.47 670,302 C734.69,274.1 924.75,269.02 987,302 C1026.93,323.16 1051.48,372.58 1063.21,402.4 " fill="none" id="Boat-PlayerBoat" style="stroke: #A80036; stroke-width: 1.0;"/><polygon fill="none" points="644.82,324.61,624.87,331.73,636.02,313.72,644.82,324.61" style="stroke: #A80036; stroke-width: 1.0;"/><!--link Boat to AIBoat--><path d="M654.89,426.5 C659.64,426.5 664.4,426.5 669.15,426.5 " fill="none" id="Boat-AIBoat" style="stroke: #A80036; stroke-width: 1.0;"/><polygon fill="none" points="654.71,433.5,634.71,426.5,654.71,419.5,654.71,433.5" style="stroke: #A80036; stroke-width: 1.0;"/><!--link Scene to SceneMainGame--><path d="M438.73,102.93 C448.29,95.99 458.96,89.74 470,86 C572.7,51.19 852.68,60.18 958,86 C982.01,91.89 1006.65,104.43 1025.85,115.94 " fill="none" id="Scene-SceneMainGame" style="stroke: #A80036; stroke-width: 1.0;"/><polygon fill="none" points="442.84,108.61,422.9,115.78,434.01,97.74,442.84,108.61" style="stroke: #A80036; stroke-width: 1.0;"/><!--link Scene to SceneOptionsMenu--><path d="M438.73,102.93 C448.29,95.99 458.96,89.74 470,86 C595.85,43.34 639.42,56.51 769,86 C794.77,91.86 821.53,104.4 842.48,115.92 " fill="none" id="Scene-SceneOptionsMenu" style="stroke: #A80036; stroke-width: 1.0;"/><polygon fill="none" points="442.84,108.61,422.9,115.78,434.01,97.74,442.84,108.61" style="stroke: #A80036; stroke-width: 1.0;"/><!--link Scene to SceneStartScreen--><path d="M438.73,102.93 C448.29,95.99 458.96,89.74 470,86 C519.67,69.16 536.95,74 588,86 C612.99,91.87 638.8,104.41 658.98,115.93 " fill="none" id="Scene-SceneStartScreen" style="stroke: #A80036; stroke-width: 1.0;"/><polygon fill="none" points="442.84,108.61,422.9,115.78,434.01,97.74,442.84,108.61" style="stroke: #A80036; stroke-width: 1.0;"/><!--link Scene to SceneTutorial--><path d="M455.25,140 C460.32,140 465.39,140 470.47,140 " fill="none" id="Scene-SceneTutorial" style="stroke: #A80036; stroke-width: 1.0;"/><polygon fill="none" points="455.05,147,435.05,140,455.05,133,455.05,147" style="stroke: #A80036; stroke-width: 1.0;"/><!--link PixelBoat to SceneMainGame--><path d="M845.67,55.2 C891.45,72.97 955.46,97.83 1001.87,115.85 " fill="none" id="PixelBoat-SceneMainGame" style="stroke: #A80036; stroke-width: 1.0;"/><polygon fill="#A80036" points="833.27,50.39,837.4169,56.2894,844.4575,54.7304,840.3106,48.831,833.27,50.39" style="stroke: #A80036; stroke-width: 1.0;"/><text fill="#000000" font-family="sans-serif" font-size="13" lengthAdjust="spacingAndGlyphs" textLength="8" x="841.0427" y="49.2031">1</text><text fill="#000000" font-family="sans-serif" font-size="13" lengthAdjust="spacingAndGlyphs" textLength="8" x="977.5648" y="104.8236">1</text><!--link PixelBoat to SceneOptionsMenu--><path d="M817.53,66.08 C831.64,82.17 848.27,101.13 861.04,115.68 " fill="none" id="PixelBoat-SceneOptionsMenu" style="stroke: #A80036; stroke-width: 1.0;"/><polygon fill="#A80036" points="808.68,56,809.6296,63.1483,816.5933,65.0211,815.6437,57.8728,808.68,56" style="stroke: #A80036; stroke-width: 1.0;"/><text fill="#000000" font-family="sans-serif" font-size="13" lengthAdjust="spacingAndGlyphs" textLength="8" x="804.8261" y="76.1558">1</text><text fill="#000000" font-family="sans-serif" font-size="13" lengthAdjust="spacingAndGlyphs" textLength="8" x="847.0779" y="105.007">1</text><!--link PixelBoat to SceneStartScreen--><path d="M759.79,66.08 C745.82,82.17 729.37,101.13 716.74,115.68 " fill="none" id="PixelBoat-SceneStartScreen" style="stroke: #A80036; stroke-width: 1.0;"/><polygon fill="#A80036" points="768.54,56,761.5867,57.9109,760.6763,65.0643,767.6296,63.1534,768.54,56" style="stroke: #A80036; stroke-width: 1.0;"/><text fill="#000000" font-family="sans-serif" font-size="13" lengthAdjust="spacingAndGlyphs" textLength="8" x="754.4002" y="76.1558">1</text><text fill="#000000" font-family="sans-serif" font-size="13" lengthAdjust="spacingAndGlyphs" textLength="8" x="712.6985" y="105.007">1</text><!--link PixelBoat to SceneTutorial--><path d="M731.68,56.26 C688.46,73.94 629.27,98.17 586.1,115.84 " fill="none" id="PixelBoat-SceneTutorial" style="stroke: #A80036; stroke-width: 1.0;"/><polygon fill="#A80036" points="743.98,51.22,736.9114,49.7935,732.876,55.7698,739.9446,57.1962,743.98,51.22" style="stroke: #A80036; stroke-width: 1.0;"/><text fill="#000000" font-family="sans-serif" font-size="13" lengthAdjust="spacingAndGlyphs" textLength="8" x="727.9439" y="50.239">1</text><text fill="#000000" font-family="sans-serif" font-size="13" lengthAdjust="spacingAndGlyphs" textLength="8" x="591.5788" y="104.811">1</text><!--link BoatRace to Obstacle--><path d="M1094.64,282 C1108.79,296.76 1125.1,314.71 1138.5,332 C1156.22,354.87 1173.77,383.04 1185.27,402.45 " fill="none" id="BoatRace-Obstacle" style="stroke: #A80036; stroke-width: 1.0;"/><polygon fill="#A80036" points="1085.25,272.33,1086.5597,279.4212,1093.6091,280.9396,1092.2994,273.8484,1085.25,272.33" style="stroke: #A80036; stroke-width: 1.0;"/><text fill="#000000" font-family="sans-serif" font-size="13" lengthAdjust="spacingAndGlyphs" textLength="8" x="1082.0641" y="292.1716">1</text><text fill="#000000" font-family="sans-serif" font-size="13" lengthAdjust="spacingAndGlyphs" textLength="23" x="1155.9329" y="391.4492">0..*</text><!--link SceneMainGame to BoatRace--><path d="M1061.5,177.34 C1061.5,192.68 1061.5,210.1 1061.5,223.68 " fill="none" id="SceneMainGame-BoatRace" style="stroke: #A80036; stroke-width: 1.0;"/><polygon fill="#A80036" points="1061.5,164,1057.5,170,1061.5,176,1065.5,170,1061.5,164" style="stroke: #A80036; stroke-width: 1.0;"/><text fill="#000000" font-family="sans-serif" font-size="13" lengthAdjust="spacingAndGlyphs" textLength="8" x="1052.475" y="184.1558">1</text><text fill="#000000" font-family="sans-serif" font-size="13" lengthAdjust="spacingAndGlyphs" textLength="8" x="1052.525" y="213.007">1</text><!--link SceneMainGame to ResultsScreen--><path d="M1102.77,171.81 C1124.94,188.36 1151.84,208.44 1172.26,223.68 " fill="none" id="SceneMainGame-ResultsScreen" style="stroke: #A80036; stroke-width: 1.0;"/><polygon fill="#A80036" points="1092.31,164,1094.7264,170.7942,1101.9274,171.1768,1099.5109,164.3826,1092.31,164" style="stroke: #A80036; stroke-width: 1.0;"/><text fill="#000000" font-family="sans-serif" font-size="13" lengthAdjust="spacingAndGlyphs" textLength="8" x="1091.1801" y="184.1558">1</text><text fill="#000000" font-family="sans-serif" font-size="13" lengthAdjust="spacingAndGlyphs" textLength="8" x="1155.6703" y="213.007">1</text><!--link SceneMainGame to Boat--><path d="M984.12,168.68 C898.9,201.04 759.76,259.5 652.5,332 C646.49,336.06 640.5,340.48 634.6,345.11 " fill="none" id="SceneMainGame-Boat" style="stroke: #A80036; stroke-width: 1.0;"/><polygon fill="#A80036" points="996.55,164,989.5267,162.365,985.3162,168.2193,992.3395,169.8542,996.55,164" style="stroke: #A80036; stroke-width: 1.0;"/><text fill="#000000" font-family="sans-serif" font-size="13" lengthAdjust="spacingAndGlyphs" textLength="8" x="977.5611" y="181.0978">1</text><text fill="#000000" font-family="sans-serif" font-size="13" lengthAdjust="spacingAndGlyphs" textLength="23" x="642.6438" y="334.55">0..*</text><!--link CollisionObject to CollisionBounds--><path d="M374.5,464.03 C374.5,499.16 374.5,551.19 374.5,580.92 " fill="none" id="CollisionObject-CollisionBounds" style="stroke: #A80036; stroke-width: 1.0;"/><polygon fill="#A80036" points="374.5,450.57,370.5,456.57,374.5,462.57,378.5,456.57,374.5,450.57" style="stroke: #A80036; stroke-width: 1.0;"/><text fill="#000000" font-family="sans-serif" font-size="13" lengthAdjust="spacingAndGlyphs" textLength="8" x="365.475" y="470.7437">1</text><text fill="#000000" font-family="sans-serif" font-size="13" lengthAdjust="spacingAndGlyphs" textLength="8" x="365.475" y="569.9115">1</text><!--
@startuml

class AIBoat
abstract class Boat
class BoatRace
class CollisionBounds
interface CollisionObject
abstract class GameObject
abstract class MoveableObject
abstract class Obstacle
class ObstacleBranch
class ObstacleDuck
class ObstacleFloatingBranch
class ObstacleLaneWall
class PixelBoat
class PlayerBoat
class ResultsScreen
interface Scene
class SceneMainGame
class SceneOptionsMenu
class SceneStartScreen
class SceneTutorial



GameObject <|- MoveableObject

MoveableObject <|- Obstacle
CollisionObject <|- Obstacle
Obstacle <|- ObstacleBranch
Obstacle <|- ObstacleDuck
ObstacleBranch <|- ObstacleFloatingBranch
Obstacle <|- ObstacleLaneWall

MoveableObject <|- Boat
CollisionObject <|- Boat
Boat <|- PlayerBoat
Boat <|- AIBoat

Scene <|- SceneMainGame
Scene <|- SceneOptionsMenu
Scene <|- SceneStartScreen
Scene <|- SceneTutorial



PixelBoat "1" *- - "1" SceneMainGame
PixelBoat "1" *- - "1" SceneOptionsMenu
PixelBoat "1" *- - "1" SceneStartScreen
PixelBoat "1" *- - "1" SceneTutorial

BoatRace "1" *- - "0..*" Obstacle

SceneMainGame "1" *- - "1" BoatRace
SceneMainGame "1" *- - "1" ResultsScreen
SceneMainGame "1" *- - "0..*" Boat

CollisionObject "1" *- - "1" CollisionBounds

class AIBoat{
  #numberOfRays:Float
  #rangeAngleRange:Float
  #rayAngle:Foat
  #rayStepSize:Float
  #regen:Boolean
  
  updatePosition(obstacles:CollisionObject[0..*]):Void
  isShown():Boolean
  #getRayFirePoint():Vector2
  #checkTurn(obstacles:CollisionObject[0..*]):Void
}

abstract class Boat{
  #name:String
  #durability:Float
  #durabilityPerHit:Float
  #stamina:Float
  #staminaUsage:Float
  #staminaRegen:Float
  #legTimes:Integer[0..4]
  #startTime:Integer
  #endTime:Integer
  #hasFinishedLeg:Boolean
  #hasStartedLeg:Boolean
}

@enduml

PlantUML version 1.2018.13(Mon Nov 26 17:11:51 GMT 2018)
(GPL source distribution)
Java Runtime: OpenJDK Runtime Environment
JVM: OpenJDK 64-Bit Server VM
Java Version: 11.0.9+11-Ubuntu-0ubuntu1.20.04
Operating System: Linux
OS Version: 4.19.128-microsoft-standard
Default Encoding: UTF-8
Language: en
Country: null
--></g></svg>