<?xml version="1.0" encoding="UTF-8" standalone="no"?><svg xmlns="http://www.w3.org/2000/svg" xmlns:xlink="http://www.w3.org/1999/xlink" contentScriptType="application/ecmascript" contentStyleType="text/css" height="391px" preserveAspectRatio="none" style="width:1429px;height:391px;" version="1.1" viewBox="0 0 1429 391" width="1429px" zoomAndPan="magnify"><defs><filter height="300%" id="fxu1mfrqd7tsn" width="300%" x="-1" y="-1"><feGaussianBlur result="blurOut" stdDeviation="2.0"/><feColorMatrix in="blurOut" result="blurOut2" type="matrix" values="0 0 0 0 0 0 0 0 0 0 0 0 0 0 0 0 0 0 .4 0"/><feOffset dx="4.0" dy="4.0" in="blurOut2" result="blurOut3"/><feBlend in="SourceGraphic" in2="blurOut3" mode="normal"/></filter></defs><g><!--class AIBoat--><rect fill="#FEFECE" filter="url(#fxu1mfrqd7tsn)" height="48" id="AIBoat" style="stroke: #A80036; stroke-width: 1.5;" width="72" x="41" y="8"/><ellipse cx="56" cy="24" fill="#ADD1B2" rx="11" ry="11" style="stroke: #A80036; stroke-width: 1.0;"/><path d="M58.9688,29.6406 Q58.3906,29.9375 57.75,30.0781 Q57.1094,30.2344 56.4063,30.2344 Q53.9063,30.2344 52.5781,28.5938 Q51.2656,26.9375 51.2656,23.8125 Q51.2656,20.6875 52.5781,19.0313 Q53.9063,17.375 56.4063,17.375 Q57.1094,17.375 57.75,17.5313 Q58.4063,17.6875 58.9688,17.9844 L58.9688,20.7031 Q58.3438,20.125 57.75,19.8594 Q57.1563,19.5781 56.5313,19.5781 Q55.1875,19.5781 54.5,20.6563 Q53.8125,21.7188 53.8125,23.8125 Q53.8125,25.9063 54.5,26.9844 Q55.1875,28.0469 56.5313,28.0469 Q57.1563,28.0469 57.75,27.7813 Q58.3438,27.5 58.9688,26.9219 L58.9688,29.6406 Z "/><text fill="#000000" font-family="sans-serif" font-size="12" lengthAdjust="spacingAndGlyphs" textLength="40" x="70" y="28.1543">AIBoat</text><line style="stroke: #A80036; stroke-width: 1.5;" x1="42" x2="112" y1="40" y2="40"/><line style="stroke: #A80036; stroke-width: 1.5;" x1="42" x2="112" y1="48" y2="48"/><!--class Boat--><rect fill="#FEFECE" filter="url(#fxu1mfrqd7tsn)" height="48" id="Boat" style="stroke: #A80036; stroke-width: 1.5;" width="61" x="471.5" y="224"/><ellipse cx="486.5" cy="240" fill="#A9DCDF" rx="11" ry="11" style="stroke: #A80036; stroke-width: 1.0;"/><path d="M486.6094,235.3438 L485.4531,240.4219 L487.7813,240.4219 L486.6094,235.3438 Z M485.125,233.1094 L488.1094,233.1094 L491.4688,245.5 L489.0156,245.5 L488.25,242.4375 L484.9688,242.4375 L484.2188,245.5 L481.7813,245.5 L485.125,233.1094 Z "/><text fill="#000000" font-family="sans-serif" font-size="12" font-style="italic" lengthAdjust="spacingAndGlyphs" textLength="29" x="500.5" y="244.1543">Boat</text><line style="stroke: #A80036; stroke-width: 1.5;" x1="472.5" x2="531.5" y1="256" y2="256"/><line style="stroke: #A80036; stroke-width: 1.5;" x1="472.5" x2="531.5" y1="264" y2="264"/><!--class BoatRace--><rect fill="#FEFECE" filter="url(#fxu1mfrqd7tsn)" height="48" id="BoatRace" style="stroke: #A80036; stroke-width: 1.5;" width="92" x="568" y="224"/><ellipse cx="583" cy="240" fill="#ADD1B2" rx="11" ry="11" style="stroke: #A80036; stroke-width: 1.0;"/><path d="M585.9688,245.6406 Q585.3906,245.9375 584.75,246.0781 Q584.1094,246.2344 583.4063,246.2344 Q580.9063,246.2344 579.5781,244.5938 Q578.2656,242.9375 578.2656,239.8125 Q578.2656,236.6875 579.5781,235.0313 Q580.9063,233.375 583.4063,233.375 Q584.1094,233.375 584.75,233.5313 Q585.4063,233.6875 585.9688,233.9844 L585.9688,236.7031 Q585.3438,236.125 584.75,235.8594 Q584.1563,235.5781 583.5313,235.5781 Q582.1875,235.5781 581.5,236.6563 Q580.8125,237.7188 580.8125,239.8125 Q580.8125,241.9063 581.5,242.9844 Q582.1875,244.0469 583.5313,244.0469 Q584.1563,244.0469 584.75,243.7813 Q585.3438,243.5 585.9688,242.9219 L585.9688,245.6406 Z "/><text fill="#000000" font-family="sans-serif" font-size="12" lengthAdjust="spacingAndGlyphs" textLength="60" x="597" y="244.1543">BoatRace</text><line style="stroke: #A80036; stroke-width: 1.5;" x1="569" x2="659" y1="256" y2="256"/><line style="stroke: #A80036; stroke-width: 1.5;" x1="569" x2="659" y1="264" y2="264"/><!--class CollisionBounds--><rect fill="#FEFECE" filter="url(#fxu1mfrqd7tsn)" height="48" id="CollisionBounds" style="stroke: #A80036; stroke-width: 1.5;" width="130" x="1288" y="116"/><ellipse cx="1303" cy="132" fill="#ADD1B2" rx="11" ry="11" style="stroke: #A80036; stroke-width: 1.0;"/><path d="M1305.9688,137.6406 Q1305.3906,137.9375 1304.75,138.0781 Q1304.1094,138.2344 1303.4063,138.2344 Q1300.9063,138.2344 1299.5781,136.5938 Q1298.2656,134.9375 1298.2656,131.8125 Q1298.2656,128.6875 1299.5781,127.0313 Q1300.9063,125.375 1303.4063,125.375 Q1304.1094,125.375 1304.75,125.5313 Q1305.4063,125.6875 1305.9688,125.9844 L1305.9688,128.7031 Q1305.3438,128.125 1304.75,127.8594 Q1304.1563,127.5781 1303.5313,127.5781 Q1302.1875,127.5781 1301.5,128.6563 Q1300.8125,129.7188 1300.8125,131.8125 Q1300.8125,133.9063 1301.5,134.9844 Q1302.1875,136.0469 1303.5313,136.0469 Q1304.1563,136.0469 1304.75,135.7813 Q1305.3438,135.5 1305.9688,134.9219 L1305.9688,137.6406 Z "/><text fill="#000000" font-family="sans-serif" font-size="12" lengthAdjust="spacingAndGlyphs" textLength="98" x="1317" y="136.1543">CollisionBounds</text><line style="stroke: #A80036; stroke-width: 1.5;" x1="1289" x2="1417" y1="148" y2="148"/><line style="stroke: #A80036; stroke-width: 1.5;" x1="1289" x2="1417" y1="156" y2="156"/><!--class CollisionObject--><rect fill="#FEFECE" filter="url(#fxu1mfrqd7tsn)" height="48" id="CollisionObject" style="stroke: #A80036; stroke-width: 1.5;" width="121" x="1292.5" y="8"/><ellipse cx="1307.5" cy="24" fill="#B4A7E5" rx="11" ry="11" style="stroke: #A80036; stroke-width: 1.0;"/><path d="M1303.4219,19.7656 L1303.4219,17.6094 L1310.8125,17.6094 L1310.8125,19.7656 L1308.3438,19.7656 L1308.3438,27.8438 L1310.8125,27.8438 L1310.8125,30 L1303.4219,30 L1303.4219,27.8438 L1305.8906,27.8438 L1305.8906,19.7656 L1303.4219,19.7656 Z "/><text fill="#000000" font-family="sans-serif" font-size="12" font-style="italic" lengthAdjust="spacingAndGlyphs" textLength="89" x="1321.5" y="28.1543">CollisionObject</text><line style="stroke: #A80036; stroke-width: 1.5;" x1="1293.5" x2="1412.5" y1="40" y2="40"/><line style="stroke: #A80036; stroke-width: 1.5;" x1="1293.5" x2="1412.5" y1="48" y2="48"/><!--class GameObject--><rect fill="#FEFECE" filter="url(#fxu1mfrqd7tsn)" height="48" id="GameObject" style="stroke: #A80036; stroke-width: 1.5;" width="107" x="148.5" y="8"/><ellipse cx="163.5" cy="24" fill="#A9DCDF" rx="11" ry="11" style="stroke: #A80036; stroke-width: 1.0;"/><path d="M163.6094,19.3438 L162.4531,24.4219 L164.7813,24.4219 L163.6094,19.3438 Z M162.125,17.1094 L165.1094,17.1094 L168.4688,29.5 L166.0156,29.5 L165.25,26.4375 L161.9688,26.4375 L161.2188,29.5 L158.7813,29.5 L162.125,17.1094 Z "/><text fill="#000000" font-family="sans-serif" font-size="12" font-style="italic" lengthAdjust="spacingAndGlyphs" textLength="75" x="177.5" y="28.1543">GameObject</text><line style="stroke: #A80036; stroke-width: 1.5;" x1="149.5" x2="254.5" y1="40" y2="40"/><line style="stroke: #A80036; stroke-width: 1.5;" x1="149.5" x2="254.5" y1="48" y2="48"/><!--class MoveableObject--><rect fill="#FEFECE" filter="url(#fxu1mfrqd7tsn)" height="48" id="MoveableObject" style="stroke: #A80036; stroke-width: 1.5;" width="130" x="291" y="8"/><ellipse cx="306" cy="24" fill="#A9DCDF" rx="11" ry="11" style="stroke: #A80036; stroke-width: 1.0;"/><path d="M306.1094,19.3438 L304.9531,24.4219 L307.2813,24.4219 L306.1094,19.3438 Z M304.625,17.1094 L307.6094,17.1094 L310.9688,29.5 L308.5156,29.5 L307.75,26.4375 L304.4688,26.4375 L303.7188,29.5 L301.2813,29.5 L304.625,17.1094 Z "/><text fill="#000000" font-family="sans-serif" font-size="12" font-style="italic" lengthAdjust="spacingAndGlyphs" textLength="98" x="320" y="28.1543">MoveableObject</text><line style="stroke: #A80036; stroke-width: 1.5;" x1="292" x2="420" y1="40" y2="40"/><line style="stroke: #A80036; stroke-width: 1.5;" x1="292" x2="420" y1="48" y2="48"/><!--class Obstacle--><rect fill="#FEFECE" filter="url(#fxu1mfrqd7tsn)" height="48" id="Obstacle" style="stroke: #A80036; stroke-width: 1.5;" width="85" x="571.5" y="332"/><ellipse cx="586.5" cy="348" fill="#A9DCDF" rx="11" ry="11" style="stroke: #A80036; stroke-width: 1.0;"/><path d="M586.6094,343.3438 L585.4531,348.4219 L587.7813,348.4219 L586.6094,343.3438 Z M585.125,341.1094 L588.1094,341.1094 L591.4688,353.5 L589.0156,353.5 L588.25,350.4375 L584.9688,350.4375 L584.2188,353.5 L581.7813,353.5 L585.125,341.1094 Z "/><text fill="#000000" font-family="sans-serif" font-size="12" font-style="italic" lengthAdjust="spacingAndGlyphs" textLength="53" x="600.5" y="352.1543">Obstacle</text><line style="stroke: #A80036; stroke-width: 1.5;" x1="572.5" x2="655.5" y1="364" y2="364"/><line style="stroke: #A80036; stroke-width: 1.5;" x1="572.5" x2="655.5" y1="372" y2="372"/><!--class ObstacleBranch--><rect fill="#FEFECE" filter="url(#fxu1mfrqd7tsn)" height="48" id="ObstacleBranch" style="stroke: #A80036; stroke-width: 1.5;" width="131" x="11.5" y="116"/><ellipse cx="26.5" cy="132" fill="#ADD1B2" rx="11" ry="11" style="stroke: #A80036; stroke-width: 1.0;"/><path d="M29.4688,137.6406 Q28.8906,137.9375 28.25,138.0781 Q27.6094,138.2344 26.9063,138.2344 Q24.4063,138.2344 23.0781,136.5938 Q21.7656,134.9375 21.7656,131.8125 Q21.7656,128.6875 23.0781,127.0313 Q24.4063,125.375 26.9063,125.375 Q27.6094,125.375 28.25,125.5313 Q28.9063,125.6875 29.4688,125.9844 L29.4688,128.7031 Q28.8438,128.125 28.25,127.8594 Q27.6563,127.5781 27.0313,127.5781 Q25.6875,127.5781 25,128.6563 Q24.3125,129.7188 24.3125,131.8125 Q24.3125,133.9063 25,134.9844 Q25.6875,136.0469 27.0313,136.0469 Q27.6563,136.0469 28.25,135.7813 Q28.8438,135.5 29.4688,134.9219 L29.4688,137.6406 Z "/><text fill="#000000" font-family="sans-serif" font-size="12" lengthAdjust="spacingAndGlyphs" textLength="99" x="40.5" y="136.1543">ObstacleBranch</text><line style="stroke: #A80036; stroke-width: 1.5;" x1="12.5" x2="141.5" y1="148" y2="148"/><line style="stroke: #A80036; stroke-width: 1.5;" x1="12.5" x2="141.5" y1="156" y2="156"/><!--class ObstacleDuck--><rect fill="#FEFECE" filter="url(#fxu1mfrqd7tsn)" height="48" id="ObstacleDuck" style="stroke: #A80036; stroke-width: 1.5;" width="118" x="178" y="116"/><ellipse cx="193" cy="132" fill="#ADD1B2" rx="11" ry="11" style="stroke: #A80036; stroke-width: 1.0;"/><path d="M195.9688,137.6406 Q195.3906,137.9375 194.75,138.0781 Q194.1094,138.2344 193.4063,138.2344 Q190.9063,138.2344 189.5781,136.5938 Q188.2656,134.9375 188.2656,131.8125 Q188.2656,128.6875 189.5781,127.0313 Q190.9063,125.375 193.4063,125.375 Q194.1094,125.375 194.75,125.5313 Q195.4063,125.6875 195.9688,125.9844 L195.9688,128.7031 Q195.3438,128.125 194.75,127.8594 Q194.1563,127.5781 193.5313,127.5781 Q192.1875,127.5781 191.5,128.6563 Q190.8125,129.7188 190.8125,131.8125 Q190.8125,133.9063 191.5,134.9844 Q192.1875,136.0469 193.5313,136.0469 Q194.1563,136.0469 194.75,135.7813 Q195.3438,135.5 195.9688,134.9219 L195.9688,137.6406 Z "/><text fill="#000000" font-family="sans-serif" font-size="12" lengthAdjust="spacingAndGlyphs" textLength="86" x="207" y="136.1543">ObstacleDuck</text><line style="stroke: #A80036; stroke-width: 1.5;" x1="179" x2="295" y1="148" y2="148"/><line style="stroke: #A80036; stroke-width: 1.5;" x1="179" x2="295" y1="156" y2="156"/><!--class ObstacleFloatingBranch--><rect fill="#FEFECE" filter="url(#fxu1mfrqd7tsn)" height="48" id="ObstacleFloatingBranch" style="stroke: #A80036; stroke-width: 1.5;" width="181" x="331.5" y="116"/><ellipse cx="346.5" cy="132" fill="#ADD1B2" rx="11" ry="11" style="stroke: #A80036; stroke-width: 1.0;"/><path d="M349.4688,137.6406 Q348.8906,137.9375 348.25,138.0781 Q347.6094,138.2344 346.9063,138.2344 Q344.4063,138.2344 343.0781,136.5938 Q341.7656,134.9375 341.7656,131.8125 Q341.7656,128.6875 343.0781,127.0313 Q344.4063,125.375 346.9063,125.375 Q347.6094,125.375 348.25,125.5313 Q348.9063,125.6875 349.4688,125.9844 L349.4688,128.7031 Q348.8438,128.125 348.25,127.8594 Q347.6563,127.5781 347.0313,127.5781 Q345.6875,127.5781 345,128.6563 Q344.3125,129.7188 344.3125,131.8125 Q344.3125,133.9063 345,134.9844 Q345.6875,136.0469 347.0313,136.0469 Q347.6563,136.0469 348.25,135.7813 Q348.8438,135.5 349.4688,134.9219 L349.4688,137.6406 Z "/><text fill="#000000" font-family="sans-serif" font-size="12" lengthAdjust="spacingAndGlyphs" textLength="149" x="360.5" y="136.1543">ObstacleFloatingBranch</text><line style="stroke: #A80036; stroke-width: 1.5;" x1="332.5" x2="511.5" y1="148" y2="148"/><line style="stroke: #A80036; stroke-width: 1.5;" x1="332.5" x2="511.5" y1="156" y2="156"/><!--class ObstacleLaneWall--><rect fill="#FEFECE" filter="url(#fxu1mfrqd7tsn)" height="48" id="ObstacleLaneWall" style="stroke: #A80036; stroke-width: 1.5;" width="142" x="6" y="224"/><ellipse cx="21" cy="240" fill="#ADD1B2" rx="11" ry="11" style="stroke: #A80036; stroke-width: 1.0;"/><path d="M23.9688,245.6406 Q23.3906,245.9375 22.75,246.0781 Q22.1094,246.2344 21.4063,246.2344 Q18.9063,246.2344 17.5781,244.5938 Q16.2656,242.9375 16.2656,239.8125 Q16.2656,236.6875 17.5781,235.0313 Q18.9063,233.375 21.4063,233.375 Q22.1094,233.375 22.75,233.5313 Q23.4063,233.6875 23.9688,233.9844 L23.9688,236.7031 Q23.3438,236.125 22.75,235.8594 Q22.1563,235.5781 21.5313,235.5781 Q20.1875,235.5781 19.5,236.6563 Q18.8125,237.7188 18.8125,239.8125 Q18.8125,241.9063 19.5,242.9844 Q20.1875,244.0469 21.5313,244.0469 Q22.1563,244.0469 22.75,243.7813 Q23.3438,243.5 23.9688,242.9219 L23.9688,245.6406 Z "/><text fill="#000000" font-family="sans-serif" font-size="12" lengthAdjust="spacingAndGlyphs" textLength="110" x="35" y="244.1543">ObstacleLaneWall</text><line style="stroke: #A80036; stroke-width: 1.5;" x1="7" x2="147" y1="256" y2="256"/><line style="stroke: #A80036; stroke-width: 1.5;" x1="7" x2="147" y1="264" y2="264"/><!--class PixelBoat--><rect fill="#FEFECE" filter="url(#fxu1mfrqd7tsn)" height="48" id="PixelBoat" style="stroke: #A80036; stroke-width: 1.5;" width="89" x="889.5" y="8"/><ellipse cx="904.5" cy="24" fill="#ADD1B2" rx="11" ry="11" style="stroke: #A80036; stroke-width: 1.0;"/><path d="M907.4688,29.6406 Q906.8906,29.9375 906.25,30.0781 Q905.6094,30.2344 904.9063,30.2344 Q902.4063,30.2344 901.0781,28.5938 Q899.7656,26.9375 899.7656,23.8125 Q899.7656,20.6875 901.0781,19.0313 Q902.4063,17.375 904.9063,17.375 Q905.6094,17.375 906.25,17.5313 Q906.9063,17.6875 907.4688,17.9844 L907.4688,20.7031 Q906.8438,20.125 906.25,19.8594 Q905.6563,19.5781 905.0313,19.5781 Q903.6875,19.5781 903,20.6563 Q902.3125,21.7188 902.3125,23.8125 Q902.3125,25.9063 903,26.9844 Q903.6875,28.0469 905.0313,28.0469 Q905.6563,28.0469 906.25,27.7813 Q906.8438,27.5 907.4688,26.9219 L907.4688,29.6406 Z "/><text fill="#000000" font-family="sans-serif" font-size="12" lengthAdjust="spacingAndGlyphs" textLength="57" x="918.5" y="28.1543">PixelBoat</text><line style="stroke: #A80036; stroke-width: 1.5;" x1="890.5" x2="977.5" y1="40" y2="40"/><line style="stroke: #A80036; stroke-width: 1.5;" x1="890.5" x2="977.5" y1="48" y2="48"/><!--class PlayerBoat--><rect fill="#FEFECE" filter="url(#fxu1mfrqd7tsn)" height="48" id="PlayerBoat" style="stroke: #A80036; stroke-width: 1.5;" width="99" x="183.5" y="224"/><ellipse cx="198.5" cy="240" fill="#ADD1B2" rx="11" ry="11" style="stroke: #A80036; stroke-width: 1.0;"/><path d="M201.4688,245.6406 Q200.8906,245.9375 200.25,246.0781 Q199.6094,246.2344 198.9063,246.2344 Q196.4063,246.2344 195.0781,244.5938 Q193.7656,242.9375 193.7656,239.8125 Q193.7656,236.6875 195.0781,235.0313 Q196.4063,233.375 198.9063,233.375 Q199.6094,233.375 200.25,233.5313 Q200.9063,233.6875 201.4688,233.9844 L201.4688,236.7031 Q200.8438,236.125 200.25,235.8594 Q199.6563,235.5781 199.0313,235.5781 Q197.6875,235.5781 197,236.6563 Q196.3125,237.7188 196.3125,239.8125 Q196.3125,241.9063 197,242.9844 Q197.6875,244.0469 199.0313,244.0469 Q199.6563,244.0469 200.25,243.7813 Q200.8438,243.5 201.4688,242.9219 L201.4688,245.6406 Z "/><text fill="#000000" font-family="sans-serif" font-size="12" lengthAdjust="spacingAndGlyphs" textLength="67" x="212.5" y="244.1543">PlayerBoat</text><line style="stroke: #A80036; stroke-width: 1.5;" x1="184.5" x2="281.5" y1="256" y2="256"/><line style="stroke: #A80036; stroke-width: 1.5;" x1="184.5" x2="281.5" y1="264" y2="264"/><!--class ResultsScreen--><rect fill="#FEFECE" filter="url(#fxu1mfrqd7tsn)" height="48" id="ResultsScreen" style="stroke: #A80036; stroke-width: 1.5;" width="122" x="695" y="224"/><ellipse cx="710" cy="240" fill="#ADD1B2" rx="11" ry="11" style="stroke: #A80036; stroke-width: 1.0;"/><path d="M712.9688,245.6406 Q712.3906,245.9375 711.75,246.0781 Q711.1094,246.2344 710.4063,246.2344 Q707.9063,246.2344 706.5781,244.5938 Q705.2656,242.9375 705.2656,239.8125 Q705.2656,236.6875 706.5781,235.0313 Q707.9063,233.375 710.4063,233.375 Q711.1094,233.375 711.75,233.5313 Q712.4063,233.6875 712.9688,233.9844 L712.9688,236.7031 Q712.3438,236.125 711.75,235.8594 Q711.1563,235.5781 710.5313,235.5781 Q709.1875,235.5781 708.5,236.6563 Q707.8125,237.7188 707.8125,239.8125 Q707.8125,241.9063 708.5,242.9844 Q709.1875,244.0469 710.5313,244.0469 Q711.1563,244.0469 711.75,243.7813 Q712.3438,243.5 712.9688,242.9219 L712.9688,245.6406 Z "/><text fill="#000000" font-family="sans-serif" font-size="12" lengthAdjust="spacingAndGlyphs" textLength="90" x="724" y="244.1543">ResultsScreen</text><line style="stroke: #A80036; stroke-width: 1.5;" x1="696" x2="816" y1="256" y2="256"/><line style="stroke: #A80036; stroke-width: 1.5;" x1="696" x2="816" y1="264" y2="264"/><!--class Scene--><rect fill="#FEFECE" filter="url(#fxu1mfrqd7tsn)" height="48" id="Scene" style="stroke: #A80036; stroke-width: 1.5;" width="71" x="317.5" y="224"/><ellipse cx="332.5" cy="240" fill="#B4A7E5" rx="11" ry="11" style="stroke: #A80036; stroke-width: 1.0;"/><path d="M328.4219,235.7656 L328.4219,233.6094 L335.8125,233.6094 L335.8125,235.7656 L333.3438,235.7656 L333.3438,243.8438 L335.8125,243.8438 L335.8125,246 L328.4219,246 L328.4219,243.8438 L330.8906,243.8438 L330.8906,235.7656 L328.4219,235.7656 Z "/><text fill="#000000" font-family="sans-serif" font-size="12" font-style="italic" lengthAdjust="spacingAndGlyphs" textLength="39" x="346.5" y="244.1543">Scene</text><line style="stroke: #A80036; stroke-width: 1.5;" x1="318.5" x2="387.5" y1="256" y2="256"/><line style="stroke: #A80036; stroke-width: 1.5;" x1="318.5" x2="387.5" y1="264" y2="264"/><!--class SceneMainGame--><rect fill="#FEFECE" filter="url(#fxu1mfrqd7tsn)" height="48" id="SceneMainGame" style="stroke: #A80036; stroke-width: 1.5;" width="136" x="594" y="116"/><ellipse cx="609" cy="132" fill="#ADD1B2" rx="11" ry="11" style="stroke: #A80036; stroke-width: 1.0;"/><path d="M611.9688,137.6406 Q611.3906,137.9375 610.75,138.0781 Q610.1094,138.2344 609.4063,138.2344 Q606.9063,138.2344 605.5781,136.5938 Q604.2656,134.9375 604.2656,131.8125 Q604.2656,128.6875 605.5781,127.0313 Q606.9063,125.375 609.4063,125.375 Q610.1094,125.375 610.75,125.5313 Q611.4063,125.6875 611.9688,125.9844 L611.9688,128.7031 Q611.3438,128.125 610.75,127.8594 Q610.1563,127.5781 609.5313,127.5781 Q608.1875,127.5781 607.5,128.6563 Q606.8125,129.7188 606.8125,131.8125 Q606.8125,133.9063 607.5,134.9844 Q608.1875,136.0469 609.5313,136.0469 Q610.1563,136.0469 610.75,135.7813 Q611.3438,135.5 611.9688,134.9219 L611.9688,137.6406 Z "/><text fill="#000000" font-family="sans-serif" font-size="12" lengthAdjust="spacingAndGlyphs" textLength="104" x="623" y="136.1543">SceneMainGame</text><line style="stroke: #A80036; stroke-width: 1.5;" x1="595" x2="729" y1="148" y2="148"/><line style="stroke: #A80036; stroke-width: 1.5;" x1="595" x2="729" y1="156" y2="156"/><!--class SceneOptionsMenu--><rect fill="#FEFECE" filter="url(#fxu1mfrqd7tsn)" height="48" id="SceneOptionsMenu" style="stroke: #A80036; stroke-width: 1.5;" width="153" x="765.5" y="116"/><ellipse cx="780.5" cy="132" fill="#ADD1B2" rx="11" ry="11" style="stroke: #A80036; stroke-width: 1.0;"/><path d="M783.4688,137.6406 Q782.8906,137.9375 782.25,138.0781 Q781.6094,138.2344 780.9063,138.2344 Q778.4063,138.2344 777.0781,136.5938 Q775.7656,134.9375 775.7656,131.8125 Q775.7656,128.6875 777.0781,127.0313 Q778.4063,125.375 780.9063,125.375 Q781.6094,125.375 782.25,125.5313 Q782.9063,125.6875 783.4688,125.9844 L783.4688,128.7031 Q782.8438,128.125 782.25,127.8594 Q781.6563,127.5781 781.0313,127.5781 Q779.6875,127.5781 779,128.6563 Q778.3125,129.7188 778.3125,131.8125 Q778.3125,133.9063 779,134.9844 Q779.6875,136.0469 781.0313,136.0469 Q781.6563,136.0469 782.25,135.7813 Q782.8438,135.5 783.4688,134.9219 L783.4688,137.6406 Z "/><text fill="#000000" font-family="sans-serif" font-size="12" lengthAdjust="spacingAndGlyphs" textLength="121" x="794.5" y="136.1543">SceneOptionsMenu</text><line style="stroke: #A80036; stroke-width: 1.5;" x1="766.5" x2="917.5" y1="148" y2="148"/><line style="stroke: #A80036; stroke-width: 1.5;" x1="766.5" x2="917.5" y1="156" y2="156"/><!--class SceneStartScreen--><rect fill="#FEFECE" filter="url(#fxu1mfrqd7tsn)" height="48" id="SceneStartScreen" style="stroke: #A80036; stroke-width: 1.5;" width="146" x="954" y="116"/><ellipse cx="969" cy="132" fill="#ADD1B2" rx="11" ry="11" style="stroke: #A80036; stroke-width: 1.0;"/><path d="M971.9688,137.6406 Q971.3906,137.9375 970.75,138.0781 Q970.1094,138.2344 969.4063,138.2344 Q966.9063,138.2344 965.5781,136.5938 Q964.2656,134.9375 964.2656,131.8125 Q964.2656,128.6875 965.5781,127.0313 Q966.9063,125.375 969.4063,125.375 Q970.1094,125.375 970.75,125.5313 Q971.4063,125.6875 971.9688,125.9844 L971.9688,128.7031 Q971.3438,128.125 970.75,127.8594 Q970.1563,127.5781 969.5313,127.5781 Q968.1875,127.5781 967.5,128.6563 Q966.8125,129.7188 966.8125,131.8125 Q966.8125,133.9063 967.5,134.9844 Q968.1875,136.0469 969.5313,136.0469 Q970.1563,136.0469 970.75,135.7813 Q971.3438,135.5 971.9688,134.9219 L971.9688,137.6406 Z "/><text fill="#000000" font-family="sans-serif" font-size="12" lengthAdjust="spacingAndGlyphs" textLength="114" x="983" y="136.1543">SceneStartScreen</text><line style="stroke: #A80036; stroke-width: 1.5;" x1="955" x2="1099" y1="148" y2="148"/><line style="stroke: #A80036; stroke-width: 1.5;" x1="955" x2="1099" y1="156" y2="156"/><!--class SceneTutorial--><rect fill="#FEFECE" filter="url(#fxu1mfrqd7tsn)" height="48" id="SceneTutorial" style="stroke: #A80036; stroke-width: 1.5;" width="118" x="1135" y="116"/><ellipse cx="1150" cy="132" fill="#ADD1B2" rx="11" ry="11" style="stroke: #A80036; stroke-width: 1.0;"/><path d="M1152.9688,137.6406 Q1152.3906,137.9375 1151.75,138.0781 Q1151.1094,138.2344 1150.4063,138.2344 Q1147.9063,138.2344 1146.5781,136.5938 Q1145.2656,134.9375 1145.2656,131.8125 Q1145.2656,128.6875 1146.5781,127.0313 Q1147.9063,125.375 1150.4063,125.375 Q1151.1094,125.375 1151.75,125.5313 Q1152.4063,125.6875 1152.9688,125.9844 L1152.9688,128.7031 Q1152.3438,128.125 1151.75,127.8594 Q1151.1563,127.5781 1150.5313,127.5781 Q1149.1875,127.5781 1148.5,128.6563 Q1147.8125,129.7188 1147.8125,131.8125 Q1147.8125,133.9063 1148.5,134.9844 Q1149.1875,136.0469 1150.5313,136.0469 Q1151.1563,136.0469 1151.75,135.7813 Q1152.3438,135.5 1152.9688,134.9219 L1152.9688,137.6406 Z "/><text fill="#000000" font-family="sans-serif" font-size="12" lengthAdjust="spacingAndGlyphs" textLength="86" x="1164" y="136.1543">SceneTutorial</text><line style="stroke: #A80036; stroke-width: 1.5;" x1="1136" x2="1252" y1="148" y2="148"/><line style="stroke: #A80036; stroke-width: 1.5;" x1="1136" x2="1252" y1="156" y2="156"/><!--class RaceThread--><rect fill="#FEFECE" filter="url(#fxu1mfrqd7tsn)" height="48" id="RaceThread" style="stroke: #A80036; stroke-width: 1.5;" width="107" x="852.5" y="224"/><ellipse cx="867.5" cy="240" fill="#ADD1B2" rx="11" ry="11" style="stroke: #A80036; stroke-width: 1.0;"/><path d="M870.4688,245.6406 Q869.8906,245.9375 869.25,246.0781 Q868.6094,246.2344 867.9063,246.2344 Q865.4063,246.2344 864.0781,244.5938 Q862.7656,242.9375 862.7656,239.8125 Q862.7656,236.6875 864.0781,235.0313 Q865.4063,233.375 867.9063,233.375 Q868.6094,233.375 869.25,233.5313 Q869.9063,233.6875 870.4688,233.9844 L870.4688,236.7031 Q869.8438,236.125 869.25,235.8594 Q868.6563,235.5781 868.0313,235.5781 Q866.6875,235.5781 866,236.6563 Q865.3125,237.7188 865.3125,239.8125 Q865.3125,241.9063 866,242.9844 Q866.6875,244.0469 868.0313,244.0469 Q868.6563,244.0469 869.25,243.7813 Q869.8438,243.5 870.4688,242.9219 L870.4688,245.6406 Z "/><text fill="#000000" font-family="sans-serif" font-size="12" lengthAdjust="spacingAndGlyphs" textLength="75" x="881.5" y="244.1543">RaceThread</text><line style="stroke: #A80036; stroke-width: 1.5;" x1="853.5" x2="958.5" y1="256" y2="256"/><line style="stroke: #A80036; stroke-width: 1.5;" x1="853.5" x2="958.5" y1="264" y2="264"/><!--link PixelBoat to SceneMainGame--><path d="M877.04,55.2 C831.43,72.97 767.65,97.83 721.41,115.85 " fill="none" id="PixelBoat-SceneMainGame" style="stroke: #A80036; stroke-width: 1.0;"/><polygon fill="#A80036" points="889.39,50.39,882.3456,48.8483,878.2131,54.7578,885.2575,56.2995,889.39,50.39" style="stroke: #A80036; stroke-width: 1.0;"/><text fill="#000000" font-family="sans-serif" font-size="13" lengthAdjust="spacingAndGlyphs" textLength="8" x="873.6428" y="49.2031">1</text><text fill="#000000" font-family="sans-serif" font-size="13" lengthAdjust="spacingAndGlyphs" textLength="8" x="727.6088" y="104.8236">1</text><!--link PixelBoat to SceneOptionsMenu--><path d="M905.29,66.08 C891.32,82.17 874.87,101.13 862.24,115.68 " fill="none" id="PixelBoat-SceneOptionsMenu" style="stroke: #A80036; stroke-width: 1.0;"/><polygon fill="#A80036" points="914.04,56,907.0867,57.9109,906.1763,65.0643,913.1296,63.1534,914.04,56" style="stroke: #A80036; stroke-width: 1.0;"/><text fill="#000000" font-family="sans-serif" font-size="13" lengthAdjust="spacingAndGlyphs" textLength="8" x="899.9002" y="76.1558">1</text><text fill="#000000" font-family="sans-serif" font-size="13" lengthAdjust="spacingAndGlyphs" textLength="8" x="858.1985" y="105.007">1</text><!--link PixelBoat to SceneStartScreen--><path d="M963.03,66.08 C977.14,82.17 993.77,101.13 1006.54,115.68 " fill="none" id="PixelBoat-SceneStartScreen" style="stroke: #A80036; stroke-width: 1.0;"/><polygon fill="#A80036" points="954.18,56,955.1296,63.1483,962.0933,65.0211,961.1437,57.8728,954.18,56" style="stroke: #A80036; stroke-width: 1.0;"/><text fill="#000000" font-family="sans-serif" font-size="13" lengthAdjust="spacingAndGlyphs" textLength="8" x="950.3261" y="76.1558">1</text><text fill="#000000" font-family="sans-serif" font-size="13" lengthAdjust="spacingAndGlyphs" textLength="8" x="992.5779" y="105.007">1</text><!--link PixelBoat to SceneTutorial--><path d="M990.77,56.14 C1034.18,73.84 1093.76,98.13 1137.18,115.84 " fill="none" id="PixelBoat-SceneTutorial" style="stroke: #A80036; stroke-width: 1.0;"/><polygon fill="#A80036" points="978.7,51.22,982.7476,57.188,989.8133,55.7471,985.7657,49.7791,978.7,51.22" style="stroke: #A80036; stroke-width: 1.0;"/><text fill="#000000" font-family="sans-serif" font-size="13" lengthAdjust="spacingAndGlyphs" textLength="8" x="986.4616" y="50.1654">1</text><text fill="#000000" font-family="sans-serif" font-size="13" lengthAdjust="spacingAndGlyphs" textLength="8" x="1119.1067" y="107.6742">1</text><!--link BoatRace to Obstacle--><path d="M614,285.34 C614,300.68 614,318.1 614,331.68 " fill="none" id="BoatRace-Obstacle" style="stroke: #A80036; stroke-width: 1.0;"/><polygon fill="#A80036" points="614,272,610,278,614,284,618,278,614,272" style="stroke: #A80036; stroke-width: 1.0;"/><text fill="#000000" font-family="sans-serif" font-size="13" lengthAdjust="spacingAndGlyphs" textLength="8" x="604.975" y="292.1558">1</text><text fill="#000000" font-family="sans-serif" font-size="13" lengthAdjust="spacingAndGlyphs" textLength="23" x="588.1969" y="321.007">0..*</text><!--link SceneMainGame to BoatRace--><path d="M646.18,175.94 C639.08,191.61 630.9,209.68 624.56,223.68 " fill="none" id="SceneMainGame-BoatRace" style="stroke: #A80036; stroke-width: 1.0;"/><polygon fill="#A80036" points="651.58,164,645.4627,167.8181,646.6342,174.9334,652.7516,171.1153,651.58,164" style="stroke: #A80036; stroke-width: 1.0;"/><text fill="#000000" font-family="sans-serif" font-size="13" lengthAdjust="spacingAndGlyphs" textLength="8" x="639.8849" y="184.1558">1</text><text fill="#000000" font-family="sans-serif" font-size="13" lengthAdjust="spacingAndGlyphs" textLength="8" x="618.159" y="213.007">1</text><!--link SceneMainGame to ResultsScreen--><path d="M691.34,174.08 C705.61,190.17 722.42,209.13 735.32,223.68 " fill="none" id="SceneMainGame-ResultsScreen" style="stroke: #A80036; stroke-width: 1.0;"/><polygon fill="#A80036" points="682.4,164,683.3887,171.143,690.3625,172.9776,689.3738,165.8346,682.4,164" style="stroke: #A80036; stroke-width: 1.0;"/><text fill="#000000" font-family="sans-serif" font-size="13" lengthAdjust="spacingAndGlyphs" textLength="8" x="678.6025" y="184.1558">1</text><text fill="#000000" font-family="sans-serif" font-size="13" lengthAdjust="spacingAndGlyphs" textLength="8" x="721.3043" y="213.007">1</text><!--link SceneMainGame to Boat--><path d="M616.22,171.33 C589.4,189.09 556.26,211.05 532.6,226.73 " fill="none" id="SceneMainGame-Boat" style="stroke: #A80036; stroke-width: 1.0;"/><polygon fill="#A80036" points="627.28,164,620.0689,163.9846,617.2812,170.6351,624.4923,170.6505,627.28,164" style="stroke: #A80036; stroke-width: 1.0;"/><text fill="#000000" font-family="sans-serif" font-size="13" lengthAdjust="spacingAndGlyphs" textLength="8" x="609.358" y="184.1558">1</text><text fill="#000000" font-family="sans-serif" font-size="13" lengthAdjust="spacingAndGlyphs" textLength="23" x="537.0482" y="216.3495">0..*</text><!--link SceneMainGame to RaceThread--><path d="M728.84,170.04 C767.83,186.98 816.34,208.05 852.74,223.86 " fill="none" id="SceneMainGame-RaceThread" style="stroke: #A80036; stroke-width: 1.0;"/><ellipse cx="722.2785" cy="167.1853" fill="#FFFFFF" rx="8" ry="8" style="stroke: #A80036; stroke-width: 1.0;"/><line style="stroke: #A80036; stroke-width: 1.0;" x1="729.617" x2="714.94" y1="170.3707" y2="164"/><line style="stroke: #A80036; stroke-width: 1.0;" x1="719.0931" x2="725.4638" y1="174.5238" y2="159.8469"/><!--link CollisionObject to CollisionBounds--><path d="M1353,69.34 C1353,84.68 1353,102.1 1353,115.68 " fill="none" id="CollisionObject-CollisionBounds" style="stroke: #A80036; stroke-width: 1.0;"/><polygon fill="#A80036" points="1353,56,1349,62,1353,68,1357,62,1353,56" style="stroke: #A80036; stroke-width: 1.0;"/><text fill="#000000" font-family="sans-serif" font-size="13" lengthAdjust="spacingAndGlyphs" textLength="8" x="1343.975" y="76.1558">1</text><text fill="#000000" font-family="sans-serif" font-size="13" lengthAdjust="spacingAndGlyphs" textLength="8" x="1344.025" y="105.007">1</text><!--link AIBoat to GameObject--><!--link GameObject to MoveableObject--><!--link AIBoat to ObstacleBranch--><!--link ObstacleBranch to ObstacleDuck--><!--link ObstacleDuck to ObstacleFloatingBranch--><!--link ObstacleBranch to ObstacleLaneWall--><!--link ObstacleLaneWall to PlayerBoat--><!--link PlayerBoat to Scene--><!--
@startuml
class AIBoat
abstract class Boat
class BoatRace
class CollisionBounds
interface CollisionObject
abstract class GameObject
abstract class MoveableObject
abstract class Obstacle
class ObstacleBranch
class ObstacleDuck
class ObstacleFloatingBranch
class ObstacleLaneWall
class PixelBoat
class PlayerBoat
class ResultsScreen
interface Scene
class SceneMainGame
class SceneOptionsMenu
class SceneStartScreen
class SceneTutorial
class RaceThread


PixelBoat "1" *- - "1" SceneMainGame
PixelBoat "1" *- - "1" SceneOptionsMenu
PixelBoat "1" *- - "1" SceneStartScreen
PixelBoat "1" *- - "1" SceneTutorial

BoatRace "1" *- - "0..*" Obstacle

SceneMainGame "1" *- - "1" BoatRace
SceneMainGame "1" *- - "1" ResultsScreen
SceneMainGame "1" *- - "0..*" Boat

SceneMainGame +- - RaceThread

CollisionObject "1" *- - "1" CollisionBounds

@enduml

PlantUML version 1.2018.13(Mon Nov 26 17:11:51 GMT 2018)
(GPL source distribution)
Java Runtime: OpenJDK Runtime Environment
JVM: OpenJDK 64-Bit Server VM
Java Version: 11.0.9.1+1-Ubuntu-0ubuntu1.20.04
Operating System: Linux
OS Version: 4.19.128-microsoft-standard
Default Encoding: UTF-8
Language: en
Country: null
--></g></svg>