<?xml version="1.0" encoding="UTF-8" standalone="no"?><svg xmlns="http://www.w3.org/2000/svg" xmlns:xlink="http://www.w3.org/1999/xlink" contentScriptType="application/ecmascript" contentStyleType="text/css" height="499px" preserveAspectRatio="none" style="width:1617px;height:499px;" version="1.1" viewBox="0 0 1617 499" width="1617px" zoomAndPan="magnify"><defs><filter height="300%" id="f15c4fmtt2wqgw" width="300%" x="-1" y="-1"><feGaussianBlur result="blurOut" stdDeviation="2.0"/><feColorMatrix in="blurOut" result="blurOut2" type="matrix" values="0 0 0 0 0 0 0 0 0 0 0 0 0 0 0 0 0 0 .4 0"/><feOffset dx="4.0" dy="4.0" in="blurOut2" result="blurOut3"/><feBlend in="SourceGraphic" in2="blurOut3" mode="normal"/></filter></defs><g><!--class AIBoat--><rect fill="#FEFECE" filter="url(#f15c4fmtt2wqgw)" height="48" id="AIBoat" style="stroke: #A80036; stroke-width: 1.5;" width="72" x="566.5" y="332"/><ellipse cx="581.5" cy="348" fill="#ADD1B2" rx="11" ry="11" style="stroke: #A80036; stroke-width: 1.0;"/><path d="M584.4688,353.6406 Q583.8906,353.9375 583.25,354.0781 Q582.6094,354.2344 581.9063,354.2344 Q579.4063,354.2344 578.0781,352.5938 Q576.7656,350.9375 576.7656,347.8125 Q576.7656,344.6875 578.0781,343.0313 Q579.4063,341.375 581.9063,341.375 Q582.6094,341.375 583.25,341.5313 Q583.9063,341.6875 584.4688,341.9844 L584.4688,344.7031 Q583.8438,344.125 583.25,343.8594 Q582.6563,343.5781 582.0313,343.5781 Q580.6875,343.5781 580,344.6563 Q579.3125,345.7188 579.3125,347.8125 Q579.3125,349.9063 580,350.9844 Q580.6875,352.0469 582.0313,352.0469 Q582.6563,352.0469 583.25,351.7813 Q583.8438,351.5 584.4688,350.9219 L584.4688,353.6406 Z "/><text fill="#000000" font-family="sans-serif" font-size="12" lengthAdjust="spacingAndGlyphs" textLength="40" x="595.5" y="352.1543">AIBoat</text><line style="stroke: #A80036; stroke-width: 1.5;" x1="567.5" x2="637.5" y1="364" y2="364"/><line style="stroke: #A80036; stroke-width: 1.5;" x1="567.5" x2="637.5" y1="372" y2="372"/><!--class Boat--><rect fill="#FEFECE" filter="url(#f15c4fmtt2wqgw)" height="48" id="Boat" style="stroke: #A80036; stroke-width: 1.5;" width="61" x="470" y="332"/><ellipse cx="485" cy="348" fill="#A9DCDF" rx="11" ry="11" style="stroke: #A80036; stroke-width: 1.0;"/><path d="M485.1094,343.3438 L483.9531,348.4219 L486.2813,348.4219 L485.1094,343.3438 Z M483.625,341.1094 L486.6094,341.1094 L489.9688,353.5 L487.5156,353.5 L486.75,350.4375 L483.4688,350.4375 L482.7188,353.5 L480.2813,353.5 L483.625,341.1094 Z "/><text fill="#000000" font-family="sans-serif" font-size="12" font-style="italic" lengthAdjust="spacingAndGlyphs" textLength="29" x="499" y="352.1543">Boat</text><line style="stroke: #A80036; stroke-width: 1.5;" x1="471" x2="530" y1="364" y2="364"/><line style="stroke: #A80036; stroke-width: 1.5;" x1="471" x2="530" y1="372" y2="372"/><!--class BoatRace--><rect fill="#FEFECE" filter="url(#f15c4fmtt2wqgw)" height="48" id="BoatRace" style="stroke: #A80036; stroke-width: 1.5;" width="92" x="741.5" y="224"/><ellipse cx="756.5" cy="240" fill="#ADD1B2" rx="11" ry="11" style="stroke: #A80036; stroke-width: 1.0;"/><path d="M759.4688,245.6406 Q758.8906,245.9375 758.25,246.0781 Q757.6094,246.2344 756.9063,246.2344 Q754.4063,246.2344 753.0781,244.5938 Q751.7656,242.9375 751.7656,239.8125 Q751.7656,236.6875 753.0781,235.0313 Q754.4063,233.375 756.9063,233.375 Q757.6094,233.375 758.25,233.5313 Q758.9063,233.6875 759.4688,233.9844 L759.4688,236.7031 Q758.8438,236.125 758.25,235.8594 Q757.6563,235.5781 757.0313,235.5781 Q755.6875,235.5781 755,236.6563 Q754.3125,237.7188 754.3125,239.8125 Q754.3125,241.9063 755,242.9844 Q755.6875,244.0469 757.0313,244.0469 Q757.6563,244.0469 758.25,243.7813 Q758.8438,243.5 759.4688,242.9219 L759.4688,245.6406 Z "/><text fill="#000000" font-family="sans-serif" font-size="12" lengthAdjust="spacingAndGlyphs" textLength="60" x="770.5" y="244.1543">BoatRace</text><line style="stroke: #A80036; stroke-width: 1.5;" x1="742.5" x2="832.5" y1="256" y2="256"/><line style="stroke: #A80036; stroke-width: 1.5;" x1="742.5" x2="832.5" y1="264" y2="264"/><!--class CollisionBounds--><rect fill="#FEFECE" filter="url(#f15c4fmtt2wqgw)" height="48" id="CollisionBounds" style="stroke: #A80036; stroke-width: 1.5;" width="130" x="309.5" y="440"/><ellipse cx="324.5" cy="456" fill="#ADD1B2" rx="11" ry="11" style="stroke: #A80036; stroke-width: 1.0;"/><path d="M327.4688,461.6406 Q326.8906,461.9375 326.25,462.0781 Q325.6094,462.2344 324.9063,462.2344 Q322.4063,462.2344 321.0781,460.5938 Q319.7656,458.9375 319.7656,455.8125 Q319.7656,452.6875 321.0781,451.0313 Q322.4063,449.375 324.9063,449.375 Q325.6094,449.375 326.25,449.5313 Q326.9063,449.6875 327.4688,449.9844 L327.4688,452.7031 Q326.8438,452.125 326.25,451.8594 Q325.6563,451.5781 325.0313,451.5781 Q323.6875,451.5781 323,452.6563 Q322.3125,453.7188 322.3125,455.8125 Q322.3125,457.9063 323,458.9844 Q323.6875,460.0469 325.0313,460.0469 Q325.6563,460.0469 326.25,459.7813 Q326.8438,459.5 327.4688,458.9219 L327.4688,461.6406 Z "/><text fill="#000000" font-family="sans-serif" font-size="12" lengthAdjust="spacingAndGlyphs" textLength="98" x="338.5" y="460.1543">CollisionBounds</text><line style="stroke: #A80036; stroke-width: 1.5;" x1="310.5" x2="438.5" y1="472" y2="472"/><line style="stroke: #A80036; stroke-width: 1.5;" x1="310.5" x2="438.5" y1="480" y2="480"/><!--class CollisionObject--><rect fill="#FEFECE" filter="url(#f15c4fmtt2wqgw)" height="48" id="CollisionObject" style="stroke: #A80036; stroke-width: 1.5;" width="121" x="314" y="332"/><ellipse cx="329" cy="348" fill="#B4A7E5" rx="11" ry="11" style="stroke: #A80036; stroke-width: 1.0;"/><path d="M324.9219,343.7656 L324.9219,341.6094 L332.3125,341.6094 L332.3125,343.7656 L329.8438,343.7656 L329.8438,351.8438 L332.3125,351.8438 L332.3125,354 L324.9219,354 L324.9219,351.8438 L327.3906,351.8438 L327.3906,343.7656 L324.9219,343.7656 Z "/><text fill="#000000" font-family="sans-serif" font-size="12" font-style="italic" lengthAdjust="spacingAndGlyphs" textLength="89" x="343" y="352.1543">CollisionObject</text><line style="stroke: #A80036; stroke-width: 1.5;" x1="315" x2="434" y1="364" y2="364"/><line style="stroke: #A80036; stroke-width: 1.5;" x1="315" x2="434" y1="372" y2="372"/><!--class GameObject--><rect fill="#FEFECE" filter="url(#f15c4fmtt2wqgw)" height="48" id="GameObject" style="stroke: #A80036; stroke-width: 1.5;" width="107" x="6" y="332"/><ellipse cx="21" cy="348" fill="#A9DCDF" rx="11" ry="11" style="stroke: #A80036; stroke-width: 1.0;"/><path d="M21.1094,343.3438 L19.9531,348.4219 L22.2813,348.4219 L21.1094,343.3438 Z M19.625,341.1094 L22.6094,341.1094 L25.9688,353.5 L23.5156,353.5 L22.75,350.4375 L19.4688,350.4375 L18.7188,353.5 L16.2813,353.5 L19.625,341.1094 Z "/><text fill="#000000" font-family="sans-serif" font-size="12" font-style="italic" lengthAdjust="spacingAndGlyphs" textLength="75" x="35" y="352.1543">GameObject</text><line style="stroke: #A80036; stroke-width: 1.5;" x1="7" x2="112" y1="364" y2="364"/><line style="stroke: #A80036; stroke-width: 1.5;" x1="7" x2="112" y1="372" y2="372"/><!--class MoveableObject--><rect fill="#FEFECE" filter="url(#f15c4fmtt2wqgw)" height="48" id="MoveableObject" style="stroke: #A80036; stroke-width: 1.5;" width="130" x="148.5" y="332"/><ellipse cx="163.5" cy="348" fill="#A9DCDF" rx="11" ry="11" style="stroke: #A80036; stroke-width: 1.0;"/><path d="M163.6094,343.3438 L162.4531,348.4219 L164.7813,348.4219 L163.6094,343.3438 Z M162.125,341.1094 L165.1094,341.1094 L168.4688,353.5 L166.0156,353.5 L165.25,350.4375 L161.9688,350.4375 L161.2188,353.5 L158.7813,353.5 L162.125,341.1094 Z "/><text fill="#000000" font-family="sans-serif" font-size="12" font-style="italic" lengthAdjust="spacingAndGlyphs" textLength="98" x="177.5" y="352.1543">MoveableObject</text><line style="stroke: #A80036; stroke-width: 1.5;" x1="149.5" x2="277.5" y1="364" y2="364"/><line style="stroke: #A80036; stroke-width: 1.5;" x1="149.5" x2="277.5" y1="372" y2="372"/><!--class Obstacle--><rect fill="#FEFECE" filter="url(#f15c4fmtt2wqgw)" height="48" id="Obstacle" style="stroke: #A80036; stroke-width: 1.5;" width="85" x="808" y="332"/><ellipse cx="823" cy="348" fill="#A9DCDF" rx="11" ry="11" style="stroke: #A80036; stroke-width: 1.0;"/><path d="M823.1094,343.3438 L821.9531,348.4219 L824.2813,348.4219 L823.1094,343.3438 Z M821.625,341.1094 L824.6094,341.1094 L827.9688,353.5 L825.5156,353.5 L824.75,350.4375 L821.4688,350.4375 L820.7188,353.5 L818.2813,353.5 L821.625,341.1094 Z "/><text fill="#000000" font-family="sans-serif" font-size="12" font-style="italic" lengthAdjust="spacingAndGlyphs" textLength="53" x="837" y="352.1543">Obstacle</text><line style="stroke: #A80036; stroke-width: 1.5;" x1="809" x2="892" y1="364" y2="364"/><line style="stroke: #A80036; stroke-width: 1.5;" x1="809" x2="892" y1="372" y2="372"/><!--class ObstacleBranch--><rect fill="#FEFECE" filter="url(#f15c4fmtt2wqgw)" height="48" id="ObstacleBranch" style="stroke: #A80036; stroke-width: 1.5;" width="131" x="1259" y="332"/><ellipse cx="1274" cy="348" fill="#ADD1B2" rx="11" ry="11" style="stroke: #A80036; stroke-width: 1.0;"/><path d="M1276.9688,353.6406 Q1276.3906,353.9375 1275.75,354.0781 Q1275.1094,354.2344 1274.4063,354.2344 Q1271.9063,354.2344 1270.5781,352.5938 Q1269.2656,350.9375 1269.2656,347.8125 Q1269.2656,344.6875 1270.5781,343.0313 Q1271.9063,341.375 1274.4063,341.375 Q1275.1094,341.375 1275.75,341.5313 Q1276.4063,341.6875 1276.9688,341.9844 L1276.9688,344.7031 Q1276.3438,344.125 1275.75,343.8594 Q1275.1563,343.5781 1274.5313,343.5781 Q1273.1875,343.5781 1272.5,344.6563 Q1271.8125,345.7188 1271.8125,347.8125 Q1271.8125,349.9063 1272.5,350.9844 Q1273.1875,352.0469 1274.5313,352.0469 Q1275.1563,352.0469 1275.75,351.7813 Q1276.3438,351.5 1276.9688,350.9219 L1276.9688,353.6406 Z "/><text fill="#000000" font-family="sans-serif" font-size="12" lengthAdjust="spacingAndGlyphs" textLength="99" x="1288" y="352.1543">ObstacleBranch</text><line style="stroke: #A80036; stroke-width: 1.5;" x1="1260" x2="1389" y1="364" y2="364"/><line style="stroke: #A80036; stroke-width: 1.5;" x1="1260" x2="1389" y1="372" y2="372"/><!--class ObstacleDuck--><rect fill="#FEFECE" filter="url(#f15c4fmtt2wqgw)" height="48" id="ObstacleDuck" style="stroke: #A80036; stroke-width: 1.5;" width="118" x="1105.5" y="332"/><ellipse cx="1120.5" cy="348" fill="#ADD1B2" rx="11" ry="11" style="stroke: #A80036; stroke-width: 1.0;"/><path d="M1123.4688,353.6406 Q1122.8906,353.9375 1122.25,354.0781 Q1121.6094,354.2344 1120.9063,354.2344 Q1118.4063,354.2344 1117.0781,352.5938 Q1115.7656,350.9375 1115.7656,347.8125 Q1115.7656,344.6875 1117.0781,343.0313 Q1118.4063,341.375 1120.9063,341.375 Q1121.6094,341.375 1122.25,341.5313 Q1122.9063,341.6875 1123.4688,341.9844 L1123.4688,344.7031 Q1122.8438,344.125 1122.25,343.8594 Q1121.6563,343.5781 1121.0313,343.5781 Q1119.6875,343.5781 1119,344.6563 Q1118.3125,345.7188 1118.3125,347.8125 Q1118.3125,349.9063 1119,350.9844 Q1119.6875,352.0469 1121.0313,352.0469 Q1121.6563,352.0469 1122.25,351.7813 Q1122.8438,351.5 1123.4688,350.9219 L1123.4688,353.6406 Z "/><text fill="#000000" font-family="sans-serif" font-size="12" lengthAdjust="spacingAndGlyphs" textLength="86" x="1134.5" y="352.1543">ObstacleDuck</text><line style="stroke: #A80036; stroke-width: 1.5;" x1="1106.5" x2="1222.5" y1="364" y2="364"/><line style="stroke: #A80036; stroke-width: 1.5;" x1="1106.5" x2="1222.5" y1="372" y2="372"/><!--class ObstacleFloatingBranch--><rect fill="#FEFECE" filter="url(#f15c4fmtt2wqgw)" height="48" id="ObstacleFloatingBranch" style="stroke: #A80036; stroke-width: 1.5;" width="181" x="1425" y="332"/><ellipse cx="1440" cy="348" fill="#ADD1B2" rx="11" ry="11" style="stroke: #A80036; stroke-width: 1.0;"/><path d="M1442.9688,353.6406 Q1442.3906,353.9375 1441.75,354.0781 Q1441.1094,354.2344 1440.4063,354.2344 Q1437.9063,354.2344 1436.5781,352.5938 Q1435.2656,350.9375 1435.2656,347.8125 Q1435.2656,344.6875 1436.5781,343.0313 Q1437.9063,341.375 1440.4063,341.375 Q1441.1094,341.375 1441.75,341.5313 Q1442.4063,341.6875 1442.9688,341.9844 L1442.9688,344.7031 Q1442.3438,344.125 1441.75,343.8594 Q1441.1563,343.5781 1440.5313,343.5781 Q1439.1875,343.5781 1438.5,344.6563 Q1437.8125,345.7188 1437.8125,347.8125 Q1437.8125,349.9063 1438.5,350.9844 Q1439.1875,352.0469 1440.5313,352.0469 Q1441.1563,352.0469 1441.75,351.7813 Q1442.3438,351.5 1442.9688,350.9219 L1442.9688,353.6406 Z "/><text fill="#000000" font-family="sans-serif" font-size="12" lengthAdjust="spacingAndGlyphs" textLength="149" x="1454" y="352.1543">ObstacleFloatingBranch</text><line style="stroke: #A80036; stroke-width: 1.5;" x1="1426" x2="1605" y1="364" y2="364"/><line style="stroke: #A80036; stroke-width: 1.5;" x1="1426" x2="1605" y1="372" y2="372"/><!--class ObstacleLaneWall--><rect fill="#FEFECE" filter="url(#f15c4fmtt2wqgw)" height="48" id="ObstacleLaneWall" style="stroke: #A80036; stroke-width: 1.5;" width="142" x="928.5" y="332"/><ellipse cx="943.5" cy="348" fill="#ADD1B2" rx="11" ry="11" style="stroke: #A80036; stroke-width: 1.0;"/><path d="M946.4688,353.6406 Q945.8906,353.9375 945.25,354.0781 Q944.6094,354.2344 943.9063,354.2344 Q941.4063,354.2344 940.0781,352.5938 Q938.7656,350.9375 938.7656,347.8125 Q938.7656,344.6875 940.0781,343.0313 Q941.4063,341.375 943.9063,341.375 Q944.6094,341.375 945.25,341.5313 Q945.9063,341.6875 946.4688,341.9844 L946.4688,344.7031 Q945.8438,344.125 945.25,343.8594 Q944.6563,343.5781 944.0313,343.5781 Q942.6875,343.5781 942,344.6563 Q941.3125,345.7188 941.3125,347.8125 Q941.3125,349.9063 942,350.9844 Q942.6875,352.0469 944.0313,352.0469 Q944.6563,352.0469 945.25,351.7813 Q945.8438,351.5 946.4688,350.9219 L946.4688,353.6406 Z "/><text fill="#000000" font-family="sans-serif" font-size="12" lengthAdjust="spacingAndGlyphs" textLength="110" x="957.5" y="352.1543">ObstacleLaneWall</text><line style="stroke: #A80036; stroke-width: 1.5;" x1="929.5" x2="1069.5" y1="364" y2="364"/><line style="stroke: #A80036; stroke-width: 1.5;" x1="929.5" x2="1069.5" y1="372" y2="372"/><!--class PixelBoat--><rect fill="#FEFECE" filter="url(#f15c4fmtt2wqgw)" height="48" id="PixelBoat" style="stroke: #A80036; stroke-width: 1.5;" width="89" x="541" y="8"/><ellipse cx="556" cy="24" fill="#ADD1B2" rx="11" ry="11" style="stroke: #A80036; stroke-width: 1.0;"/><path d="M558.9688,29.6406 Q558.3906,29.9375 557.75,30.0781 Q557.1094,30.2344 556.4063,30.2344 Q553.9063,30.2344 552.5781,28.5938 Q551.2656,26.9375 551.2656,23.8125 Q551.2656,20.6875 552.5781,19.0313 Q553.9063,17.375 556.4063,17.375 Q557.1094,17.375 557.75,17.5313 Q558.4063,17.6875 558.9688,17.9844 L558.9688,20.7031 Q558.3438,20.125 557.75,19.8594 Q557.1563,19.5781 556.5313,19.5781 Q555.1875,19.5781 554.5,20.6563 Q553.8125,21.7188 553.8125,23.8125 Q553.8125,25.9063 554.5,26.9844 Q555.1875,28.0469 556.5313,28.0469 Q557.1563,28.0469 557.75,27.7813 Q558.3438,27.5 558.9688,26.9219 L558.9688,29.6406 Z "/><text fill="#000000" font-family="sans-serif" font-size="12" lengthAdjust="spacingAndGlyphs" textLength="57" x="570" y="28.1543">PixelBoat</text><line style="stroke: #A80036; stroke-width: 1.5;" x1="542" x2="629" y1="40" y2="40"/><line style="stroke: #A80036; stroke-width: 1.5;" x1="542" x2="629" y1="48" y2="48"/><!--class PlayerBoat--><rect fill="#FEFECE" filter="url(#f15c4fmtt2wqgw)" height="48" id="PlayerBoat" style="stroke: #A80036; stroke-width: 1.5;" width="99" x="674" y="332"/><ellipse cx="689" cy="348" fill="#ADD1B2" rx="11" ry="11" style="stroke: #A80036; stroke-width: 1.0;"/><path d="M691.9688,353.6406 Q691.3906,353.9375 690.75,354.0781 Q690.1094,354.2344 689.4063,354.2344 Q686.9063,354.2344 685.5781,352.5938 Q684.2656,350.9375 684.2656,347.8125 Q684.2656,344.6875 685.5781,343.0313 Q686.9063,341.375 689.4063,341.375 Q690.1094,341.375 690.75,341.5313 Q691.4063,341.6875 691.9688,341.9844 L691.9688,344.7031 Q691.3438,344.125 690.75,343.8594 Q690.1563,343.5781 689.5313,343.5781 Q688.1875,343.5781 687.5,344.6563 Q686.8125,345.7188 686.8125,347.8125 Q686.8125,349.9063 687.5,350.9844 Q688.1875,352.0469 689.5313,352.0469 Q690.1563,352.0469 690.75,351.7813 Q691.3438,351.5 691.9688,350.9219 L691.9688,353.6406 Z "/><text fill="#000000" font-family="sans-serif" font-size="12" lengthAdjust="spacingAndGlyphs" textLength="67" x="703" y="352.1543">PlayerBoat</text><line style="stroke: #A80036; stroke-width: 1.5;" x1="675" x2="772" y1="364" y2="364"/><line style="stroke: #A80036; stroke-width: 1.5;" x1="675" x2="772" y1="372" y2="372"/><!--class ResultsScreen--><rect fill="#FEFECE" filter="url(#f15c4fmtt2wqgw)" height="48" id="ResultsScreen" style="stroke: #A80036; stroke-width: 1.5;" width="122" x="868.5" y="224"/><ellipse cx="883.5" cy="240" fill="#ADD1B2" rx="11" ry="11" style="stroke: #A80036; stroke-width: 1.0;"/><path d="M886.4688,245.6406 Q885.8906,245.9375 885.25,246.0781 Q884.6094,246.2344 883.9063,246.2344 Q881.4063,246.2344 880.0781,244.5938 Q878.7656,242.9375 878.7656,239.8125 Q878.7656,236.6875 880.0781,235.0313 Q881.4063,233.375 883.9063,233.375 Q884.6094,233.375 885.25,233.5313 Q885.9063,233.6875 886.4688,233.9844 L886.4688,236.7031 Q885.8438,236.125 885.25,235.8594 Q884.6563,235.5781 884.0313,235.5781 Q882.6875,235.5781 882,236.6563 Q881.3125,237.7188 881.3125,239.8125 Q881.3125,241.9063 882,242.9844 Q882.6875,244.0469 884.0313,244.0469 Q884.6563,244.0469 885.25,243.7813 Q885.8438,243.5 886.4688,242.9219 L886.4688,245.6406 Z "/><text fill="#000000" font-family="sans-serif" font-size="12" lengthAdjust="spacingAndGlyphs" textLength="90" x="897.5" y="244.1543">ResultsScreen</text><line style="stroke: #A80036; stroke-width: 1.5;" x1="869.5" x2="989.5" y1="256" y2="256"/><line style="stroke: #A80036; stroke-width: 1.5;" x1="869.5" x2="989.5" y1="264" y2="264"/><!--class Scene--><rect fill="#FEFECE" filter="url(#f15c4fmtt2wqgw)" height="48" id="Scene" style="stroke: #A80036; stroke-width: 1.5;" width="71" x="161" y="116"/><ellipse cx="176" cy="132" fill="#B4A7E5" rx="11" ry="11" style="stroke: #A80036; stroke-width: 1.0;"/><path d="M171.9219,127.7656 L171.9219,125.6094 L179.3125,125.6094 L179.3125,127.7656 L176.8438,127.7656 L176.8438,135.8438 L179.3125,135.8438 L179.3125,138 L171.9219,138 L171.9219,135.8438 L174.3906,135.8438 L174.3906,127.7656 L171.9219,127.7656 Z "/><text fill="#000000" font-family="sans-serif" font-size="12" font-style="italic" lengthAdjust="spacingAndGlyphs" textLength="39" x="190" y="136.1543">Scene</text><line style="stroke: #A80036; stroke-width: 1.5;" x1="162" x2="231" y1="148" y2="148"/><line style="stroke: #A80036; stroke-width: 1.5;" x1="162" x2="231" y1="156" y2="156"/><!--class SceneMainGame--><rect fill="#FEFECE" filter="url(#f15c4fmtt2wqgw)" height="48" id="SceneMainGame" style="stroke: #A80036; stroke-width: 1.5;" width="136" x="790.5" y="116"/><ellipse cx="805.5" cy="132" fill="#ADD1B2" rx="11" ry="11" style="stroke: #A80036; stroke-width: 1.0;"/><path d="M808.4688,137.6406 Q807.8906,137.9375 807.25,138.0781 Q806.6094,138.2344 805.9063,138.2344 Q803.4063,138.2344 802.0781,136.5938 Q800.7656,134.9375 800.7656,131.8125 Q800.7656,128.6875 802.0781,127.0313 Q803.4063,125.375 805.9063,125.375 Q806.6094,125.375 807.25,125.5313 Q807.9063,125.6875 808.4688,125.9844 L808.4688,128.7031 Q807.8438,128.125 807.25,127.8594 Q806.6563,127.5781 806.0313,127.5781 Q804.6875,127.5781 804,128.6563 Q803.3125,129.7188 803.3125,131.8125 Q803.3125,133.9063 804,134.9844 Q804.6875,136.0469 806.0313,136.0469 Q806.6563,136.0469 807.25,135.7813 Q807.8438,135.5 808.4688,134.9219 L808.4688,137.6406 Z "/><text fill="#000000" font-family="sans-serif" font-size="12" lengthAdjust="spacingAndGlyphs" textLength="104" x="819.5" y="136.1543">SceneMainGame</text><line style="stroke: #A80036; stroke-width: 1.5;" x1="791.5" x2="925.5" y1="148" y2="148"/><line style="stroke: #A80036; stroke-width: 1.5;" x1="791.5" x2="925.5" y1="156" y2="156"/><!--class SceneOptionsMenu--><rect fill="#FEFECE" filter="url(#f15c4fmtt2wqgw)" height="48" id="SceneOptionsMenu" style="stroke: #A80036; stroke-width: 1.5;" width="153" x="602" y="116"/><ellipse cx="617" cy="132" fill="#ADD1B2" rx="11" ry="11" style="stroke: #A80036; stroke-width: 1.0;"/><path d="M619.9688,137.6406 Q619.3906,137.9375 618.75,138.0781 Q618.1094,138.2344 617.4063,138.2344 Q614.9063,138.2344 613.5781,136.5938 Q612.2656,134.9375 612.2656,131.8125 Q612.2656,128.6875 613.5781,127.0313 Q614.9063,125.375 617.4063,125.375 Q618.1094,125.375 618.75,125.5313 Q619.4063,125.6875 619.9688,125.9844 L619.9688,128.7031 Q619.3438,128.125 618.75,127.8594 Q618.1563,127.5781 617.5313,127.5781 Q616.1875,127.5781 615.5,128.6563 Q614.8125,129.7188 614.8125,131.8125 Q614.8125,133.9063 615.5,134.9844 Q616.1875,136.0469 617.5313,136.0469 Q618.1563,136.0469 618.75,135.7813 Q619.3438,135.5 619.9688,134.9219 L619.9688,137.6406 Z "/><text fill="#000000" font-family="sans-serif" font-size="12" lengthAdjust="spacingAndGlyphs" textLength="121" x="631" y="136.1543">SceneOptionsMenu</text><line style="stroke: #A80036; stroke-width: 1.5;" x1="603" x2="754" y1="148" y2="148"/><line style="stroke: #A80036; stroke-width: 1.5;" x1="603" x2="754" y1="156" y2="156"/><!--class SceneStartScreen--><rect fill="#FEFECE" filter="url(#f15c4fmtt2wqgw)" height="48" id="SceneStartScreen" style="stroke: #A80036; stroke-width: 1.5;" width="146" x="420.5" y="116"/><ellipse cx="435.5" cy="132" fill="#ADD1B2" rx="11" ry="11" style="stroke: #A80036; stroke-width: 1.0;"/><path d="M438.4688,137.6406 Q437.8906,137.9375 437.25,138.0781 Q436.6094,138.2344 435.9063,138.2344 Q433.4063,138.2344 432.0781,136.5938 Q430.7656,134.9375 430.7656,131.8125 Q430.7656,128.6875 432.0781,127.0313 Q433.4063,125.375 435.9063,125.375 Q436.6094,125.375 437.25,125.5313 Q437.9063,125.6875 438.4688,125.9844 L438.4688,128.7031 Q437.8438,128.125 437.25,127.8594 Q436.6563,127.5781 436.0313,127.5781 Q434.6875,127.5781 434,128.6563 Q433.3125,129.7188 433.3125,131.8125 Q433.3125,133.9063 434,134.9844 Q434.6875,136.0469 436.0313,136.0469 Q436.6563,136.0469 437.25,135.7813 Q437.8438,135.5 438.4688,134.9219 L438.4688,137.6406 Z "/><text fill="#000000" font-family="sans-serif" font-size="12" lengthAdjust="spacingAndGlyphs" textLength="114" x="449.5" y="136.1543">SceneStartScreen</text><line style="stroke: #A80036; stroke-width: 1.5;" x1="421.5" x2="565.5" y1="148" y2="148"/><line style="stroke: #A80036; stroke-width: 1.5;" x1="421.5" x2="565.5" y1="156" y2="156"/><!--class SceneTutorial--><rect fill="#FEFECE" filter="url(#f15c4fmtt2wqgw)" height="48" id="SceneTutorial" style="stroke: #A80036; stroke-width: 1.5;" width="118" x="267.5" y="116"/><ellipse cx="282.5" cy="132" fill="#ADD1B2" rx="11" ry="11" style="stroke: #A80036; stroke-width: 1.0;"/><path d="M285.4688,137.6406 Q284.8906,137.9375 284.25,138.0781 Q283.6094,138.2344 282.9063,138.2344 Q280.4063,138.2344 279.0781,136.5938 Q277.7656,134.9375 277.7656,131.8125 Q277.7656,128.6875 279.0781,127.0313 Q280.4063,125.375 282.9063,125.375 Q283.6094,125.375 284.25,125.5313 Q284.9063,125.6875 285.4688,125.9844 L285.4688,128.7031 Q284.8438,128.125 284.25,127.8594 Q283.6563,127.5781 283.0313,127.5781 Q281.6875,127.5781 281,128.6563 Q280.3125,129.7188 280.3125,131.8125 Q280.3125,133.9063 281,134.9844 Q281.6875,136.0469 283.0313,136.0469 Q283.6563,136.0469 284.25,135.7813 Q284.8438,135.5 285.4688,134.9219 L285.4688,137.6406 Z "/><text fill="#000000" font-family="sans-serif" font-size="12" lengthAdjust="spacingAndGlyphs" textLength="86" x="296.5" y="136.1543">SceneTutorial</text><line style="stroke: #A80036; stroke-width: 1.5;" x1="268.5" x2="384.5" y1="148" y2="148"/><line style="stroke: #A80036; stroke-width: 1.5;" x1="268.5" x2="384.5" y1="156" y2="156"/><!--class RaceThread--><rect fill="#FEFECE" filter="url(#f15c4fmtt2wqgw)" height="48" id="RaceThread" style="stroke: #A80036; stroke-width: 1.5;" width="107" x="1026" y="224"/><ellipse cx="1041" cy="240" fill="#ADD1B2" rx="11" ry="11" style="stroke: #A80036; stroke-width: 1.0;"/><path d="M1043.9688,245.6406 Q1043.3906,245.9375 1042.75,246.0781 Q1042.1094,246.2344 1041.4063,246.2344 Q1038.9063,246.2344 1037.5781,244.5938 Q1036.2656,242.9375 1036.2656,239.8125 Q1036.2656,236.6875 1037.5781,235.0313 Q1038.9063,233.375 1041.4063,233.375 Q1042.1094,233.375 1042.75,233.5313 Q1043.4063,233.6875 1043.9688,233.9844 L1043.9688,236.7031 Q1043.3438,236.125 1042.75,235.8594 Q1042.1563,235.5781 1041.5313,235.5781 Q1040.1875,235.5781 1039.5,236.6563 Q1038.8125,237.7188 1038.8125,239.8125 Q1038.8125,241.9063 1039.5,242.9844 Q1040.1875,244.0469 1041.5313,244.0469 Q1042.1563,244.0469 1042.75,243.7813 Q1043.3438,243.5 1043.9688,242.9219 L1043.9688,245.6406 Z "/><text fill="#000000" font-family="sans-serif" font-size="12" lengthAdjust="spacingAndGlyphs" textLength="75" x="1055" y="244.1543">RaceThread</text><line style="stroke: #A80036; stroke-width: 1.5;" x1="1027" x2="1132" y1="256" y2="256"/><line style="stroke: #A80036; stroke-width: 1.5;" x1="1027" x2="1132" y1="264" y2="264"/><!--link GameObject to MoveableObject--><path d="M133.18,356 C138.24,356 143.3,356 148.36,356 " fill="none" id="GameObject-MoveableObject" style="stroke: #A80036; stroke-width: 1.0;"/><polygon fill="none" points="133.04,363,113.04,356,133.04,349,133.04,363" style="stroke: #A80036; stroke-width: 1.0;"/><!--link MoveableObject to Obstacle--><path d="M265.36,321.89 C280.43,313.74 297.34,306.19 314,302 C412.92,277.11 675.69,271.44 773,302 C791.93,307.94 810.28,320.33 824.37,331.75 " fill="none" id="MoveableObject-Obstacle" style="stroke: #A80036; stroke-width: 1.0;"/><polygon fill="none" points="268.83,327.97,248.02,331.95,261.81,315.86,268.83,327.97" style="stroke: #A80036; stroke-width: 1.0;"/><!--link CollisionObject to Obstacle--><path d="M424.53,321.37 C438.62,313.43 454.37,306.11 470,302 C600.23,267.73 644.52,261.65 773,302 C791.93,307.94 810.28,320.33 824.37,331.75 " fill="none" id="CollisionObject-Obstacle" style="stroke: #A80036; stroke-width: 1.0;"/><polygon fill="none" points="427.86,327.54,407.13,331.96,420.58,315.59,427.86,327.54" style="stroke: #A80036; stroke-width: 1.0;"/><!--link Obstacle to ObstacleBranch--><path d="M893.52,319.67 C904.44,312.41 916.61,305.85 929,302 C1054.21,263.09 1096.85,270 1224,302 C1247.43,307.9 1271.36,320.44 1289.98,331.95 " fill="none" id="Obstacle-ObstacleBranch" style="stroke: #A80036; stroke-width: 1.0;"/><polygon fill="none" points="897.29,325.58,877.02,331.74,889.02,314.28,897.29,325.58" style="stroke: #A80036; stroke-width: 1.0;"/><!--link Obstacle to ObstacleDuck--><path d="M893.52,319.67 C904.44,312.41 916.61,305.85 929,302 C989.27,283.27 1010.04,285.66 1071,302 C1093.09,307.92 1115.36,320.46 1132.62,331.97 " fill="none" id="Obstacle-ObstacleDuck" style="stroke: #A80036; stroke-width: 1.0;"/><polygon fill="none" points="897.29,325.58,877.02,331.74,889.02,314.28,897.29,325.58" style="stroke: #A80036; stroke-width: 1.0;"/><!--link ObstacleBranch to ObstacleFloatingBranch--><path d="M1410.25,356 C1415.14,356 1420.03,356 1424.92,356 " fill="none" id="ObstacleBranch-ObstacleFloatingBranch" style="stroke: #A80036; stroke-width: 1.0;"/><polygon fill="none" points="1410.16,363,1390.16,356,1410.16,349,1410.16,363" style="stroke: #A80036; stroke-width: 1.0;"/><!--link Obstacle to ObstacleLaneWall--><path d="M913.43,356 C918.33,356 923.23,356 928.13,356 " fill="none" id="Obstacle-ObstacleLaneWall" style="stroke: #A80036; stroke-width: 1.0;"/><polygon fill="none" points="913.28,363,893.28,356,913.28,349,913.28,363" style="stroke: #A80036; stroke-width: 1.0;"/><!--link MoveableObject to Boat--><path d="M265.36,321.89 C280.43,313.74 297.34,306.19 314,302 C366.15,288.88 384.39,283.83 435,302 C451.78,308.03 467.33,320.42 479.07,331.82 " fill="none" id="MoveableObject-Boat" style="stroke: #A80036; stroke-width: 1.0;"/><polygon fill="none" points="268.83,327.97,248.02,331.95,261.81,315.86,268.83,327.97" style="stroke: #A80036; stroke-width: 1.0;"/><!--link CollisionObject to Boat--><path d="M455.14,356 C460.03,356 464.92,356 469.82,356 " fill="none" id="CollisionObject-Boat" style="stroke: #A80036; stroke-width: 1.0;"/><polygon fill="none" points="455.04,363,435.04,356,455.04,349,455.04,363" style="stroke: #A80036; stroke-width: 1.0;"/><!--link Boat to PlayerBoat--><path d="M537.28,318.44 C546,311.71 555.77,305.67 566,302 C596.12,291.19 607.26,293.11 638,302 C658.57,307.95 678.96,320.5 694.66,332 " fill="none" id="Boat-PlayerBoat" style="stroke: #A80036; stroke-width: 1.0;"/><polygon fill="none" points="541.61,323.95,521.93,331.82,532.41,313.4,541.61,323.95" style="stroke: #A80036; stroke-width: 1.0;"/><!--link Boat to AIBoat--><path d="M551.2,356 C556.23,356 561.25,356 566.28,356 " fill="none" id="Boat-AIBoat" style="stroke: #A80036; stroke-width: 1.0;"/><polygon fill="none" points="551.18,363,531.18,356,551.18,349,551.18,363" style="stroke: #A80036; stroke-width: 1.0;"/><!--link Scene to SceneMainGame--><path d="M235.73,102.93 C245.29,95.99 255.96,89.74 267,86 C369.7,51.19 649.68,60.18 755,86 C779.01,91.89 803.65,104.43 822.85,115.94 " fill="none" id="Scene-SceneMainGame" style="stroke: #A80036; stroke-width: 1.0;"/><polygon fill="none" points="239.84,108.61,219.9,115.78,231.01,97.74,239.84,108.61" style="stroke: #A80036; stroke-width: 1.0;"/><!--link Scene to SceneOptionsMenu--><path d="M235.73,102.93 C245.29,95.99 255.96,89.74 267,86 C392.85,43.34 436.42,56.51 566,86 C591.77,91.86 618.53,104.4 639.48,115.92 " fill="none" id="Scene-SceneOptionsMenu" style="stroke: #A80036; stroke-width: 1.0;"/><polygon fill="none" points="239.84,108.61,219.9,115.78,231.01,97.74,239.84,108.61" style="stroke: #A80036; stroke-width: 1.0;"/><!--link Scene to SceneStartScreen--><path d="M235.73,102.93 C245.29,95.99 255.96,89.74 267,86 C316.67,69.16 333.95,74 385,86 C409.99,91.87 435.8,104.41 455.98,115.93 " fill="none" id="Scene-SceneStartScreen" style="stroke: #A80036; stroke-width: 1.0;"/><polygon fill="none" points="239.84,108.61,219.9,115.78,231.01,97.74,239.84,108.61" style="stroke: #A80036; stroke-width: 1.0;"/><!--link Scene to SceneTutorial--><path d="M252.25,140 C257.32,140 262.39,140 267.47,140 " fill="none" id="Scene-SceneTutorial" style="stroke: #A80036; stroke-width: 1.0;"/><polygon fill="none" points="252.05,147,232.05,140,252.05,133,252.05,147" style="stroke: #A80036; stroke-width: 1.0;"/><!--link PixelBoat to SceneMainGame--><path d="M642.67,55.2 C688.45,72.97 752.46,97.83 798.87,115.85 " fill="none" id="PixelBoat-SceneMainGame" style="stroke: #A80036; stroke-width: 1.0;"/><polygon fill="#A80036" points="630.27,50.39,634.4169,56.2894,641.4575,54.7304,637.3106,48.831,630.27,50.39" style="stroke: #A80036; stroke-width: 1.0;"/><text fill="#000000" font-family="sans-serif" font-size="13" lengthAdjust="spacingAndGlyphs" textLength="8" x="638.0427" y="49.2031">1</text><text fill="#000000" font-family="sans-serif" font-size="13" lengthAdjust="spacingAndGlyphs" textLength="8" x="774.5648" y="104.8236">1</text><!--link PixelBoat to SceneOptionsMenu--><path d="M614.53,66.08 C628.64,82.17 645.27,101.13 658.04,115.68 " fill="none" id="PixelBoat-SceneOptionsMenu" style="stroke: #A80036; stroke-width: 1.0;"/><polygon fill="#A80036" points="605.68,56,606.6296,63.1483,613.5933,65.0211,612.6437,57.8728,605.68,56" style="stroke: #A80036; stroke-width: 1.0;"/><text fill="#000000" font-family="sans-serif" font-size="13" lengthAdjust="spacingAndGlyphs" textLength="8" x="601.8261" y="76.1558">1</text><text fill="#000000" font-family="sans-serif" font-size="13" lengthAdjust="spacingAndGlyphs" textLength="8" x="644.0779" y="105.007">1</text><!--link PixelBoat to SceneStartScreen--><path d="M556.79,66.08 C542.82,82.17 526.37,101.13 513.74,115.68 " fill="none" id="PixelBoat-SceneStartScreen" style="stroke: #A80036; stroke-width: 1.0;"/><polygon fill="#A80036" points="565.54,56,558.5867,57.9109,557.6763,65.0643,564.6296,63.1534,565.54,56" style="stroke: #A80036; stroke-width: 1.0;"/><text fill="#000000" font-family="sans-serif" font-size="13" lengthAdjust="spacingAndGlyphs" textLength="8" x="551.4002" y="76.1558">1</text><text fill="#000000" font-family="sans-serif" font-size="13" lengthAdjust="spacingAndGlyphs" textLength="8" x="509.6985" y="105.007">1</text><!--link PixelBoat to SceneTutorial--><path d="M528.68,56.26 C485.46,73.94 426.27,98.17 383.1,115.84 " fill="none" id="PixelBoat-SceneTutorial" style="stroke: #A80036; stroke-width: 1.0;"/><polygon fill="#A80036" points="540.98,51.22,533.9114,49.7935,529.876,55.7698,536.9446,57.1962,540.98,51.22" style="stroke: #A80036; stroke-width: 1.0;"/><text fill="#000000" font-family="sans-serif" font-size="13" lengthAdjust="spacingAndGlyphs" textLength="8" x="524.9439" y="50.239">1</text><text fill="#000000" font-family="sans-serif" font-size="13" lengthAdjust="spacingAndGlyphs" textLength="8" x="388.5788" y="104.811">1</text><!--link BoatRace to Obstacle--><path d="M807.99,283.47 C817.37,299.25 828.24,317.54 836.64,331.68 " fill="none" id="BoatRace-Obstacle" style="stroke: #A80036; stroke-width: 1.0;"/><polygon fill="#A80036" points="801.17,272,800.7985,279.2015,807.3032,282.3143,807.6747,275.1127,801.17,272" style="stroke: #A80036; stroke-width: 1.0;"/><text fill="#000000" font-family="sans-serif" font-size="13" lengthAdjust="spacingAndGlyphs" textLength="8" x="795.6479" y="292.1558">1</text><text fill="#000000" font-family="sans-serif" font-size="13" lengthAdjust="spacingAndGlyphs" textLength="23" x="807.4585" y="321.007">0..*</text><!--link SceneMainGame to BoatRace--><path d="M835.72,175.01 C825.08,190.89 812.68,209.41 803.12,223.68 " fill="none" id="SceneMainGame-BoatRace" style="stroke: #A80036; stroke-width: 1.0;"/><polygon fill="#A80036" points="843.09,164,836.4285,166.7613,836.4153,173.9724,843.0768,171.2111,843.09,164" style="stroke: #A80036; stroke-width: 1.0;"/><text fill="#000000" font-family="sans-serif" font-size="13" lengthAdjust="spacingAndGlyphs" textLength="8" x="830.1162" y="184.1558">1</text><text fill="#000000" font-family="sans-serif" font-size="13" lengthAdjust="spacingAndGlyphs" textLength="8" x="797.9524" y="213.007">1</text><!--link SceneMainGame to ResultsScreen--><path d="M881.28,175.01 C891.92,190.89 904.32,209.41 913.88,223.68 " fill="none" id="SceneMainGame-ResultsScreen" style="stroke: #A80036; stroke-width: 1.0;"/><polygon fill="#A80036" points="873.91,164,873.9232,171.2111,880.5847,173.9724,880.5715,166.7613,873.91,164" style="stroke: #A80036; stroke-width: 1.0;"/><text fill="#000000" font-family="sans-serif" font-size="13" lengthAdjust="spacingAndGlyphs" textLength="8" x="868.8338" y="184.1558">1</text><text fill="#000000" font-family="sans-serif" font-size="13" lengthAdjust="spacingAndGlyphs" textLength="8" x="901.0976" y="213.007">1</text><!--link SceneMainGame to Boat--><path d="M808.34,170.98 C733.05,215.99 593.06,299.67 531.22,336.63 " fill="none" id="SceneMainGame-Boat" style="stroke: #A80036; stroke-width: 1.0;"/><polygon fill="#A80036" points="819.85,164.11,812.6476,163.7561,809.5508,170.2684,816.7532,170.6223,819.85,164.11" style="stroke: #A80036; stroke-width: 1.0;"/><text fill="#000000" font-family="sans-serif" font-size="13" lengthAdjust="spacingAndGlyphs" textLength="8" x="801.4541" y="183.898">1</text><text fill="#000000" font-family="sans-serif" font-size="13" lengthAdjust="spacingAndGlyphs" textLength="23" x="539.0043" y="328.755">0..*</text><!--link SceneMainGame to RaceThread--><path d="M920.44,170.71 C955.51,187.53 998.73,208.26 1031.26,223.86 " fill="none" id="SceneMainGame-RaceThread" style="stroke: #A80036; stroke-width: 1.0;"/><ellipse cx="913.6638" cy="167.4584" fill="#FFFFFF" rx="8" ry="8" style="stroke: #A80036; stroke-width: 1.0;"/><line style="stroke: #A80036; stroke-width: 1.0;" x1="920.8777" x2="906.45" y1="170.9168" y2="164"/><line style="stroke: #A80036; stroke-width: 1.0;" x1="910.2055" x2="917.1222" y1="174.6722" y2="160.2445"/><!--link CollisionObject to CollisionBounds--><path d="M374.5,393.34 C374.5,408.68 374.5,426.1 374.5,439.68 " fill="none" id="CollisionObject-CollisionBounds" style="stroke: #A80036; stroke-width: 1.0;"/><polygon fill="#A80036" points="374.5,380,370.5,386,374.5,392,378.5,386,374.5,380" style="stroke: #A80036; stroke-width: 1.0;"/><text fill="#000000" font-family="sans-serif" font-size="13" lengthAdjust="spacingAndGlyphs" textLength="8" x="365.475" y="400.1558">1</text><text fill="#000000" font-family="sans-serif" font-size="13" lengthAdjust="spacingAndGlyphs" textLength="8" x="365.525" y="429.007">1</text><!--
@startuml
class AIBoat
abstract class Boat
class BoatRace
class CollisionBounds
interface CollisionObject
abstract class GameObject
abstract class MoveableObject
abstract class Obstacle
class ObstacleBranch
class ObstacleDuck
class ObstacleFloatingBranch
class ObstacleLaneWall
class PixelBoat
class PlayerBoat
class ResultsScreen
interface Scene
class SceneMainGame
class SceneOptionsMenu
class SceneStartScreen
class SceneTutorial
class RaceThread



GameObject <|- MoveableObject

MoveableObject <|- Obstacle
CollisionObject <|- Obstacle
Obstacle <|- ObstacleBranch
Obstacle <|- ObstacleDuck
ObstacleBranch <|- ObstacleFloatingBranch
Obstacle <|- ObstacleLaneWall

MoveableObject <|- Boat
CollisionObject <|- Boat
Boat <|- PlayerBoat
Boat <|- AIBoat

Scene <|- SceneMainGame
Scene <|- SceneOptionsMenu
Scene <|- SceneStartScreen
Scene <|- SceneTutorial



PixelBoat "1" *- - "1" SceneMainGame
PixelBoat "1" *- - "1" SceneOptionsMenu
PixelBoat "1" *- - "1" SceneStartScreen
PixelBoat "1" *- - "1" SceneTutorial

BoatRace "1" *- - "0..*" Obstacle

SceneMainGame "1" *- - "1" BoatRace
SceneMainGame "1" *- - "1" ResultsScreen
SceneMainGame "1" *- - "0..*" Boat

SceneMainGame +- - RaceThread

CollisionObject "1" *- - "1" CollisionBounds
@enduml

PlantUML version 1.2018.13(Mon Nov 26 17:11:51 GMT 2018)
(GPL source distribution)
Java Runtime: OpenJDK Runtime Environment
JVM: OpenJDK 64-Bit Server VM
Java Version: 11.0.9.1+1-Ubuntu-0ubuntu1.20.04
Operating System: Linux
OS Version: 4.19.128-microsoft-standard
Default Encoding: UTF-8
Language: en
Country: null
--></g></svg>